<svg width="1290" height="442" viewBox="0 0 1290 442" fill="none" xmlns="http://www.w3.org/2000/svg">
<g opacity="0.5">
<path d="M1286.5 400.5C814.5 362 469 376 1.5 401L528.5 23.152C528.5 23.152 536.327 16.3026 552.5 11.152C570.541 5.40651 598.968 1.24404 638.5 0.151989C659.028 -0.415082 676.778 0.68264 692 2.15232C746 6.65232 764.407 19.2861 767.5 23.1523L1286.5 400.5Z" fill="#FFF768"/>
<path d="M1286.5 400.5C814.5 362 469 376 1.5 401L528.5 23.152C528.5 23.152 536.327 16.3026 552.5 11.152C570.541 5.40651 598.968 1.24404 638.5 0.151989C659.028 -0.415082 676.778 0.68264 692 2.15232C746 6.65232 764.407 19.2861 767.5 23.1523L1286.5 400.5Z" fill="url(#paint0_linear_984_417)"/>
</g>
<path d="M1290 402.696C1290 417.992 1001.22 442 645 442C288.776 442 0 417.992 0 402.696C0 387.4 288.776 375 645 375C1001.22 375 1290 387.4 1290 402.696Z" fill="#ECE8AD"/>
<defs>
<linearGradient id="paint0_linear_984_417" x1="740.21" y1="595.686" x2="740.21" y2="123.407" gradientUnits="userSpaceOnUse">
<stop stop-color="white" stop-opacity="0"/>
<stop offset="1" stop-color="white"/>
</linearGradient>
</defs>
</svg>
