<svg width="2679" height="1053" viewBox="0 0 2679 1053" fill="none" xmlns="http://www.w3.org/2000/svg">
<g clip-path="url(#clip0_593_38)">
<path d="M2641.26 850.556V816.709H2615.27V616.859H2536.26V535.486H2521.11V428.575H2512.77V417.42C2513.75 417.361 2514.52 416.48 2514.52 415.365V413.721C2514.52 412.576 2513.69 411.666 2512.65 411.666H2507.47V407.322C2507.47 406.265 2506.67 405.384 2505.72 405.384H2490.91V375.706C2490.91 375.501 2490.76 375.354 2490.58 375.354H2490.33C2490.15 375.354 2489.99 375.53 2489.99 375.706V405.384H2476.11C2475.12 405.384 2474.36 406.265 2474.36 407.322V411.666H2467.34C2466.29 411.666 2465.47 412.606 2465.47 413.721V415.365C2465.47 416.51 2466.29 417.42 2467.34 417.42H2467.89V428.545H2432.91V535.457H2399.49V570.947H2347.89V706.392H2341.76V752.568H2333.79V616.8H2318.92V592.964H2299.3V576.965C2299.3 572.709 2296.14 569.216 2292.31 569.216H2282.13V562.699C2282.13 558.442 2278.97 554.949 2275.14 554.949H2260.97V528.001H2258.83V554.949H2248.03C2244.17 554.949 2241.04 558.442 2241.04 562.699V569.216H2221.09C2217.22 569.216 2214.1 572.709 2214.1 576.965V592.964H2198.77V616.8H2179.91V720.63H2168.87V672.399H2166.42V616.771H2144.5V473.341C2145.54 473.195 2146.34 472.255 2146.34 471.081V469.261C2146.34 467.999 2145.39 466.942 2144.26 466.942H2134.38V466.854C2134.38 464.858 2132.91 463.214 2131.1 463.214H2128.5C2126.69 463.214 2125.19 464.858 2125.19 466.854V466.942H2099.13V459.192C2099.13 455.993 2096.76 453.351 2093.85 453.351H2089.68C2086.77 453.351 2084.41 455.993 2084.41 459.192V466.942H2076.68C2075.55 466.942 2074.6 467.969 2074.6 469.261V471.081C2074.6 472.343 2075.55 473.4 2076.68 473.4H2076.9V486.783H2068.93V471.228H2052.71V338.337H2044.37V327.27H2020.55V308.277H2005.16V300.322H1997.34V269H1983.54V300.322H1973.21V308.277H1955.73V288.081H1939.42V308.277H1934.73V338.337H1916.86V512.384H1852.2V717.254H1840.24V512.384H1825.1V493.391H1811.85C1811.85 493.391 1811.85 493.215 1811.85 493.127C1811.85 485.054 1800.6 478.537 1786.71 478.537C1772.82 478.537 1761.57 485.084 1761.57 493.127C1761.57 493.215 1761.57 493.303 1761.57 493.391H1753.51V512.384H1727.3V682.321H1718.77V759.026H1713.25V682.321H1665.3V558.266H1653.38V522.658H1634.98V479.154H1634.83H1634.43H1592.43H1592.58V558.266H1586.63V816.65H1573.54V429.338H1555.52H1491.74H1472.74V406.206H1403.45V429.338H1391.18V595.312H1384.9V705.042H1380.3V595.312H1347.04V568.129C1347.04 563.873 1343.88 560.38 1340.05 560.38H1331.43V540.624C1331.43 536.367 1328.27 532.874 1324.44 532.874H1304.42C1300.56 532.874 1297.43 536.367 1297.43 540.624V560.38H1234.55C1230.69 560.38 1227.56 563.873 1227.56 568.129V595.312H1182.12V616.83H1167.96V762.079H1160.6V616.83H1148.49V597.749H1141.74V576.701H1104.34V597.749H1081.19V586.946H1056.67V597.749H1046.09V616.83H1012L1010.49 479.183H989.371V468.703H977.199V438.145H975.145V468.703H965.028V479.183H954.236V415.893H924.742V352.604H779.941V816.65H761.178V493.391H756.272V478.332H724.54V487.491H721.321H684.531V493.362H670.428V690.283H660.31V648.827H613.678V665.677H530.562V816.621H487.671V602.387H441.008V582.719H361.663V602.387H318.772V816.621H281.246V634.032H251.752H176.669H136.444V816.621H127.89V700.932H100.298V816.65H91.1V789.585H33.1549V816.65H8.01478V850.497H-37V1053.22H2715V850.497H2641.26V850.556Z" fill="url(#paint0_linear_593_38)"/>
<path d="M2641.26 850.556V816.709H2615.27V616.859H2536.26V535.486H2521.11V428.575H2512.77V417.42C2513.75 417.361 2514.52 416.48 2514.52 415.365V413.721C2514.52 412.576 2513.69 411.666 2512.65 411.666H2507.47V407.322C2507.47 406.265 2506.67 405.384 2505.72 405.384H2490.91V375.706C2490.91 375.501 2490.76 375.354 2490.58 375.354H2490.33C2490.15 375.354 2489.99 375.53 2489.99 375.706V405.384H2476.11C2475.12 405.384 2474.36 406.265 2474.36 407.322V411.666H2467.34C2466.29 411.666 2465.47 412.606 2465.47 413.721V415.365C2465.47 416.51 2466.29 417.42 2467.34 417.42H2467.89V428.545H2432.91V535.457H2399.49V570.947H2347.89V706.392H2341.76V752.568H2333.79V616.8H2318.92V592.964H2299.3V576.965C2299.3 572.709 2296.14 569.216 2292.31 569.216H2282.13V562.699C2282.13 558.442 2278.97 554.949 2275.14 554.949H2260.97V528.001H2258.83V554.949H2248.03C2244.17 554.949 2241.04 558.442 2241.04 562.699V569.216H2221.09C2217.22 569.216 2214.1 572.709 2214.1 576.965V592.964H2198.77V616.8H2179.91V720.63H2168.87V672.399H2166.42V616.771H2144.5V473.341C2145.54 473.195 2146.34 472.255 2146.34 471.081V469.261C2146.34 467.999 2145.39 466.942 2144.26 466.942H2134.38V466.854C2134.38 464.858 2132.91 463.214 2131.1 463.214H2128.5C2126.69 463.214 2125.19 464.858 2125.19 466.854V466.942H2099.13V459.192C2099.13 455.993 2096.76 453.351 2093.85 453.351H2089.68C2086.77 453.351 2084.41 455.993 2084.41 459.192V466.942H2076.68C2075.55 466.942 2074.6 467.969 2074.6 469.261V471.081C2074.6 472.343 2075.55 473.4 2076.68 473.4H2076.9V486.783H2068.93V471.228H2052.71V338.337H2044.37V327.27H2020.55V308.277H2005.16V300.322H1997.34V269H1983.54V300.322H1973.21V308.277H1955.73V288.081H1939.42V308.277H1934.73V338.337H1916.86V512.384H1852.2V717.254H1840.24V512.384H1825.1V493.391H1811.85C1811.85 493.391 1811.85 493.215 1811.85 493.127C1811.85 485.054 1800.6 478.537 1786.71 478.537C1772.82 478.537 1761.57 485.084 1761.57 493.127C1761.57 493.215 1761.57 493.303 1761.57 493.391H1753.51V512.384H1727.3V682.321H1718.77V759.026H1713.25V682.321H1665.3V558.266H1653.38V522.658H1634.98V479.154H1634.83H1634.43H1592.43H1592.58V558.266H1586.63V816.65H1573.54V429.338H1555.52H1491.74H1472.74V406.206H1403.45V429.338H1391.18V595.312H1384.9V705.042H1380.3V595.312H1347.04V568.129C1347.04 563.873 1343.88 560.38 1340.05 560.38H1331.43V540.624C1331.43 536.367 1328.27 532.874 1324.44 532.874H1304.42C1300.56 532.874 1297.43 536.367 1297.43 540.624V560.38H1234.55C1230.69 560.38 1227.56 563.873 1227.56 568.129V595.312H1182.12V616.83H1167.96V762.079H1160.6V616.83H1148.49V597.749H1141.74V576.701H1104.34V597.749H1081.19V586.946H1056.67V597.749H1046.09V616.83H1012L1010.49 479.183H989.371V468.703H977.199V438.145H975.145V468.703H965.028V479.183H954.236V415.893H924.742V352.604H779.941V816.65H761.178V493.391H756.272V478.332H724.54V487.491H721.321H684.531V493.362H670.428V690.283H660.31V648.827H613.678V665.677H530.562V816.621H487.671V602.387H441.008V582.719H361.663V602.387H318.772V816.621H281.246V634.032H251.752H176.669H136.444V816.621H127.89V700.932H100.298V816.65H91.1V789.585H33.1549V816.65H8.01478V850.497H-37V1053.22H2715V850.497H2641.26V850.556Z" fill="#333333" fill-opacity="0.4"/>
</g>
<defs>
<linearGradient id="paint0_linear_593_38" x1="1348.99" y1="1366.24" x2="1348.99" y2="150.288" gradientUnits="userSpaceOnUse">
<stop stop-color="#000100"/>
<stop offset="0.11" stop-color="#02121D"/>
<stop offset="0.24" stop-color="#052339"/>
<stop offset="0.39" stop-color="#07304E"/>
<stop offset="0.55" stop-color="#08395E"/>
<stop offset="0.73" stop-color="#093F67"/>
<stop offset="1" stop-color="#0A416A"/>
</linearGradient>
<clipPath id="clip0_593_38">
<rect width="2679" height="1053" fill="white"/>
</clipPath>
</defs>
</svg>
