<svg width="2666" height="635" viewBox="0 0 2666 635" fill="none" xmlns="http://www.w3.org/2000/svg">
<path d="M765.424 460.539H753.498V43.02H748.593V23.5867L716.892 23.5869V43.02H713.642V35.4464H676.882V43.02H662.779V317.667H652.661V243.81H606.029V265.562H522.883V460.539H479.991V183.837H433.329V158.415H353.953V183.837H311.062V460.539H273.505V224.699H244.011V219.092H168.928V224.699H128.704V311.092H120.15H92.5569V460.539H83.3592V425.577H25.4142V460.539H0.304688V506.509H765.424V460.539Z" fill="url(#paint0_linear_593_75)"/>
<path d="M765.424 460.539H753.498V43.02H748.593V23.5867L716.892 23.5869V43.02H713.642V35.4464H676.882V43.02H662.779V317.667H652.661V243.81H606.029V265.562H522.883V460.539H479.991V183.837H433.329V158.415H353.953V183.837H311.062V460.539H273.505V224.699H244.011V219.092H168.928V224.699H128.704V311.092H120.15H92.5569V460.539H83.3592V425.577H25.4142V460.539H0.304688V506.509H765.424V460.539Z" fill="#666666" fill-opacity="0.6"/>
<path d="M2653.18 176.362H2562.43V309.224H2552.31V235.337H2505.68V257.118H2422.56V452.066H2379.64V175.364H2332.98V149.972H2253.63V175.364H2210.71V452.066H2173.18V216.256H2143.69V210.62H2068.61V216.256H2028.38V452.066H2019.8V302.648H1992.21V452.066H1983.01V417.104H1925.09V452.066H1899.95V538.957H2665.07V452.066H2653.18V176.362Z" fill="url(#paint1_linear_593_75)"/>
<path d="M2653.18 176.362H2562.43V309.224H2552.31V235.337H2505.68V257.118H2422.56V452.066H2379.64V175.364H2332.98V149.972H2253.63V175.364H2210.71V452.066H2173.18V216.256H2143.69V210.62H2068.61V216.256H2028.38V452.066H2019.8V302.648H1992.21V452.066H1983.01V417.104H1925.09V452.066H1899.95V538.957H2665.07V452.066H2653.18V176.362Z" fill="#666666" fill-opacity="0.6"/>
<path d="M1787.62 342.424V313.861H1729.67V342.424H1720.47V220.424L1692.88 220.424V342.424H1684.33V149.883H1644.1V145.304H1569.02V149.883H1539.53V342.424H1502V116.507H1459.08V95.7818H1379.73V116.507H1333.04V342.424H1290.15V183.26H1207.03V165.471H1160.4V225.796H1150.28V66.7788H1059.53V342.424H1047.64V507.576H1812.76V342.424H1787.62Z" fill="url(#paint2_linear_593_75)"/>
<path d="M1787.62 342.424V313.861H1729.67V342.424H1720.47V220.424L1692.88 220.424V342.424H1684.33V149.883H1644.1V145.304H1569.02V149.883H1539.53V342.424H1502V116.507H1459.08V95.7818H1379.73V116.507H1333.04V342.424H1290.15V183.26H1207.03V165.471H1160.4V225.796H1150.28V66.7788H1059.53V342.424H1047.64V507.576H1812.76V342.424H1787.62Z" fill="#666666" fill-opacity="0.6"/>
<defs>
<linearGradient id="paint0_linear_593_75" x1="382.865" y1="2.09454" x2="382.865" y2="516.173" gradientUnits="userSpaceOnUse">
<stop offset="0.16" stop-color="#0A436E"/>
<stop offset="0.29" stop-color="#0E4773"/>
<stop offset="0.45" stop-color="#1C5581"/>
<stop offset="0.62" stop-color="#336B9A"/>
<stop offset="0.76" stop-color="#4B83B4"/>
</linearGradient>
<linearGradient id="paint1_linear_593_75" x1="2282.51" y1="151.322" x2="2282.51" y2="546.384" gradientUnits="userSpaceOnUse">
<stop offset="0.16" stop-color="#0A436E"/>
<stop offset="0.29" stop-color="#0E4773"/>
<stop offset="0.45" stop-color="#1C5581"/>
<stop offset="0.62" stop-color="#336B9A"/>
<stop offset="0.76" stop-color="#4B83B4"/>
</linearGradient>
<linearGradient id="paint2_linear_593_75" x1="1430.2" y1="68.309" x2="1430.2" y2="515.992" gradientUnits="userSpaceOnUse">
<stop offset="0.16" stop-color="#0A436E"/>
<stop offset="0.29" stop-color="#0E4773"/>
<stop offset="0.45" stop-color="#1C5581"/>
<stop offset="0.62" stop-color="#336B9A"/>
<stop offset="0.76" stop-color="#4B83B4"/>
</linearGradient>
</defs>
</svg>
