<svg width="84" height="84" viewBox="0 0 84 84" fill="none" xmlns="http://www.w3.org/2000/svg">
<path d="M83 17.9346H82C80.6742 17.9346 79.5801 19.0256 79.5801 20.3984C79.5801 21.7777 80.6752 22.8682 82 22.8682H83V28.71H82C80.6742 28.71 79.5801 29.8009 79.5801 31.1738C79.5802 32.553 80.6752 33.6436 82 33.6436H83V39.4844H82C80.6742 39.4844 79.5801 40.5763 79.5801 41.9492C79.5803 43.3283 80.6753 44.418 82 44.418H83V50.2598H82C80.6743 50.2598 79.5802 51.3509 79.5801 52.7236C79.5801 54.1029 80.6752 55.1934 82 55.1934H83V61.0352H82C80.6742 61.0352 79.5801 62.1262 79.5801 63.499C79.5801 64.8783 80.6752 65.9688 82 65.9688H83V71.8096H82C80.6954 71.8096 79.6193 72.8636 79.585 74.1973L79.583 74.2666L79.5801 74.2822C79.5843 75.6577 80.6778 76.7441 82 76.7441H83V83H76.2842V82C76.2842 80.6208 75.189 79.5304 73.8643 79.5303C72.5394 79.5303 71.4443 80.6207 71.4443 82V83H65.6631V82C65.6631 80.6209 64.5678 79.5305 63.2432 79.5303C61.9183 79.5303 60.8223 80.6207 60.8223 82V83H55.041V82C55.041 80.6207 53.9459 79.5303 52.6211 79.5303C51.2964 79.5304 50.2012 80.6208 50.2012 82V83H44.4199V82C44.4199 80.6207 43.3248 79.5303 42 79.5303C40.6752 79.5303 39.5801 80.6207 39.5801 82V83H33.7988V82C33.7988 80.6208 32.7036 79.5304 31.3789 79.5303C30.0541 79.5303 28.959 80.6207 28.959 82V83H23.1777V82C23.1777 80.6207 22.0817 79.5303 20.7568 79.5303C19.4322 79.5305 18.3369 80.6209 18.3369 82V83H12.5557V82C12.5557 80.6207 11.4606 79.5303 10.1357 79.5303C8.81102 79.5304 7.71582 80.6208 7.71582 82V83H1V76.7441H2C3.31794 76.7441 4.4147 75.6567 4.41895 74.2822L4.41699 74.2666L4.41504 74.1973C4.38074 72.8646 3.30029 71.8096 2 71.8096H1V65.9688H2C3.3205 65.9688 4.41992 64.8773 4.41992 63.499C4.41989 62.1272 3.32149 61.0352 2 61.0352H1V55.1934H2C3.3205 55.1934 4.41992 54.1019 4.41992 52.7236C4.41975 51.3519 3.32141 50.2598 2 50.2598H1V44.418H2C3.32038 44.418 4.41971 43.3273 4.41992 41.9492C4.41992 40.5774 3.32151 39.4844 2 39.4844H1V33.6436H2C3.32046 33.6436 4.41984 32.552 4.41992 31.1738C4.41992 29.802 3.32151 28.71 2 28.71H1V22.8682H2C3.3205 22.8682 4.41992 21.7767 4.41992 20.3984C4.41987 19.0266 3.32148 17.9346 2 17.9346H1V12.0928H2C3.32148 12.0928 4.41986 11.0007 4.41992 9.62891C4.41992 8.25063 3.3205 7.15918 2 7.15918H1V1H7.71582V2C7.71582 3.37922 8.81103 4.46961 10.1357 4.46973C11.4606 4.46973 12.5557 3.37929 12.5557 2V1H18.3369V2C18.3369 3.37913 19.4322 4.46947 20.7568 4.46973C22.0816 4.46973 23.1777 3.37929 23.1777 2V1H28.959V2C28.959 3.37929 30.0541 4.46973 31.3789 4.46973C32.7036 4.46959 33.7988 3.3792 33.7988 2V1H39.5801V2C39.5801 3.37929 40.6752 4.46973 42 4.46973C43.3248 4.46972 44.4199 3.37929 44.4199 2V1H50.2012V2C50.2012 3.3792 51.2964 4.46959 52.6211 4.46973C53.9459 4.46973 55.041 3.37929 55.041 2V1H60.8223V2C60.8223 3.37929 61.9184 4.46973 63.2432 4.46973C64.5678 4.46947 65.6631 3.37913 65.6631 2V1H71.4443V2C71.4443 3.37929 72.5394 4.46973 73.8643 4.46973C75.189 4.46961 76.2842 3.37921 76.2842 2V1H83V7.15918H82C80.6752 7.15918 79.5801 8.24961 79.5801 9.62891L79.5928 9.88281C79.7179 11.1339 80.7571 12.0928 82 12.0928H83V17.9346Z" fill="#EEEEEE" stroke="black" stroke-width="2"/>
<path d="M27.8386 27.8386C28.3758 27.3017 29.1042 27 29.8638 27C30.6233 27 31.3517 27.3017 31.8889 27.8386L42.0173 37.9671L52.1457 27.8386C52.6859 27.3169 53.4095 27.0282 54.1605 27.0347C54.9115 27.0412 55.63 27.3425 56.161 27.8735C56.6921 28.4046 56.9934 29.123 56.9999 29.8741C57.0064 30.6251 56.7177 31.3486 56.1959 31.8889L46.0675 42.0173L56.1959 52.1457C56.7177 52.6859 57.0064 53.4095 56.9999 54.1605C56.9934 54.9115 56.6921 55.63 56.161 56.161C55.63 56.6921 54.9115 56.9934 54.1605 56.9999C53.4095 57.0064 52.6859 56.7177 52.1457 56.1959L42.0173 46.0675L31.8889 56.1959C31.3486 56.7177 30.6251 57.0064 29.8741 56.9999C29.123 56.9934 28.4046 56.6921 27.8735 56.161C27.3425 55.63 27.0412 54.9115 27.0347 54.1605C27.0282 53.4095 27.3169 52.6859 27.8386 52.1457L37.9671 42.0173L27.8386 31.8889C27.3017 31.3517 27 30.6233 27 29.8638C27 29.1042 27.3017 28.3758 27.8386 27.8386Z" fill="black"/>
</svg>
