<?xml version="1.0" encoding="UTF-8"?><svg xmlns="http://www.w3.org/2000/svg" width="1910.22" height="899.14" viewBox="0 0 1910.22 899.14"><defs><style>.cls-1,.cls-2,.cls-3,.cls-4,.cls-5,.cls-6{stroke-width:0px;}.cls-1,.cls-7{fill:#b2a29e;}.cls-8{fill:#544e4d;}.cls-8,.cls-9,.cls-10,.cls-11,.cls-7{stroke-linecap:round;}.cls-8,.cls-12,.cls-13,.cls-10,.cls-11,.cls-7{stroke-linejoin:round;}.cls-8,.cls-12,.cls-10,.cls-7{stroke-width:2px;}.cls-8,.cls-10,.cls-7{stroke:#443f3f;}.cls-9,.cls-12,.cls-14,.cls-13,.cls-11{stroke:#252625;}.cls-9,.cls-14{stroke-miterlimit:10;}.cls-9,.cls-14,.cls-13,.cls-11{stroke-width:3px;}.cls-9,.cls-14,.cls-10{fill:none;}.cls-2{fill:#627a89;}.cls-12{fill:#6d6664;}.cls-3{fill:#617260;}.cls-13,.cls-4{fill:#3d5363;}.cls-5{fill:#aed3d0;}.cls-6{fill:#7c9690;}.cls-11{fill:#252625;}</style></defs><g id="_레이어_4"><polyline class="cls-1" points="1693.34 642.11 1693.34 763.9 1908.69 763.9 1908.69 641.57 1693.34 641.57"/><polyline class="cls-1" points="1694.29 763.9 1473.48 897.72 1908.74 897.66 1908.69 763.9 1694.29 763.9"/><polyline class="cls-1" points="1693.34 642.11 1693.34 763.9 1472.54 897.72 656.86 897.72 1693.34 642.11"/><polygon class="cls-1" points="656.86 898.14 440.3 898.14 1682.52 636.91 1908.8 636.91 1909.22 642.11 1693.34 642.11 656.86 898.14"/><path class="cls-1" d="M1712.68,727.21c1.98,1.98,3.96,3.96,5.94,5.94"/><path class="cls-1" d="M1718.6,724.76l5.94,7.42"/><path class="cls-1" d="M1132.56,817.09l-2.2,13.92"/><path class="cls-1" d="M1137.72,828.8l-1.14,10.02"/><path class="cls-1" d="M1642.64,670.68l4.45,4.45"/><path class="cls-1" d="M1585.29,743.61l5.57,1.67"/><path class="cls-1" d="M1891.78,664.93l-3.49,3.49"/><path class="cls-1" d="M1410.87,877.65l7.23,1.91"/><path class="cls-1" d="M846.04,851.96c.43,2.3-.72,4.57-.29,6.87-1.6-2.06-3.03-5.21-4.63-7.27l-12.12-3.32"/><polyline class="cls-8" points="1693.34 642.11 1693.34 763.9 1908.69 763.9 1908.69 641.57 1693.34 641.57"/><polyline class="cls-3" points="1694.29 763.9 1473.48 897.72 1908.74 897.66 1908.69 763.9 1694.29 763.9"/><polyline class="cls-12" points="1693.34 642.11 1693.34 763.9 1472.54 897.72 656.86 897.72 1693.34 642.11"/><polygon class="cls-7" points="656.86 898.14 440.3 898.14 1682.52 636.91 1908.8 636.91 1909.22 642.11 1693.34 642.11 656.86 898.14"/><polyline class="cls-10" points="1693.34 642.11 1693.34 763.9 1908.69 763.9 1908.69 641.57 1693.34 641.57"/><polyline class="cls-10" points="1694.29 763.9 1473.48 897.72 1908.74 897.66 1908.69 763.9 1694.29 763.9"/><polyline class="cls-10" points="1693.34 642.11 1693.34 763.9 1472.54 897.72 656.86 897.72 1693.34 642.11"/><polygon class="cls-10" points="656.86 898.14 440.3 898.14 1682.52 636.91 1908.8 636.91 1909.22 642.11 1693.34 642.11 656.86 898.14"/><path class="cls-10" d="M1712.68,727.21c1.98,1.98,3.96,3.96,5.94,5.94"/><path class="cls-10" d="M1718.6,724.76l5.94,7.42"/><path class="cls-10" d="M1132.56,817.09l-2.2,13.92"/><path class="cls-10" d="M1137.72,828.8l-1.14,10.02"/><path class="cls-10" d="M1642.64,670.68l4.45,4.45"/><path class="cls-10" d="M1585.29,743.61l5.57,1.67"/><path class="cls-10" d="M1891.78,664.93l-3.49,3.49"/><path class="cls-10" d="M1410.87,877.65l7.23,1.91"/><path class="cls-10" d="M846.04,851.96c.43,2.3-.72,4.57-.29,6.87-1.6-2.06-3.03-5.21-4.63-7.27l-12.12-3.32"/></g><g id="_레이어_2"><path class="cls-11" d="M1297.56,663.29c9.26-3.32,18.59-6.67,28.32-8.17s19.98-1.06,28.96,2.95,16.5,11.99,18.41,21.66c1.75,8.86-1.58,18.54-8.39,24.45-6.95,6.03-16.47,7.88-25.52,9.52-37.14,6.71-74.28,13.42-111.41,20.13-6.23,1.13-12.47,1.47-18.41-.74-6.96-2.59-12.03-8.64-14.04-15.8-1.69-6.04-1.76-12.37-1.56-18.66.06-1.93,1.63-3.47,3.56-3.5,19.21-.28,30.37,1.46,54.4-16.9,13.85-10.58,29.29-9.05,45.69-14.94Z"/><path class="cls-13" d="M1264.96,613.93c-8.91,17.54-15.67,36.16-20.08,55.33-.32,1.39-.62,2.86-.17,4.21.67,2,2.76,3.11,4.66,4.02,7.7,3.68,15.4,7.36,23.1,11.04,11.07,5.29,22.22,10.61,34.1,13.67,19.38,4.99,40.34,3.64,58.92-3.79,5.92-2.37,11.84-5.54,15.46-10.8,4.28-6.21,4.64-14.23,4.68-21.77.07-11.2-.23-22.4-.9-33.58-.35-5.81-.89-11.91-4.12-16.75-3.7-5.55-10.23-8.41-16.53-10.6-14.64-5.08-30.01-8.02-45.49-8.77-7.8-.37-15.61-.19-23.38.55-4.72.45-10.31-.44-14.84,1-7.64,2.42-11.98,9.52-15.4,16.25Z"/><path class="cls-5" d="M1212.83,531.79c4.75-40.5,65.48-78.96,126.68-71.78,10.09,1.18,19.71,3.44,28.72,6.56-11.27-4.74-23.64-8.11-36.82-9.65-61.2-7.18-121.93,31.28-126.68,71.78-3.35,28.52,21.97,50.45,58.61,63.43-32.21-13.24-53.61-33.96-50.52-60.34Z"/><path class="cls-6" d="M1399.99,597.12c19.41-9.44,29.71-27.48,31.89-46.06,3.73-31.78-22.57-67.22-63.64-84.48-9.01-3.12-18.63-5.37-28.72-6.56-61.2-7.18-121.93,31.28-126.68,71.78-3.1,26.37,18.31,47.1,50.52,60.34,15.38,5.45,32.76,9.32,50.86,11.45,33.12,3.89,62.89,4.68,85.79-6.45Z"/><path class="cls-14" d="M1431.88,551.05c-2.18,18.58-12.48,36.62-31.89,46.06-22.89,11.13-52.66,10.34-85.79,6.45-61.2-7.18-114.22-34.38-109.47-74.88,4.75-40.5,65.48-78.96,126.68-71.78s105.21,53.64,100.46,94.14Z"/><g id="_레이어_3"><path class="cls-6" d="M1391.36,450.25c-19.17-6.12-41.66-.25-55.35,14.52-1.23,1.32-1.77,3.62-.57,4.97s3.07,2.58,4.3,1.25c12.79-13.81,33.28-19.84,51.56-15.57-.73-1.76-.87-3.73.05-5.18Z"/><path class="cls-6" d="M1397.81,443.74c-11.06.28-11.42,18.41.1,18.48,11.84.08,11.15-18.77-.1-18.48ZM1392.67,448.84c-4,2-2,8,1,10-3-2-5-8-1-10Z"/><path class="cls-9" d="M1351.26,460.76c11.42-6.97,25.24-8.82,38.57-5.71"/><path class="cls-9" d="M1390.16,449.87c-16.42-5.24-34.88-1.68-48.3,8.8"/><path class="cls-9" d="M1389.83,455.05c.68,3.82,3.43,7.14,8.35,7.18,11.84.08,11.15-18.77-.1-18.48-4.22.11-6.88,2.81-7.92,6.12"/></g><path class="cls-13" d="M1299.71,594.5c13.93,2.09,27,8.13,40.86,10.68,17.54,3.23,33.8,1.33,50.82-3.99,3.13-.98,9.58-4.1,11.92-5.47,3.89-2.27.15,15.38-1.56,19.55-4.5,10.95-6.87,14.18-17.01,19.55s-21.38,5.86-32.06,3.72c-11.2-2.25-21.07-8.68-30.31-15.41-9.23-6.73-18.3-13.97-28.9-18.26-9.7-3.92-17.32-3.11-26.81-1.38,7.22-9.35,22.45-10.58,33.05-8.99Z"/><path class="cls-9" d="M1337.01,604.42c3.5.74,6.69,2.51,10.17,3.31,3.93.9,7.86,1.94,11.77,2.94,4.59,1.17,9.25,2.35,13.98,2.29s9.65-1.49,12.96-4.88"/><path class="cls-2" d="M1236.68,677.73c-.36-2.48.12-5,.66-7.44,1.71-7.73,4.05-15.31,6.97-22.66,5.27-13.28,12.45-25.8,21.26-37.05,2.64-3.38,4.86-6.41,8.36-7.29,0,0,0,0,0,0-6.38-1.3-9.19,2.68-12.8,7.29-8.81,11.25-15.99,23.77-21.26,37.05-2.92,7.35-5.26,14.94-6.97,22.66-.69,3.12-1.28,6.36-.15,9.48.44,1.21,1.16,2.33,2.17,3.14,1.96,1.58,4.21,1.65,6.44,1.09-.23-.07-.45-.16-.68-.26-2.27-1.06-3.63-3.53-3.99-6.01Z"/><path class="cls-4" d="M1286.15,649.74c5.21-10.34,5.77-22.92,1.5-33.68-2.52-6.36-6.82-11.4-13.72-12.77-3.5.88-5.71,3.91-8.36,7.29-8.81,11.25-15.98,23.77-21.26,37.05-2.92,7.35-5.26,14.94-6.97,22.66-.54,2.45-1.02,4.96-.66,7.44.36,2.48,1.72,4.94,3.99,6.01.22.1.45.19.68.26,1.66-.42,3.31-1.19,4.83-1.96,15.56-7.87,32.13-16.72,39.97-32.3Z"/><path class="cls-9" d="M1276.53,602.32c-1.44.15-2.86.45-4.25.88-8.82,2.78-13.97,11.01-18.75,18.36-5.42,8.33-10.01,17.2-13.68,26.44-2.92,7.35-5.26,14.94-6.97,22.66-.54,2.45-1.02,4.96-.66,7.44s1.72,4.94,3.99,6.01c3.16,1.48,6.84-.12,9.95-1.69,9.97-5.05,20.1-10.28,28.5-17.77,9.25-8.24,14.51-18.81,15.3-31.25"/></g></svg>