<svg width="272" height="136" viewBox="0 0 272 136" fill="none" xmlns="http://www.w3.org/2000/svg">
<rect x="1.5" y="1.5" width="269" height="133" fill="#EEEEEE"/>
<rect x="1.5" y="1.5" width="269" height="133" stroke="black" stroke-width="3"/>
<path d="M30.375 76L30.375 28.8H35.175L35.175 76H30.375ZM39.975 76L39.975 28.8L47.175 28.8L47.175 76H39.975ZM51.975 76L51.975 28.8H54.375L54.375 76H51.975ZM38.295 99.84L40.695 97.44C42.295 95.84 43.495 94.56 44.295 93.6C45.095 92.6933 45.735 91.7867 46.215 90.88C46.695 90.0267 46.935 89.0933 46.935 88.08C46.935 86.9067 46.6683 86.0533 46.135 85.52C45.5483 84.9867 44.775 84.72 43.815 84.72C42.3217 84.72 41.0683 85.3333 40.055 86.56C39.8417 86.88 39.735 87.1467 39.735 87.36C39.735 87.52 39.735 87.6267 39.735 87.68L39.575 87.84L39.415 87.68L37.895 86.48C38.4817 85.3067 39.2817 84.4267 40.295 83.84C41.3083 83.2 42.4817 82.88 43.815 82.88C45.3617 82.88 46.6417 83.36 47.655 84.32C48.615 85.28 49.095 86.56 49.095 88.16C49.095 89.2267 48.8283 90.2667 48.295 91.28C47.815 92.2933 47.175 93.2533 46.375 94.16C45.575 95.0667 44.455 96.24 43.015 97.68L41.015 99.68H47.895C48.215 99.68 48.455 99.68 48.615 99.68C48.7217 99.6267 48.855 99.5467 49.015 99.44H49.175V101.52H38.295V99.84ZM56.7813 76L56.7812 28.8L59.1813 28.8L59.1813 76H56.7813ZM63.9813 76L63.9813 28.8H71.1813V76H63.9813ZM73.5813 76V28.8H78.3813V76H73.5813ZM69.9813 82.88C71.7946 82.88 73.2079 83.7067 74.2213 85.36C75.2346 87.0667 75.7413 89.3867 75.7413 92.32C75.7413 95.36 75.2346 97.7067 74.2213 99.36C73.2613 101.013 71.8479 101.84 69.9813 101.84C68.1146 101.84 66.7013 101.013 65.7413 99.36C64.7279 97.7067 64.2213 95.36 64.2213 92.32C64.2213 89.3867 64.7279 87.0667 65.7413 85.36C66.7546 83.7067 68.1679 82.88 69.9813 82.88ZM69.9813 84.72C68.8613 84.72 67.9813 85.3867 67.3412 86.72C66.7013 88.1067 66.3813 89.9733 66.3813 92.32C66.3813 93.6533 66.4613 94.8 66.6213 95.76L72.9413 87.6C72.6746 86.6933 72.2746 85.9733 71.7413 85.44C71.2613 84.96 70.6746 84.72 69.9813 84.72ZM69.9813 100C71.1013 100 71.9813 99.36 72.6213 98.08C73.2613 96.7467 73.5813 94.8267 73.5813 92.32C73.5813 91.2 73.5013 90.2133 73.3413 89.36L67.1013 97.44C67.6879 99.1467 68.6479 100 69.9813 100ZM83.1875 76V28.8H87.9875V76H83.1875ZM92.7875 76V28.8H99.9875L99.9875 76L92.7875 76ZM104.788 76L104.788 28.8H107.188L107.188 76H104.788ZM91.1075 99.84L93.5075 97.44C95.1075 95.84 96.3075 94.56 97.1075 93.6C97.9075 92.6933 98.5475 91.7867 99.0275 90.88C99.5075 90.0267 99.7475 89.0933 99.7475 88.08C99.7475 86.9067 99.4808 86.0533 98.9475 85.52C98.3608 84.9867 97.5875 84.72 96.6275 84.72C95.1342 84.72 93.8808 85.3333 92.8675 86.56C92.6542 86.88 92.5475 87.1467 92.5475 87.36C92.5475 87.52 92.5475 87.6267 92.5475 87.68L92.3875 87.84L92.2275 87.68L90.7075 86.48C91.2942 85.3067 92.0942 84.4267 93.1075 83.84C94.1208 83.2 95.2942 82.88 96.6275 82.88C98.1742 82.88 99.4542 83.36 100.468 84.32C101.428 85.28 101.908 86.56 101.908 88.16C101.908 89.2267 101.641 90.2667 101.108 91.28C100.628 92.2933 99.9875 93.2533 99.1875 94.16C98.3875 95.0667 97.2675 96.24 95.8275 97.68L93.8275 99.68H100.708C101.028 99.68 101.268 99.68 101.428 99.68C101.534 99.6267 101.668 99.5467 101.828 99.44H101.988V101.52H91.1075V99.84ZM109.594 76L109.594 28.8H114.394L114.394 76H109.594ZM116.794 76L116.794 28.8H123.994L123.994 76H116.794ZM128.794 76V28.8H131.194V76H128.794ZM122.794 101.84C121.62 101.84 120.554 101.6 119.594 101.12C118.634 100.64 117.86 99.92 117.274 98.96L119.194 97.6L119.274 97.68C119.274 97.8933 119.3 98.08 119.354 98.24C119.407 98.3467 119.54 98.5067 119.754 98.72C120.127 99.2 120.58 99.5467 121.114 99.76C121.594 99.92 122.18 100 122.874 100C123.514 100 124.1 99.84 124.634 99.52C125.22 99.1467 125.674 98.6133 125.994 97.92C126.314 97.28 126.474 96.5067 126.474 95.6C126.474 94.2667 126.1 93.2 125.354 92.4C124.66 91.6 123.754 91.2 122.634 91.2C122.047 91.2 121.434 91.36 120.794 91.68C120.207 92 119.674 92.4267 119.194 92.96L117.914 92.4L118.474 82.96H127.914V84.88H120.234L119.994 90.16C120.954 89.68 121.967 89.44 123.034 89.44C124.1 89.44 125.034 89.7067 125.834 90.24C126.687 90.72 127.354 91.44 127.834 92.4C128.314 93.36 128.554 94.4533 128.554 95.68C128.554 96.96 128.314 98.0533 127.834 98.96C127.3 99.92 126.607 100.64 125.754 101.12C124.847 101.6 123.86 101.84 122.794 101.84ZM136 76V28.8H138.4V76H136ZM143.2 76V28.8L150.4 28.8V76H143.2ZM152.8 76V28.8H157.6V76H152.8ZM149.2 82.88C151.013 82.88 152.427 83.7067 153.44 85.36C154.453 87.0667 154.96 89.3867 154.96 92.32C154.96 95.36 154.453 97.7067 153.44 99.36C152.48 101.013 151.067 101.84 149.2 101.84C147.333 101.84 145.92 101.013 144.96 99.36C143.947 97.7067 143.44 95.36 143.44 92.32C143.44 89.3867 143.947 87.0667 144.96 85.36C145.973 83.7067 147.387 82.88 149.2 82.88ZM149.2 84.72C148.08 84.72 147.2 85.3867 146.56 86.72C145.92 88.1067 145.6 89.9733 145.6 92.32C145.6 93.6533 145.68 94.8 145.84 95.76L152.16 87.6C151.893 86.6933 151.493 85.9733 150.96 85.44C150.48 84.96 149.893 84.72 149.2 84.72ZM149.2 100C150.32 100 151.2 99.36 151.84 98.08C152.48 96.7467 152.8 94.8267 152.8 92.32C152.8 91.2 152.72 90.2133 152.56 89.36L146.32 97.44C146.907 99.1467 147.867 100 149.2 100ZM162.406 76V28.8H167.206V76H162.406ZM172.006 76V28.8H174.406V76H172.006ZM176.806 76V28.8L184.006 28.8V76H176.806ZM175.286 101.84C174.326 101.84 173.393 101.653 172.486 101.28C171.633 100.96 170.886 100.453 170.246 99.76L171.606 98.08L171.766 97.84L171.926 98C171.98 98.2133 172.033 98.4 172.086 98.56C172.14 98.6667 172.273 98.8267 172.486 99.04C172.86 99.36 173.26 99.6 173.686 99.76C174.113 99.9733 174.62 100.08 175.206 100.08C176.38 100.08 177.26 99.7333 177.846 99.04C178.433 98.4 178.726 97.4933 178.726 96.32C178.726 95.0933 178.353 94.1867 177.606 93.6C176.86 92.96 175.82 92.64 174.486 92.64C174.273 92.64 173.953 92.6667 173.526 92.72V91.04C175.286 91.04 176.486 90.72 177.126 90.08C177.766 89.44 178.086 88.5333 178.086 87.36C178.086 86.56 177.846 85.8933 177.366 85.36C176.886 84.88 176.246 84.64 175.446 84.64C174.166 84.64 173.046 85.0933 172.086 86L170.806 84.8C172.033 83.52 173.58 82.88 175.446 82.88C176.94 82.88 178.113 83.3067 178.966 84.16C179.82 84.96 180.246 86.08 180.246 87.52C180.246 88.48 180.006 89.36 179.526 90.16C178.993 90.9067 178.273 91.4133 177.366 91.68C178.433 92.0533 179.286 92.64 179.926 93.44C180.566 94.24 180.886 95.2267 180.886 96.4C180.886 97.4133 180.673 98.32 180.246 99.12C179.766 99.9733 179.126 100.64 178.326 101.12C177.473 101.6 176.46 101.84 175.286 101.84ZM188.812 76V28.8L193.613 28.8V76H188.812ZM198.413 76V28.8H205.613V76H198.413ZM210.413 76V28.8H212.813V76H210.413ZM196.733 99.84L199.133 97.44C200.733 95.84 201.933 94.56 202.733 93.6C203.533 92.6933 204.173 91.7867 204.653 90.88C205.133 90.0267 205.373 89.0933 205.373 88.08C205.373 86.9067 205.106 86.0533 204.573 85.52C203.986 84.9867 203.213 84.72 202.253 84.72C200.759 84.72 199.506 85.3333 198.493 86.56C198.279 86.88 198.173 87.1467 198.173 87.36C198.173 87.52 198.173 87.6267 198.173 87.68L198.013 87.84L197.853 87.68L196.333 86.48C196.919 85.3067 197.719 84.4267 198.733 83.84C199.746 83.2 200.919 82.88 202.253 82.88C203.799 82.88 205.079 83.36 206.093 84.32C207.053 85.28 207.533 86.56 207.533 88.16C207.533 89.2267 207.266 90.2667 206.733 91.28C206.253 92.2933 205.613 93.2533 204.813 94.16C204.013 95.0667 202.893 96.24 201.453 97.68L199.453 99.68H206.333C206.653 99.68 206.893 99.68 207.053 99.68C207.159 99.6267 207.293 99.5467 207.453 99.44H207.613V101.52H196.733V99.84ZM215.219 76V28.8H222.419V76H215.219ZM224.819 76V28.8H229.619V76H224.819ZM232.019 76V28.8L239.219 28.8V76H232.019ZM225.619 101.52C227.325 95.8667 229.192 90.3467 231.219 84.96H223.299V82.96H233.859V84.16C231.405 90.2933 229.432 96.08 227.939 101.52H225.619Z" fill="black"/>
</svg>
