<?xml version="1.0" encoding="UTF-8"?><svg xmlns="http://www.w3.org/2000/svg" xmlns:xlink="http://www.w3.org/1999/xlink" viewBox="0 0 1202.79 717.37"><defs><style>.cls-1{fill:#a3a3a3;}.cls-1,.cls-2,.cls-3,.cls-4,.cls-5,.cls-6,.cls-7,.cls-8,.cls-9{stroke-width:0px;}.cls-10{fill:#303030;}.cls-10,.cls-11,.cls-12,.cls-13,.cls-14,.cls-15,.cls-16,.cls-17,.cls-18,.cls-19,.cls-20,.cls-21,.cls-22,.cls-23,.cls-24,.cls-25,.cls-26,.cls-27,.cls-28,.cls-29,.cls-30,.cls-31{stroke-linecap:round;}.cls-10,.cls-11,.cls-12,.cls-13,.cls-14,.cls-15,.cls-16,.cls-18,.cls-19,.cls-20,.cls-21,.cls-22,.cls-23,.cls-32,.cls-24,.cls-25,.cls-26,.cls-27,.cls-28,.cls-29,.cls-31{stroke-linejoin:round;}.cls-10,.cls-14,.cls-17,.cls-19,.cls-21,.cls-22,.cls-33,.cls-24,.cls-30{stroke-width:3px;}.cls-10,.cls-14,.cls-33,.cls-24,.cls-34{stroke:#000;}.cls-11{fill:#ccc2ac;}.cls-11,.cls-12,.cls-13,.cls-15,.cls-16,.cls-35,.cls-18,.cls-20,.cls-23,.cls-36,.cls-32,.cls-25,.cls-26,.cls-27,.cls-28,.cls-29,.cls-31{stroke:#333;stroke-width:2px;}.cls-12{fill:#b7b7b7;}.cls-2{fill:#919191;}.cls-13{fill:#59564f;}.cls-14,.cls-5{fill:#4f7889;}.cls-15{fill:#a5aaa9;}.cls-16{fill:#726b5e;}.cls-35{fill:#969696;}.cls-35,.cls-17,.cls-33,.cls-36,.cls-34,.cls-30{stroke-miterlimit:10;}.cls-17,.cls-22,.cls-36,.cls-24,.cls-34{fill:none;}.cls-17,.cls-30{stroke:#252625;}.cls-18{fill:#959999;}.cls-19,.cls-21,.cls-22{stroke:#0c160e;}.cls-19,.cls-8{fill:#47593c;}.cls-3{fill:url(#_무제_그라디언트_28);}.cls-20{fill:#c4beb1;}.cls-21{fill:#333f2d;}.cls-4{fill:#7f7f7f;}.cls-23{fill:#919390;}.cls-33,.cls-7{fill:#c0dabe;}.cls-32{fill:#a8a8a8;}.cls-25{fill:#ddd8ce;}.cls-34{stroke-width:5px;}.cls-6{fill:#a5a5a5;}.cls-26{fill:#7f796e;}.cls-27{fill:#afafaf;}.cls-28{fill:#686156;}.cls-29{fill:#efefef;}.cls-30{fill:url(#_무제_그라디언트_122);}.cls-31{fill:#bfc1c1;}.cls-9{fill:#636363;}</style><linearGradient id="_무제_그라디언트_28" x1="601.83" y1="445.5" x2="601.83" y2="-1.91" gradientUnits="userSpaceOnUse"><stop offset="0" stop-color="#ff9057"/><stop offset=".05" stop-color="#f88f58"/><stop offset=".11" stop-color="#e68d5c"/><stop offset=".19" stop-color="#c88a63"/><stop offset=".27" stop-color="#9f866c"/><stop offset=".35" stop-color="#6f8278"/><stop offset=".56" stop-color="#737f7e"/><stop offset="1" stop-color="#2f4461"/></linearGradient><linearGradient id="_무제_그라디언트_122" x1="-21.41" y1="660.98" x2="725.87" y2="660.98" gradientUnits="userSpaceOnUse"><stop offset="0" stop-color="#a8b1b3"/><stop offset=".25" stop-color="#a1aaac"/><stop offset=".6" stop-color="#8f999a"/><stop offset=".99" stop-color="#737f7e"/><stop offset="1" stop-color="#2f4461"/></linearGradient></defs><g id="_레이어_6"><rect class="cls-3" x="2.5" y="2.5" width="1198.67" height="443"/><rect class="cls-35" x="85.84" y="366.27" width="1114.46" height="348.6"/><rect class="cls-9" x="1119.34" y="448.87" width="81.55" height="131.01"/><rect class="cls-9" x="753.49" y="418.11" width="25.25" height="20.89"/><rect class="cls-4" x="806.6" y="371.96" width="26.99" height="31.34"/><rect class="cls-4" x="1083.1" y="359.89" width="29.24" height="27.08"/><rect class="cls-4" x="1048.05" y="468.16" width="27.75" height="37.84"/><rect class="cls-4" x="559.46" y="373.13" width="29.43" height="25.23"/><rect class="cls-9" x="281.95" y="383.22" width="26.07" height="34.48"/><rect class="cls-6" x="885.75" y="355.47" width="20.18" height="47.09"/><rect class="cls-6" x="969.84" y="384.91" width="40.37" height="63.91"/><rect class="cls-6" x="659.54" y="360.81" width="25.18" height="46.25"/><rect class="cls-6" x="524.98" y="374.81" width="11.77" height="9.25"/><rect class="cls-6" x="1103.55" y="370.61" width="17.66" height="25.23"/><rect class="cls-6" x="715.88" y="357.99" width="35.32" height="24.39"/><rect class="cls-6" x="195.34" y="361.36" width="27.75" height="30.27"/><rect class="cls-6" x="160.86" y="346.22" width="45.41" height="45.41"/><rect class="cls-9" x="224.77" y="396.68" width="32.8" height="40.37"/><rect class="cls-9" x="579.65" y="387.43" width="42.89" height="53.82"/><rect class="cls-9" x="1161.58" y="393.31" width="37" height="59.71"/><rect class="cls-9" x="947.98" y="462.27" width="42.89" height="56.34"/><rect class="cls-6" x="364.02" y="416.04" width="21.04" height="26.07"/><rect class="cls-4" x="847.82" y="422.8" width="59.19" height="78.93"/><rect class="cls-1" x="914.77" y="396.73" width="47.92" height="76.81"/><rect class="cls-4" x="1068.35" y="483.85" width="53.84" height="44.94"/><rect class="cls-2" x="867.96" y="480.66" width="47.46" height="94.92"/><rect class="cls-2" x="486.37" y="408.74" width="45.45" height="59.69"/><rect class="cls-6" x="270.24" y="399.01" width="51.97" height="46.45"/><rect class="cls-6" x="342.85" y="354.67" width="33.64" height="41.48"/><rect class="cls-6" x="139.82" y="378.62" width="59.25" height="54"/><polyline class="cls-36" points="885.65 379.71 885.65 355.47 905.93 355.47 905.93 384.55"/><polyline class="cls-36" points="1083.07 369.62 1083.07 359.89 1112.34 359.89 1112.34 370.63 1121.21 370.63 1121.21 383.24"/><polyline class="cls-36" points="1050.32 446.97 1050.32 422.95 1069.92 427.86 1069.92 464.79"/><polyline class="cls-36" points="1070.81 468.26 1075.47 468.26 1075.47 484.42 1121.65 484.42 1121.65 501.56"/><path class="cls-36" d="M1093.98,446.69c-.27-.8,0-31.51,0-31.51h27.24v9.88h19.76v-22h20.03"/><polyline class="cls-36" points="1161.7 444.46 1161.7 394.06 1197.67 394.06"/><polyline class="cls-36" points="907.01 422.8 847.82 422.8 847.82 441.23"/><polyline class="cls-36" points="806.79 392.12 806.79 371.96 833.59 371.96 833.59 397.93"/><polyline class="cls-36" points="742.17 357.87 751.2 357.87 751.2 368.53"/><polyline class="cls-36" points="753.43 430.55 753.43 418.11 778.74 418.11 778.74 428.05"/><polyline class="cls-36" points="659.43 366.92 659.43 360.52 685.23 360.52 685.34 375.59"/><line class="cls-36" x1="342.61" y1="362.13" x2="342.61" y2="388.22"/><path class="cls-36" d="M161.1,374.02v-27.8h44.97v14.84h16.94v16.67"/><polyline class="cls-36" points="199.01 410.23 199.01 390.16 185.52 390.16 185.52 378.56 155.97 378.56 155.97 391.96"/><polyline class="cls-36" points="224.8 410.48 224.8 396.68 257.57 396.68 257.57 413"/><rect class="cls-27" x="897.46" y="483.04" width="45.84" height="103.15"/><rect class="cls-20" x="758.63" y="438.29" width="86.18" height="140.97"/><rect class="cls-27" x="823.83" y="475.15" width="54.17" height="85.36"/><rect class="cls-27" x="1029.69" y="468.71" width="40.51" height="190.51"/><polygon class="cls-11" points="694.45 291.69 694.45 236.26 703.79 236.26 703.79 291.75 694.45 291.69"/><rect class="cls-11" x="685.49" y="256.77" width="56.26" height="281.84"/><polyline class="cls-11" points="726.02 272.74 726.02 348.46 735.93 348.46"/><polygon class="cls-20" points="674.47 534.88 592.29 534.88 592.29 440.29 674.47 418.31 674.47 534.88"/><rect class="cls-15" x="1064.11" y="510.51" width="83.57" height="190.23"/><polygon class="cls-31" points="1147.68 510.51 1064.19 510.51 1064.73 506.35 1147.06 506.23 1147.68 510.51"/><polyline class="cls-15" points="1135.04 531.47 1120.71 531.47 1120.71 555.18 1134.52 555.18"/><polyline class="cls-15" points="1080.05 618.16 1086.83 618.16 1086.83 635.52 1079.42 635.52"/><rect class="cls-23" x="1143.47" y="567.24" width="57.11" height="147.72"/><polygon class="cls-32" points="1200.29 566.99 1143.3 566.99 1145.77 554.03 1200.29 554.03 1200.29 566.99"/><rect class="cls-23" x="1162.54" y="551.27" width="31.36" height="11.65"/><polygon class="cls-32" points="1193.9 551.27 1162.55 551.27 1163.76 545.36 1193.05 545.53 1193.9 551.27"/><polyline class="cls-23" points="1152.23 590.96 1163.45 590.96 1163.45 576.45"/><polyline class="cls-23" points="1194.94 623.8 1186.34 623.8 1186.34 637.9 1193.98 637.9"/><rect class="cls-20" x="934.24" y="434.24" width="104.75" height="220.52"/><polygon class="cls-25" points="1038.93 434.17 934.15 434.17 934.96 429.06 1037.83 429.06 1038.93 434.17"/><rect class="cls-13" x="934.24" y="434.24" width="104.66" height="12.36"/><rect class="cls-18" x="782.58" y="547.15" width="93.48" height="81.07"/><polygon class="cls-18" points="889.63 611.8 876.05 611.8 876.05 547.15 889.63 537.46 889.63 611.8"/><polygon class="cls-12" points="875.63 546.58 804.65 546.58 804.65 536.96 889.25 536.96 875.63 546.58"/><rect class="cls-26" x="715.77" y="459.61" width="91.72" height="102.57"/><polygon class="cls-28" points="807.47 459.49 715.82 459.49 717.07 455.87 806.11 456.07 807.47 459.49"/><polygon class="cls-29" points="877.98 474.95 823.93 474.95 824.72 472.1 876.94 472.1 877.98 474.95"/><rect class="cls-16" x="565.45" y="446.46" width="41.68" height="39.42"/></g><g id="_레이어_5"><path class="cls-19" d="M2.34,254.13c22.92-2.35,46.72,6.35,62.72,22.93,6.57,6.8,11.93,14.88,19.59,20.42,5.48,3.97,11.87,6.44,18.19,8.87,6.41,2.47,12.82,4.93,19.24,7.4,3.03,1.16,6.06,2.34,9.13,3.29,2.34.73,4.16,2.92,4.35,5.38.16,2.09-.79,4.17-2.25,5.67-1.57,1.61-5.67,1.93-5.54,4.34.17,3.11.43,5.48-1.55,8.21s-5,4.4-8.19,5.32c-1.58.46-3.2.73-4.83.93-1.38.16-3.09-.02-4.38.51-1.04.43-2,1.3-2.99,1.84-.48.26-4.16,2.61-4.46,2.4,10.88,7.74,21.76,15.48,32.64,23.22,9.11,6.48,16.57,14.35,24.22,22.43,1.4,1.48,2.88,3.11,3.1,5.14.25,2.29-1.25,4.49-3.19,5.75-2.16,1.4-5.31,1.22-6.67,3.22-1.52,2.23-2.46,4.64-4.28,6.73-3.48,4-8.02,7.03-12.88,9.12-7.67,3.29-16.08,4.4-24.37,5.34-35.59,4.01-71.48,5.34-107.27,3.98-.39-.53-.53-1.26-.92-1.78l.6-180.65Z"/><path class="cls-22" d="M55.34,370.64c8.29-1.77,16.03-6.07,21.9-12.18,7.05.19,14.15-1.56,20.31-5"/><path class="cls-22" d="M21.19,306.46c1.14-.65,2.3-1.31,3.57-1.63s2.7-.26,3.8.46c2.03,1.33,2.17,4.44.93,6.54s-3.42,3.41-5.52,4.64c1.62.82,2.39,2.88,2.02,4.66s-1.68,3.26-3.25,4.19c-2.56,1.51-5.89,1.65-8.57.36"/><path class="cls-22" d="M11.07,402.75c3.72-.85,7.19-2.8,9.86-5.53,10.18,2.7,21.73-.63,28.91-8.32"/><path class="cls-21" d="M1.57,409.09v305.77h1176.9S774.78,399.68,1.57,409.09Z"/><path class="cls-22" d="M217.02,462.17l-11.29-20.14c9.02,3.55,16.98,9.71,22.68,17.55-.18-3.03-.37-6.06-.55-9.09,3.11,2.14,6.23,4.28,9.34,6.42"/><path class="cls-22" d="M669.08,638.64c4.82-8.25,13.42-14.2,22.85-15.8-4.51,3.28-6.48,9.65-4.61,14.91"/><path class="cls-22" d="M752.15,625.8c5.89-7.15,14.63-11.88,23.84-12.9"/><path class="cls-22" d="M790.43,621.18c4.26-1.01,8.51-2.02,12.77-3.03"/><g id="_레이어_3"><path class="cls-8" d="M352.23,607.09c-160.3,0-297.02,32.8-350.06,78.86v28.91h721.37c-20.83-60.63-179.12-107.77-371.31-107.77Z"/><path class="cls-30" d="M352.23,607.09c-160.3,0-297.02,32.8-350.06,78.86v28.91h721.37c-20.83-60.63-179.12-107.77-371.31-107.77Z"/><path class="cls-22" d="M352.23,607.09c-160.3,0-297.02,32.8-350.06,78.86v28.91h721.37c-20.83-60.63-179.12-107.77-371.31-107.77Z"/><path class="cls-17" d="M362.92,614.83c-33.45,17.2-60.56,46.41-75.22,81.05"/><path class="cls-22" d="M130.86,654.85l8.81,7.12"/><path class="cls-22" d="M137.06,651.94c4.42,2.72,8.84,5.45,13.26,8.17"/><path class="cls-22" d="M534.1,687.46c2.69,3.3,5.38,6.6,8.07,9.9"/><path class="cls-22" d="M550.42,691.32l8.76,9.78"/><path class="cls-22" d="M418.9,631.35c6.06-5.64,13.75-9.49,21.89-10.97"/><path class="cls-22" d="M432.2,632.14c5.74-2.73,11.49-5.46,17.23-8.19"/><path class="cls-22" d="M424.49,622.42c7.78,1.29,15.22,4.54,21.44,9.38"/></g></g><g id="_레이어_4"><path class="cls-33" d="M345.93,397.69c.76,1.24.33,2.94-.66,4.01s-2.39,1.64-3.77,2.1c-3.44,1.14-7.39,1.75-10.54-.03-2.97-1.66-4.59-5.27-4.28-8.66s2.37-6.48,5.15-8.46c2.26-1.61,5.17-2.55,7.84-1.82,2.36.64,4.24,2.49,5.43,4.62,1.91,3.43,2.18,7.74.7,11.38"/><path class="cls-14" d="M328.62,392.14c-.07-.07-.14-.15-.2-.24-.84-1.09-.65-2.34-.61-3.61.44-15.75,2.33-31.1,7.01-46.21.96-3.09,2.25-6.44,5.14-7.9,3.79-1.92,8.62.61,10.68,4.32,2.06,3.72,2.05,8.19,1.88,12.43-.48,11.78-1.8,23.52-3.95,35.1-.43,2.29-.93,4.68-2.41,6.48-2.05,2.49-4.5,2.01-7.24,1.48-2.08-.4-4.19-.62-6.3-.78-1.48-.11-2.91.07-3.98-1.08Z"/><path class="cls-10" d="M430.91,415.92c1.15,9.41,4.16,18.8,10.1,26.19.7.88,1.49,1.88,1.31,2.99-.23,1.37-1.78,2.03-3.12,2.42-9.81,2.84-20.08,4.11-30.29,3.76-4.67-.16-9.89-.95-12.74-4.66-2.57-3.34-2.38-7.95-2.65-12.16-.21-3.32-1.03-6.54-1.63-9.8-.64-3.46-1.67-6.85-3.06-10.08-.61-1.42-1.44-4.71-3.41-4.66s-1.21,2.31-1.27,3.58c-.07,1.48-.14,2.96-.21,4.44-.14,3.04-.29,6.09-.43,9.13-.12,2.61-.42,5.01.1,7.62.34,1.67.88,3.3,1.63,4.84s2.02,2.9,1.81,4.73c-.29,2.51-2.82,2.56-4.8,3.02-2.97.69-5.97,1.24-8.99,1.63-6.04.79-12.16.99-18.25.57-1.09-.07-2.19-.17-3.28-.28-2.69-.28-5.53-.75-7.55-2.55-2.52-2.24-3.09-5.91-3.41-9.28-1.62-17.5-.53-35.25,3.23-52.42,7.18-.39,14.37-.7,21.55-.93,7.19-.23,14.38-.37,21.57-.44s14.38-.05,21.57.05c3.6.05,7.19.12,10.78.21,1.8.05,3.59.1,5.39.15.9.03,1.8.06,2.7.09.43.01.86.03,1.29.04.35.01,1.09-.11,1.39.05.79.41.69,2.06.68,2.79-.03,1.51-.12,3.01-.21,4.52-.21,3.54-.39,7.09-.44,10.63-.07,4.6.08,9.21.64,13.78Z"/><path class="cls-33" d="M494.06,284.44c-.47,36.13-48.85,54.8-110.13,54-61.28-.8-108.68-27.55-108.21-63.67.47-36.13,48.64-67.95,109.92-67.15s108.89,40.69,108.42,76.82Z"/><path class="cls-7" d="M378.91,211.61c-2.87-3.09-6.11-5.82-9.62-8.15-4.39-2.92-9.19-5.21-14.22-6.78-1.26-.39-2.53-.74-3.81-1.04-1.13-.27-2.32-.75-3.39-.24-2.65,1.26-5.18,2.3-8.2,2.15-2.97-.14-5.93-1.44-7.78-3.77s-2.43-5.69-1.14-8.37c1.05-2.2,3.22-3.74,5.58-4.36,3.03-.81,6.42-.15,8.93,1.73,1.19.89,2.18,2.05,2.89,3.35s.79,2.6,1.21,3.94c.02.05.03.1.05.15.2.61-.05.42.55.64.31.12.76.08,1.09.13.78.1,1.55.21,2.33.35,1.49.26,2.98.57,4.44.95,10.06,2.6,19.4,8.07,26.48,15.69.47.51.13,1.37-.2,1.98"/><path class="cls-24" d="M376.55,207.74c-2.01-1.82-5.76-3.75-8.02-5.26-4.39-2.92-9.19-5.21-14.22-6.78-1.26-.39-2.53-.74-3.81-1.04-1.13-.27-2.32-.75-3.39-.24-2.65,1.26-5.18,2.3-8.2,2.15-2.97-.14-5.93-1.44-7.78-3.77s-2.43-5.69-1.14-8.37c1.05-2.2,3.22-3.74,5.58-4.36,3.03-.81,6.42-.15,8.93,1.73,1.19.89,2.18,2.05,2.89,3.35s.79,2.6,1.21,3.94c.02.05.03.1.05.15.2.61-.05.42.55.64.31.12.76.08,1.09.13.78.1,1.55.21,2.33.35,1.49.26,2.98.57,4.44.95,10.06,2.6,20.55,8.69,27.64,16.31"/><path class="cls-33" d="M431.55,410.45c3.06,2.76,7.77,3.52,11.55,1.88,3.78-1.64,6.43-5.61,6.5-9.73.05-2.65-.94-5.32-2.79-7.21-2.46-2.52-6.32-3.46-9.76-2.71-3.3.72-7.55,3.34-8.7,6.69-1.29,3.75.35,8.51,3.2,11.08Z"/><path class="cls-5" d="M339.75,385.71c-.04,2.37,0,5,1.62,6.75,1.43,1.55,3.69,1.94,5.78,2.21,27.08,3.57,54.79,2.38,81.46-3.52-2.21-18.04-4.42-36.08-6.63-54.11.13,1.08-22.89,4.12-25.04,4.34-8.51.89-17.08,1.2-25.63.92-8.61-.27-16.96-1.8-25.5-2.56-7.39-.66-5.43,10.72-5.51,15.35-.18,10.2-.36,20.41-.54,30.61Z"/><path class="cls-24" d="M340.62,353.92c-.45,10.2-.91,20.39-1.36,30.59-.11,2.37-.12,5,1.44,6.79,1.39,1.59,3.64,2.04,5.72,2.37,26.98,4.29,54.7,3.83,81.52-1.35-1.73-18.09-3.46-36.18-5.19-54.27.1,1.08-22.99,3.51-25.15,3.68-8.53.66-17.1.74-25.65.24"/><path class="cls-5" d="M425.24,393.44c.4,2.31,1.01,4.93,3.06,6.07,1.84,1.03,4.12.45,6.14-.16,2.87-.86,5.74-1.71,8.61-2.57,1.37-.41,2.81-.86,3.82-1.88,1.81-1.83,1.61-4.78,1.24-7.33-2.03-13.73-5.77-27.2-11.11-40-1.88-4.5-4.56-9.44-9.31-10.53-3.33-.76-6.78.78-9.06,3.18-1.46,1.54-1.84,2.57-1.82,4.69.04,3.77,1.3,7.23,1.94,10.91.72,4.15,1.44,8.3,2.16,12.45,1.45,8.39,2.9,16.77,4.36,25.16Z"/><path class="cls-24" d="M418.73,355.83c.72,4.15,1.44,8.3,2.16,12.45,1.45,8.39,2.9,16.77,4.36,25.16.4,2.31,1.01,4.93,3.06,6.07,1.84,1.03,4.12.45,6.14-.16,2.87-.86,5.74-1.71,8.61-2.57,1.37-.41,2.81-.86,3.82-1.88,1.81-1.83,1.61-4.78,1.24-7.33-2.03-13.73-5.77-27.2-11.11-40-1.88-4.5-6.91-9.95-11.66-11.04"/><path class="cls-14" d="M399.12,348.2c-11.46,4.17-23.68,7.99-35.87,6.54-10.9-1.3-21.22-6.95-28.15-15.46-.55-.68-.97-1.47-1.11-2.33-.56-3.4,3.06-4.88,6.04-5.15,11.7-1.07,22.5,4.3,34.14,5.95,6.23.88,13.05.99,19.33.51,5.86-.45,11.51-.52,17.33-1.3,3.25-.44,9.18-1.53,13.05-1.28,1.17.08,1.28,1.08.29,1.71-3.57,2.26-9.14,4.52-12.52,5.92-4.14,1.72-8.31,3.37-12.52,4.9Z"/></g><g id="_레이어_2"><rect class="cls-34" x="2.5" y="2.5" width="1197.79" height="712.37"/></g></svg>