<?xml version="1.0" encoding="UTF-8"?><svg xmlns="http://www.w3.org/2000/svg" xmlns:xlink="http://www.w3.org/1999/xlink" viewBox="0 0 1180.33 716.86"><defs><style>.cls-1{fill:#a3a3a3;}.cls-1,.cls-2,.cls-3,.cls-4,.cls-5,.cls-6,.cls-7,.cls-8,.cls-9{stroke-width:0px;}.cls-10{fill:#303030;}.cls-10,.cls-11,.cls-12,.cls-13,.cls-14,.cls-15,.cls-16,.cls-17,.cls-18,.cls-19,.cls-20,.cls-21,.cls-22,.cls-23,.cls-24,.cls-25,.cls-26,.cls-27,.cls-28{stroke-linecap:round;}.cls-10,.cls-11,.cls-12,.cls-13,.cls-14,.cls-15,.cls-17,.cls-18,.cls-19,.cls-20,.cls-21,.cls-22,.cls-23,.cls-24,.cls-25,.cls-26,.cls-27{stroke-linejoin:round;}.cls-10,.cls-14,.cls-16,.cls-18,.cls-20,.cls-21,.cls-29,.cls-22,.cls-28{stroke-width:3px;}.cls-10,.cls-14,.cls-29,.cls-22,.cls-30{stroke:#000;}.cls-11{fill:#ccc2ac;}.cls-11,.cls-12,.cls-13,.cls-15,.cls-31,.cls-17,.cls-19,.cls-32,.cls-23,.cls-24,.cls-25,.cls-26,.cls-27{stroke:#333;stroke-width:2px;}.cls-12{fill:#b7b7b7;}.cls-2{fill:#919191;}.cls-13{fill:#59564f;}.cls-14,.cls-5{fill:#4f7889;}.cls-15{fill:#726b5e;}.cls-31{fill:#969696;}.cls-31,.cls-16,.cls-29,.cls-32,.cls-30,.cls-28{stroke-miterlimit:10;}.cls-16,.cls-21,.cls-32,.cls-22,.cls-30{fill:none;}.cls-16,.cls-28{stroke:#252625;}.cls-17{fill:#959999;}.cls-18,.cls-20,.cls-21{stroke:#0c160e;}.cls-18,.cls-8{fill:#47593c;}.cls-3{fill:url(#_무제_그라디언트_28);}.cls-19{fill:#c4beb1;}.cls-20{fill:#333f2d;}.cls-4{fill:#7f7f7f;}.cls-29,.cls-7{fill:#c0dabe;}.cls-23{fill:#ddd8ce;}.cls-30{stroke-width:5px;}.cls-6{fill:#a5a5a5;}.cls-24{fill:#7f796e;}.cls-25{fill:#afafaf;}.cls-26{fill:#686156;}.cls-27{fill:#efefef;}.cls-28{fill:url(#_무제_그라디언트_122);}.cls-9{fill:#636363;}</style><linearGradient id="_무제_그라디언트_28" x1="589.62" y1="445.27" x2="589.62" y2="-2.13" gradientUnits="userSpaceOnUse"><stop offset="0" stop-color="#ff9057"/><stop offset=".05" stop-color="#f88f58"/><stop offset=".11" stop-color="#e68d5c"/><stop offset=".19" stop-color="#c88a63"/><stop offset=".27" stop-color="#9f866c"/><stop offset=".35" stop-color="#6f8278"/><stop offset=".56" stop-color="#737f7e"/><stop offset="1" stop-color="#2f4461"/></linearGradient><linearGradient id="_무제_그라디언트_122" x1="-21.08" y1="660.75" x2="726.2" y2="660.75" gradientUnits="userSpaceOnUse"><stop offset="0" stop-color="#a8b1b3"/><stop offset=".25" stop-color="#a1aaac"/><stop offset=".6" stop-color="#8f999a"/><stop offset=".99" stop-color="#737f7e"/><stop offset="1" stop-color="#2f4461"/></linearGradient></defs><g id="_레이어_6"><polygon class="cls-3" points="2.83 3.95 2.83 445.27 971.65 445.27 1176.41 2.5 2.83 3.95"/><path class="cls-31" d="M984.6,415c9.4-17.1,15.16-34.92,24.13-50.98H86.85v348.6h762.95c30.9-61.49,54.5-122.06,83.8-182.62,18-39,31-78,51-115Z"/><rect class="cls-9" x="754.51" y="415.85" width="25.25" height="20.89"/><rect class="cls-4" x="807.61" y="369.71" width="26.99" height="31.34"/><rect class="cls-4" x="560.47" y="370.88" width="29.43" height="25.23"/><rect class="cls-9" x="282.96" y="380.97" width="26.07" height="34.48"/><rect class="cls-6" x="886.76" y="353.22" width="20.18" height="47.09"/><path class="cls-6" d="M999.65,382.65h-28.8v60.17c4.28-9.38,8.8-18.66,13.75-27.82,5.89-10.7,10.34-21.69,15.05-32.35Z"/><rect class="cls-6" x="660.55" y="358.56" width="25.18" height="46.25"/><rect class="cls-6" x="526" y="372.56" width="11.77" height="9.25"/><rect class="cls-6" x="716.89" y="355.74" width="35.32" height="24.39"/><rect class="cls-6" x="196.35" y="359.11" width="27.75" height="30.27"/><rect class="cls-6" x="161.87" y="343.97" width="45.41" height="45.41"/><rect class="cls-9" x="225.78" y="394.43" width="32.8" height="40.37"/><rect class="cls-9" x="580.66" y="385.18" width="42.89" height="53.82"/><path class="cls-9" d="M948.99,460.02v34.41c4.78-11.54,9.45-23.03,14.3-34.41h-14.3Z"/><rect class="cls-6" x="365.03" y="413.79" width="21.04" height="26.07"/><rect class="cls-4" x="848.83" y="420.55" width="59.19" height="78.93"/><path class="cls-1" d="M915.78,394.47v76.81h42.77c1.7-4.09,3.41-8.16,5.15-12.22v-64.59h-47.92Z"/><path class="cls-2" d="M868.97,478.41v94.92h44.48c.99-2.2,1.98-4.39,2.98-6.58v-88.33h-47.46Z"/><rect class="cls-2" x="487.38" y="406.49" width="45.45" height="59.69"/><rect class="cls-6" x="271.25" y="396.76" width="51.97" height="46.45"/><rect class="cls-6" x="343.86" y="352.42" width="33.64" height="41.48"/><rect class="cls-6" x="140.83" y="376.37" width="59.25" height="54"/><polyline class="cls-32" points="886.66 377.45 886.66 353.22 906.94 353.22 906.94 382.29"/><polyline class="cls-32" points="908.02 420.55 848.83 420.55 848.83 438.98"/><polyline class="cls-32" points="807.8 389.87 807.8 369.71 834.6 369.71 834.6 395.68"/><polyline class="cls-32" points="743.18 355.62 752.21 355.62 752.21 366.28"/><polyline class="cls-32" points="754.44 428.3 754.44 415.85 779.75 415.85 779.75 425.8"/><polyline class="cls-32" points="660.44 364.67 660.44 358.27 686.24 358.27 686.35 373.34"/><line class="cls-32" x1="343.62" y1="359.88" x2="343.62" y2="385.97"/><path class="cls-32" d="M162.11,371.77v-27.8h44.97v14.84h16.94v16.67"/><polyline class="cls-32" points="200.02 407.98 200.02 387.91 186.53 387.91 186.53 376.31 156.98 376.31 156.98 389.71"/><polyline class="cls-32" points="225.81 408.23 225.81 394.43 258.58 394.43 258.58 410.75"/><path class="cls-25" d="M897.79,482.82v103.15h7.78c.11-.31.24-.62.35-.94,10.32-27.2,25.91-50.88,37.71-76.83v-25.38h-45.84Z"/><rect class="cls-19" x="758.96" y="438.07" width="86.18" height="140.97"/><rect class="cls-25" x="824.17" y="474.93" width="54.17" height="85.36"/><polygon class="cls-11" points="694.79 291.47 694.79 236.04 704.12 236.04 704.12 291.53 694.79 291.47"/><rect class="cls-11" x="685.82" y="256.54" width="56.26" height="281.84"/><polyline class="cls-11" points="726.35 272.52 726.35 348.23 736.26 348.23"/><polygon class="cls-19" points="674.81 534.65 592.62 534.65 592.62 440.07 674.81 418.08 674.81 534.65"/><path class="cls-19" d="M934.57,526.63c4.02-7.73,7.9-15.54,11.35-23.6,10.5-23.46,18.71-46.54,29.1-69.01h-40.45v92.61Z"/><path class="cls-23" d="M934.49,433.95h40.57c.79-1.71,1.59-3.41,2.41-5.11h-42.18l-.81,5.11Z"/><path class="cls-13" d="M934.57,446.37h34.95c1.78-4.14,3.6-8.26,5.5-12.36h-40.45v12.36Z"/><rect class="cls-17" x="782.91" y="546.92" width="93.48" height="81.07"/><polygon class="cls-17" points="889.96 537.23 876.39 546.92 876.39 611.57 889.96 611.57 889.96 537.23"/><polygon class="cls-12" points="889.58 536.74 804.99 536.74 804.99 546.36 875.96 546.36 889.58 536.74"/><rect class="cls-24" x="716.11" y="459.38" width="91.72" height="102.57"/><polygon class="cls-26" points="807.81 459.27 716.16 459.27 717.41 455.65 806.45 455.84 807.81 459.27"/><polygon class="cls-27" points="877.28 471.88 825.05 471.88 824.26 474.73 878.31 474.73 877.28 471.88"/><rect class="cls-15" x="565.78" y="446.23" width="41.68" height="39.42"/></g><g id="_레이어_5"><path class="cls-18" d="M2.68,253.9c22.92-2.35,46.72,6.35,62.72,22.93,6.57,6.8,11.93,14.88,19.59,20.42,5.48,3.97,11.87,6.44,18.19,8.87,6.41,2.47,12.82,4.93,19.24,7.4,3.03,1.16,6.06,2.34,9.13,3.29,2.34.73,4.16,2.92,4.35,5.38.16,2.09-.79,4.17-2.25,5.67-1.57,1.61-5.67,1.93-5.54,4.34.17,3.11.43,5.48-1.55,8.21s-5,4.4-8.19,5.32c-1.58.46-3.2.73-4.83.93-1.38.16-3.09-.02-4.38.51-1.04.43-2,1.3-2.99,1.84-.48.26-4.16,2.61-4.46,2.4,10.88,7.74,21.76,15.48,32.64,23.22,9.11,6.48,16.57,14.35,24.22,22.43,1.4,1.48,2.88,3.11,3.1,5.14.25,2.29-1.25,4.49-3.19,5.75-2.16,1.4-5.31,1.22-6.67,3.22-1.52,2.23-2.46,4.64-4.28,6.73-3.48,4-8.02,7.03-12.88,9.12-7.67,3.29-16.08,4.4-24.37,5.34-35.59,4.01-71.48,5.34-107.27,3.98-.39-.53-.53-1.26-.92-1.78l.6-180.65Z"/><path class="cls-21" d="M55.68,370.42c8.29-1.77,16.03-6.07,21.9-12.18,7.05.19,14.15-1.56,20.31-5"/><path class="cls-21" d="M21.52,306.24c1.14-.65,2.3-1.31,3.57-1.63s2.7-.26,3.8.46c2.03,1.33,2.17,4.44.93,6.54s-3.42,3.41-5.52,4.64c1.62.82,2.39,2.88,2.02,4.66s-1.68,3.26-3.25,4.19c-2.56,1.51-5.89,1.65-8.57.36"/><path class="cls-21" d="M11.4,402.53c3.72-.85,7.19-2.8,9.86-5.53,10.18,2.7,21.73-.63,28.91-8.32"/><path class="cls-20" d="M847.2,714.36l66.05-142.82C716.18,489.66,410.92,403.98,2.5,408.86v305.5h844.7Z"/><path class="cls-21" d="M217.36,461.95l-11.29-20.14c9.02,3.55,16.98,9.71,22.68,17.55-.18-3.03-.37-6.06-.55-9.09,3.11,2.14,6.23,4.28,9.34,6.42"/><path class="cls-21" d="M669.42,638.41c4.82-8.25,13.42-14.2,22.85-15.8-4.51,3.28-6.48,9.65-4.61,14.91"/><path class="cls-21" d="M752.49,625.58c5.89-7.15,14.63-11.88,23.84-12.9"/><path class="cls-21" d="M790.76,620.96c4.26-1.01,8.51-2.02,12.77-3.03"/><g id="_레이어_3"><path class="cls-8" d="M352.56,606.87c-160.3,0-297.02,32.8-350.06,78.86v28.91h721.37c-20.83-60.63-179.12-107.77-371.31-107.77Z"/><path class="cls-28" d="M352.56,606.87c-160.3,0-297.02,32.8-350.06,78.86v28.91h721.37c-20.83-60.63-179.12-107.77-371.31-107.77Z"/><path class="cls-21" d="M352.56,606.87c-160.3,0-297.02,32.8-350.06,78.86v28.91h721.37c-20.83-60.63-179.12-107.77-371.31-107.77Z"/><path class="cls-16" d="M363.25,614.61c-33.45,17.2-60.56,46.41-75.22,81.05"/><path class="cls-21" d="M131.19,654.63l8.81,7.12"/><path class="cls-21" d="M137.39,651.71c4.42,2.72,8.84,5.45,13.26,8.17"/><path class="cls-21" d="M534.43,687.24c2.69,3.3,5.38,6.6,8.07,9.9"/><path class="cls-21" d="M550.75,691.09l8.76,9.78"/><path class="cls-21" d="M419.23,631.13c6.06-5.64,13.75-9.49,21.89-10.97"/><path class="cls-21" d="M432.53,631.92c5.74-2.73,11.49-5.46,17.23-8.19"/><path class="cls-21" d="M424.83,622.19c7.78,1.29,15.22,4.54,21.44,9.38"/></g></g><g id="_레이어_4"><path class="cls-29" d="M346.26,397.47c.76,1.24.33,2.94-.66,4.01s-2.39,1.64-3.77,2.1c-3.44,1.14-7.39,1.75-10.54-.03-2.97-1.66-4.59-5.27-4.28-8.66s2.37-6.48,5.15-8.46c2.26-1.61,5.17-2.55,7.84-1.82,2.36.64,4.24,2.49,5.43,4.62,1.91,3.43,2.18,7.74.7,11.38"/><path class="cls-14" d="M328.95,391.92c-.07-.07-.14-.15-.2-.24-.84-1.09-.65-2.34-.61-3.61.44-15.75,2.33-31.1,7.01-46.21.96-3.09,2.25-6.44,5.14-7.9,3.79-1.92,8.62.61,10.68,4.32,2.06,3.72,2.05,8.19,1.88,12.43-.48,11.78-1.8,23.52-3.95,35.1-.43,2.29-.93,4.68-2.41,6.48-2.05,2.49-4.5,2.01-7.24,1.48-2.08-.4-4.19-.62-6.3-.78-1.48-.11-2.91.07-3.98-1.08Z"/><path class="cls-10" d="M431.24,415.7c1.15,9.41,4.16,18.8,10.1,26.19.7.88,1.49,1.88,1.31,2.99-.23,1.37-1.78,2.03-3.12,2.42-9.81,2.84-20.08,4.11-30.29,3.76-4.67-.16-9.89-.95-12.74-4.66-2.57-3.34-2.38-7.95-2.65-12.16-.21-3.32-1.03-6.54-1.63-9.8-.64-3.46-1.67-6.85-3.06-10.08-.61-1.42-1.44-4.71-3.41-4.66s-1.21,2.31-1.27,3.58c-.07,1.48-.14,2.96-.21,4.44-.14,3.04-.29,6.09-.43,9.13-.12,2.61-.42,5.01.1,7.62.34,1.67.88,3.3,1.63,4.84s2.02,2.9,1.81,4.73c-.29,2.51-2.82,2.56-4.8,3.02-2.97.69-5.97,1.24-8.99,1.63-6.04.79-12.16.99-18.25.57-1.09-.07-2.19-.17-3.28-.28-2.69-.28-5.53-.75-7.55-2.55-2.52-2.24-3.09-5.91-3.41-9.28-1.62-17.5-.53-35.25,3.23-52.42,7.18-.39,14.37-.7,21.55-.93,7.19-.23,14.38-.37,21.57-.44s14.38-.05,21.57.05c3.6.05,7.19.12,10.78.21,1.8.05,3.59.1,5.39.15.9.03,1.8.06,2.7.09.43.01.86.03,1.29.04.35.01,1.09-.11,1.39.05.79.41.69,2.06.68,2.79-.03,1.51-.12,3.01-.21,4.52-.21,3.54-.39,7.09-.44,10.63-.07,4.6.08,9.21.64,13.78Z"/><path class="cls-29" d="M494.4,284.21c-.47,36.13-48.85,54.8-110.13,54-61.28-.8-108.68-27.55-108.21-63.67.47-36.13,48.64-67.95,109.92-67.15s108.89,40.69,108.42,76.82Z"/><path class="cls-7" d="M379.24,211.39c-2.87-3.09-6.11-5.82-9.62-8.15-4.39-2.92-9.19-5.21-14.22-6.78-1.26-.39-2.53-.74-3.81-1.04-1.13-.27-2.32-.75-3.39-.24-2.65,1.26-5.18,2.3-8.2,2.15-2.97-.14-5.93-1.44-7.78-3.77s-2.43-5.69-1.14-8.37c1.05-2.2,3.22-3.74,5.58-4.36,3.03-.81,6.42-.15,8.93,1.73,1.19.89,2.18,2.05,2.89,3.35s.79,2.6,1.21,3.94c.02.05.03.1.05.15.2.61-.05.42.55.64.31.12.76.08,1.09.13.78.1,1.55.21,2.33.35,1.49.26,2.98.57,4.44.95,10.06,2.6,19.4,8.07,26.48,15.69.47.51.13,1.37-.2,1.98"/><path class="cls-22" d="M376.89,207.52c-2.01-1.82-5.76-3.75-8.02-5.26-4.39-2.92-9.19-5.21-14.22-6.78-1.26-.39-2.53-.74-3.81-1.04-1.13-.27-2.32-.75-3.39-.24-2.65,1.26-5.18,2.3-8.2,2.15-2.97-.14-5.93-1.44-7.78-3.77s-2.43-5.69-1.14-8.37c1.05-2.2,3.22-3.74,5.58-4.36,3.03-.81,6.42-.15,8.93,1.73,1.19.89,2.18,2.05,2.89,3.35s.79,2.6,1.21,3.94c.02.05.03.1.05.15.2.61-.05.42.55.64.31.12.76.08,1.09.13.78.1,1.55.21,2.33.35,1.49.26,2.98.57,4.44.95,10.06,2.6,20.55,8.69,27.64,16.31"/><path class="cls-29" d="M431.88,410.22c3.06,2.76,7.77,3.52,11.55,1.88,3.78-1.64,6.43-5.61,6.5-9.73.05-2.65-.94-5.32-2.79-7.21-2.46-2.52-6.32-3.46-9.76-2.71-3.3.72-7.55,3.34-8.7,6.69-1.29,3.75.35,8.51,3.2,11.08Z"/><path class="cls-5" d="M340.09,385.48c-.04,2.37,0,5,1.62,6.75,1.43,1.55,3.69,1.94,5.78,2.21,27.08,3.57,54.79,2.38,81.46-3.52-2.21-18.04-4.42-36.08-6.63-54.11.13,1.08-22.89,4.12-25.04,4.34-8.51.89-17.08,1.2-25.63.92-8.61-.27-16.96-1.8-25.5-2.56-7.39-.66-5.43,10.72-5.51,15.35-.18,10.2-.36,20.41-.54,30.61Z"/><path class="cls-22" d="M340.95,353.7c-.45,10.2-.91,20.39-1.36,30.59-.11,2.37-.12,5,1.44,6.79,1.39,1.59,3.64,2.04,5.72,2.37,26.98,4.29,54.7,3.83,81.52-1.35-1.73-18.09-3.46-36.18-5.19-54.27.1,1.08-22.99,3.51-25.15,3.68-8.53.66-17.1.74-25.65.24"/><path class="cls-5" d="M425.57,393.22c.4,2.31,1.01,4.93,3.06,6.07,1.84,1.03,4.12.45,6.14-.16,2.87-.86,5.74-1.71,8.61-2.57,1.37-.41,2.81-.86,3.82-1.88,1.81-1.83,1.61-4.78,1.24-7.33-2.03-13.73-5.77-27.2-11.11-40-1.88-4.5-4.56-9.44-9.31-10.53-3.33-.76-6.78.78-9.06,3.18-1.46,1.54-1.84,2.57-1.82,4.69.04,3.77,1.3,7.23,1.94,10.91.72,4.15,1.44,8.3,2.16,12.45,1.45,8.39,2.9,16.77,4.36,25.16Z"/><path class="cls-22" d="M419.06,355.6c.72,4.15,1.44,8.3,2.16,12.45,1.45,8.39,2.9,16.77,4.36,25.16.4,2.31,1.01,4.93,3.06,6.07,1.84,1.03,4.12.45,6.14-.16,2.87-.86,5.74-1.71,8.61-2.57,1.37-.41,2.81-.86,3.82-1.88,1.81-1.83,1.61-4.78,1.24-7.33-2.03-13.73-5.77-27.2-11.11-40-1.88-4.5-6.91-9.95-11.66-11.04"/><path class="cls-14" d="M399.46,347.98c-11.46,4.17-23.68,7.99-35.87,6.54-10.9-1.3-21.22-6.95-28.15-15.46-.55-.68-.97-1.47-1.11-2.33-.56-3.4,3.06-4.88,6.04-5.15,11.7-1.07,22.5,4.3,34.14,5.95,6.23.88,13.05.99,19.33.51,5.86-.45,11.51-.52,17.33-1.3,3.25-.44,9.18-1.53,13.05-1.28,1.17.08,1.28,1.08.29,1.71-3.57,2.26-9.14,4.52-12.52,5.92-4.14,1.72-8.31,3.37-12.52,4.9Z"/></g><g id="_레이어_2"><polygon class="cls-30" points="2.5 3.95 2.5 714.36 847.2 714.36 1176.41 2.5 2.5 3.95"/></g></svg>