<?xml version="1.0" encoding="UTF-8"?>
<svg id="_레이어_1" data-name="레이어_1" xmlns="http://www.w3.org/2000/svg" version="1.1" xmlns:xlink="http://www.w3.org/1999/xlink" viewBox="0 0 662 339">
  <!-- Generator: Adobe Illustrator 29.4.0, SVG Export Plug-In . SVG Version: 2.1.0 Build 152)  -->
  <defs>
    <style>
      .st0, .st1, .st2, .st3, .st4, .st5, .st6, .st7, .st8, .st9 {
        stroke: #000;
      }

      .st0, .st1, .st2, .st3, .st5, .st6, .st7, .st10, .st8, .st11 {
        stroke-width: 3px;
      }

      .st0, .st1, .st2, .st5, .st6, .st7, .st10, .st8, .st11 {
        stroke-linecap: round;
        stroke-linejoin: round;
      }

      .st0, .st12 {
        fill: #4f7889;
      }

      .st13 {
        fill: url(#_무제_그라디언트);
      }

      .st1 {
        fill: #2d2d2d;
      }

      .st14, .st7 {
        fill: #c0dabe;
      }

      .st15 {
        fill: #9097a0;
      }

      .st2 {
        fill: #c6bdb3;
      }

      .st3, .st4 {
        fill: #313831;
      }

      .st3, .st9 {
        stroke-miterlimit: 10;
      }

      .st4 {
        stroke-miterlimit: 10;
        stroke-width: 3px;
      }

      .st5, .st10, .st9 {
        fill: none;
      }

      .st6 {
        fill: #303030;
      }

      .st10, .st11 {
        stroke: #252625;
      }

      .st8 {
        fill: #5b5b5b;
      }

      .st9 {
        stroke-width: 5px;
      }

      .st11 {
        fill: #252625;
      }
    </style>
    <linearGradient id="_무제_그라디언트" data-name="무제 그라디언트" x1="329.5" y1="75" x2="329.5" y2="339" gradientTransform="translate(0 340) scale(1 -1)" gradientUnits="userSpaceOnUse">
      <stop offset="0" stop-color="#fff"/>
      <stop offset="1" stop-color="#15c4f4"/>
    </linearGradient>
  </defs>
  <g id="_레이어_4">
    <rect class="st13" y="1" width="659" height="264"/>
    <path class="st15" d="M591.5,145.5v57.5h-55.5V61h-114v156h-83v-118h-90v-44h-89v119h-66v-29.62c-6.86,13.48-14.67,26.56-21,40.62-14.82,37.98-33.07,73.4-49.2,111h62.2v1h163v-1h76v1h211v-1h59v-.5h64.5v-150h-68Z"/>
    <g>
      <polygon class="st15" points="93.48 265 93.48 142.22 25.48 142.22 25.48 200.77 0 200.77 0 265 93.48 265"/>
      <polygon class="st2" points="97.5 265.5 93.48 265.5 0 265.5 0 295.98 0 298.28 0 309.5 657.5 309.5 659.5 309.5 659.5 265.5 97.5 265.5"/>
      <rect class="st8" y="309.5" width="660.49" height="11"/>
      <polygon class="st1" points="660.49 320.5 657.5 320.5 657.5 321.5 0 321.5 0 336.5 660.49 336.5 660.49 320.5"/>
      <rect class="st1" y="320.5" width="657.5" height="1"/>
      <path class="st5" d="M596.89,292.21l-3.11,5.05"/>
      <path class="st5" d="M605.43,293.37l-2.33,3.49"/>
      <path class="st5" d="M81.41,290.46l4.45,2.97"/>
    </g>
  </g>
  <g id="_레이어_3">
    <path class="st6" d="M292.93,262.42c-.59.42-.27.63.25,1.77s1.19,2.27,1.83,3.35c1.24,2.08,2.62,4.06,4.13,5.95,3.16,3.94,7.64,9.45,13.03,10.09,2.64.32,5.25-.59,7.75-1.49,8.1-2.89,16.2-5.79,24.3-8.68,6.46-2.31,15.01-2.77,21.71-1.06,6.72,1.72,13.38,4.06,20.36,4.41,8.06.41,15.93-1.95,23.32-4.96,3.26-1.33,6.45-3.24,9.91-3.81,1.24-.2,6.18-.14,7.01-1.24.62-.82-.75-1.91-1.29-2.62-2.93-3.77-5.21-8.04-8.64-11.42-1.54-1.51-3.05-3.21-5.26-3.41-2.77-.25-5.52.59-8.22,1.09-5.2.96-10.63.7-15.72-.73-2.32-.65-4.61-2.13-6.98-2.31s-4.86,0-7.27.09c-6.94.27-13.88.54-20.81.82-6.1.24-12.44-.57-18.18,1.86-3.02,1.27-5.81,3.01-8.72,4.51-5.37,2.78-11.14,4.79-17.07,5.96-2.96.59-5.98.98-8.99,1.13-1.67.08-4.56-.41-6.02.43-.17.1-.31.18-.41.26h-.02Z"/>
    <path class="st7" d="M422.09,241.61c.95-.39,1.9-.79,2.85-1.18,1.37-.57,2.83-1.21,3.63-2.47.94-1.5.65-3.52-.25-5.04s-2.33-2.65-3.71-3.75c-1.17-.92-2.62-1.9-4.03-1.41-1.3.45-1.88,1.94-2.3,3.25-.47,1.46-.94,2.94-1.06,4.46-.28,3.41.52,7.94,4.89,6.13h-.02Z"/>
    <path class="st0" d="M391.85,231.69l24.11,8.23c.87.3,1.84.07,2.48-.59,1.27-1.3,2.47-2.68,3.3-4.29,1.05-2.06,1.39-4.63.3-6.67-1.1-2.07-3.38-3.2-5.56-4.07-6.03-2.4-12.44-3.82-18.92-4.21-3.03-.18-6.3-.07-8.74,1.73-3.39,2.5-2.75,7.61,1.17,9.14.86.34,1.77.59,2.68.92-.15-.15-.66-.03-.81-.18h-.01Z"/>
    <path class="st7" d="M293.76,229.9c-2.59,1.19-4.6,3.63-5.35,6.5-.53,2.04-.36,4.45,1.03,6.03,1.2,1.36,3.02,1.86,4.73,2.28.49.12.98.24,1.46.36.69.17,1.38.34,2.09.41,3.41.33,6.82-2.11,7.73-5.54.93-3.52-.89-6.51-3.09-9.05s-5.97-2.2-8.6-.99Z"/>
    <path class="st0" d="M303.78,243.69c1.17.05,2.6-.46,3.7-.86,9.55-3.48,19.1-6.96,28.65-10.44,1.9-.69,3.93-1.48,5.08-3.2,1.57-2.35.89-5.86-1.08-7.96-1.96-2.1-4.9-2.93-7.66-2.86s-5.43.94-8.06,1.8c-6.78,2.23-13.55,4.45-20.33,6.68-2.07.68-4.78,1.02-5.65,3.37-.8,2.14-.6,5.71-.02,7.87s2.52,5.57,5.38,5.61h-.01Z"/>
    <path class="st12" d="M397.88,211.06c1.98-.81,4.35-1.65,6.13-.46,2.11,1.41,1.82,4.64.69,6.92-2.43,4.94-7.72,8.35-13.22,8.52.92,6.08,1.84,12.17,2.76,18.25.27,1.79.52,3.72-.3,5.34-1.25,2.47-4.38,3.18-7.12,3.57-15.04,2.14-30.28,2.94-45.46,2.41-2.82-.1-5.67-.25-8.35-1.15s-5.18-2.64-6.4-5.18c-.98-2.05-1.05-4.4-1.1-6.67-.14-6.35-.27-12.7-.41-19.05,0,.05-6.11-2.36-6.6-3.81-.71-2.1,1.51-2.55,3.32-2.56,2.89,0,6.05,1.16,8.92,1.62,3.08.49,6.18.86,9.28,1.12,12.51,1.03,25.18.18,37.44-2.5,6.97-1.53,13.81-3.65,20.42-6.37h0Z"/>
    <path class="st5" d="M366.83,223.61l20.69.43c3.27.07,6.59.13,9.73-.74s6.15-2.84,7.5-5.81.55-6.99-2.27-8.66"/>
    <path class="st5" d="M337.41,223.72c-3.38-1.37-7.16.32-10.81.31-4.43-.02-8.72-2.85-10.48-6.91"/>
    <path class="st5" d="M325.57,229.95c-.7,4.17-1.4,8.42-.86,12.62s2.51,8.42,6.09,10.67c3.19,2.01,7.16,2.22,10.94,2.3,14.18.29,28.38-.43,42.46-2.14,3.01-.37,6.29-.92,8.32-3.18,2.43-2.72,2.15-6.9,1.2-10.43s-2.42-7.09-1.86-10.7"/>
    <path class="st7" d="M421.5,179.5c0,24.85-31.51,41.5-71,41.5s-73-17.65-73-42.5,33.51-47.5,73-47.5,71,23.65,71,48.5Z"/>
    <path class="st7" d="M350.5,131c-35.49,0-66.13,18.29-71.98,40.04,5.66-.86,13.08.49,20.36,4.16,12.58,6.33,17.14,18.31,13.62,25.3-3.25,6.45-11.82,6.23-23.42,1.38,13.13,11.82,36.03,19.12,61.42,19.12,39.49,0,71-16.65,71-41.5s-31.51-48.5-71-48.5h0Z"/>
    <ellipse class="st4" cx="375.56" cy="191.76" rx="27.18" ry="15.82" transform="translate(-45.62 171.17) rotate(-24.25)"/>
    <path class="st3" d="M312.67,202.73c4.83-6.17-.25-18.21-11.34-26.88-6.42-5.02-14.11-9.07-19.82-9.34-1.13,2.27-2.51,4.53-3,7-1.74,8.7,3.14,18.14,9,26,10.43,7.03,20.72,8.91,25.17,3.23h-.01Z"/>
    <path class="st14" d="M359.82,134.27c-.24-.49-.48-1.18-.14-1.59,5.06-6.12,11.74-10.51,18.93-12.6,1.04-.31,2.11-.55,3.17-.76.56-.11,1.11-.2,1.67-.28.24-.04.56,0,.78-.1.43-.18.25-.02.39-.51.01-.04.02-.08.04-.12.3-1.08.36-2.12.87-3.16s1.22-1.98,2.07-2.69c1.79-1.51,4.22-2.04,6.38-1.39,1.69.5,3.24,1.73,3.99,3.5.92,2.15.51,4.85-.81,6.72s-3.44,2.91-5.56,3.03c-2.16.12-3.97-.71-5.86-1.73-.76-.41-1.62-.02-2.42.19-.92.24-1.82.52-2.72.84-3.6,1.26-7.03,3.1-10.17,5.44-2.51,1.87-4.83,4.06-6.88,6.54"/>
    <path class="st5" d="M359.5,131.5c5.07-6.12,12.46-10.11,19.65-12.2,1.04-.31,2.11-.55,3.17-.76.56-.11,1.11-.2,1.67-.28.24-.04.56,0,.78-.1.43-.18.25-.02.39-.51.01-.04.02-.08.04-.12.3-1.08.36-2.12.87-3.16s1.22-1.98,2.07-2.69c1.79-1.51,4.22-2.04,6.38-1.39,1.69.5,3.24,1.73,3.99,3.5.92,2.15.51,4.85-.81,6.72s-3.44,2.91-5.56,3.03c-2.16.12-3.97-.71-5.86-1.73-.76-.41-1.62-.02-2.42.19-.92.24-1.82.52-2.72.84-3.6,1.26-7.03,3.1-10.17,5.44-1.62,1.21-4.01,2.77-5.45,4.23"/>
  </g>
  <g id="_레이어_5">
    <path class="st11" d="M255.51,144.95c-2.08.78-3.86,2.54-4.33,4.72s.56,4.68,2.58,5.62c2.01.93,4.4.22,6.34-.84,2.03-1.1,3.96-2.72,4.55-4.95,1.51-5.69-5.58-5.88-9.14-4.55Z"/>
    <path class="st10" d="M264.24,146.56l-7.31-14.69c2.79.8,5.58,1.6,8.37,2.4"/>
    <path class="st11" d="M441.26,138.44c-2.22-.17-4.57.68-5.92,2.46s-1.46,4.48-.03,6.18c1.43,1.69,3.9,2.05,6.1,1.91,2.3-.15,4.74-.81,6.21-2.58,3.76-4.53-2.59-7.68-6.37-7.97h.01Z"/>
    <path class="st10" d="M448.49,143.57c-.15-5.47-.3-10.93-.45-16.4"/>
  </g>
  <rect class="st9" y="1" width="662" height="338"/>
</svg>