<svg width="60" height="60" viewBox="0 0 60 60" fill="none" xmlns="http://www.w3.org/2000/svg">
<path d="M10 50C10 44.4772 14.4772 40 20 40H30V50C30 55.5228 25.5228 60 20 60C14.4772 60 10 55.5228 10 50Z" fill="#24CB71"/>
<path d="M30 0V20H40C45.5228 20 50 15.5228 50 10C50 4.4772 45.5228 0 40 0H30Z" fill="#FF7237"/>
<path d="M39.9141 40C45.4369 40 49.9141 35.5228 49.9141 30C49.9141 24.4772 45.4369 20 39.9141 20C34.3912 20 29.9141 24.4772 29.9141 30C29.9141 35.5228 34.3912 40 39.9141 40Z" fill="#00B6FF"/>
<path d="M10 10C10 15.5228 14.4772 20 20 20H30V0H20C14.4772 0 10 4.4772 10 10Z" fill="#FF3737"/>
<path d="M10 30C10 35.5228 14.4772 40 20 40H30V20H20C14.4772 20 10 24.4772 10 30Z" fill="#874FFF"/>
</svg>
