<svg width="60" height="60" viewBox="0 0 60 60" fill="none" xmlns="http://www.w3.org/2000/svg">
<g clip-path="url(#clip0_1083_55)">
<path d="M10.625 4.83609e-06H49.375C50.7707 -0.00134432 52.1529 0.279605 53.4426 0.826775C54.7322 1.37394 55.9041 2.17659 56.8909 3.18878C57.8778 4.20097 58.6604 5.40283 59.1939 6.72558C59.7274 8.04832 60.0013 9.46599 60 10.8974V49.1026C60.0013 50.534 59.7274 51.9517 59.1939 53.2744C58.6604 54.5972 57.8778 55.799 56.8909 56.8112C55.9041 57.8234 54.7322 58.6261 53.4426 59.1732C52.1529 59.7204 50.7707 60.0014 49.375 60H10.625C9.22934 60.0014 7.84712 59.7204 6.55744 59.1732C5.26776 58.6261 4.09595 57.8234 3.10906 56.8112C2.12218 55.799 1.3396 54.5972 0.806106 53.2744C0.272615 51.9517 -0.00131071 50.534 4.71519e-06 49.1026V10.8974C-0.00131071 9.46599 0.272615 8.04832 0.806106 6.72558C1.3396 5.40283 2.12218 4.20097 3.10906 3.18878C4.09595 2.17659 5.26776 1.37394 6.55744 0.826775C7.84712 0.279605 9.22934 -0.00134432 10.625 4.83609e-06Z" fill="#330000"/>
<path d="M29.0758 36.0004H19.7758L17.8758 42.026C17.8546 42.1359 17.7941 42.2336 17.7062 42.3C17.6183 42.3664 17.5094 42.3968 17.4008 42.385H12.7008C12.4258 42.385 12.3508 42.2312 12.4258 41.9235L20.4758 18.1542C20.5508 17.8978 20.6258 17.6158 20.7258 17.3081C20.8264 16.7586 20.8767 16.2006 20.8758 15.6414C20.8683 15.5772 20.8848 15.5125 20.9219 15.4602C20.959 15.4078 21.014 15.3719 21.0758 15.3594H27.5508C27.7508 15.3594 27.8508 15.4363 27.8758 15.5645L37.0008 41.9748C37.0758 42.2568 37.0008 42.385 36.7508 42.385H31.5258C31.4375 42.3937 31.3489 42.3703 31.2758 42.3187C31.2026 42.2671 31.1495 42.1907 31.1258 42.103L29.0758 36.0004ZM21.2258 30.7953H27.5758C27.4258 30.2568 27.2258 29.6158 27.0008 28.9491C26.7758 28.2825 26.5508 27.5132 26.3258 26.744C26.1008 25.9748 25.8508 25.1799 25.6008 24.385C25.3508 23.5901 25.1258 22.8466 24.9258 22.103C24.7258 21.3594 24.5508 20.7183 24.3758 20.103H24.3258C24.1011 21.2205 23.8174 22.3247 23.4758 23.4107C23.1008 24.6414 22.7258 25.9235 22.3258 27.2055C21.9758 28.5132 21.6008 29.7183 21.2258 30.7953V30.7953Z" fill="#FF9A00"/>
<path d="M42.4519 19.7436C42.0415 19.7528 41.6335 19.6782 41.2515 19.5242C40.8695 19.3701 40.5212 19.1396 40.2269 18.8462C39.6541 18.2038 39.349 17.3572 39.3769 16.4872C39.3621 16.0633 39.4346 15.641 39.5897 15.2478C39.7448 14.8546 39.9789 14.4993 40.2769 14.2052C40.8778 13.6226 41.6751 13.3011 42.5019 13.3077C43.4769 13.3077 44.2269 13.6154 44.7769 14.2052C45.3307 14.8269 45.6266 15.6454 45.6019 16.4872C45.6171 16.9204 45.5476 17.3524 45.3973 17.7576C45.247 18.1627 45.019 18.5329 44.7269 18.8462C44.4323 19.1539 44.0768 19.3933 43.6843 19.5481C43.2919 19.7029 42.8716 19.7696 42.4519 19.7436V19.7436ZM39.6519 42V22.2564C39.6519 22 39.7519 21.8975 39.9769 21.8975H44.9269C45.1519 21.8975 45.2519 22.0257 45.2519 22.2564V42C45.2519 42.2821 45.1519 42.4103 44.9269 42.4103H40.0269C39.9743 42.4147 39.9215 42.4069 39.8723 42.3875C39.8231 42.3681 39.7788 42.3375 39.7428 42.298C39.7067 42.2586 39.6798 42.2113 39.6641 42.1597C39.6483 42.1081 39.6442 42.0535 39.6519 42V42Z" fill="#FF9A00"/>
</g>
<defs>
<clipPath id="clip0_1083_55">
<rect width="60" height="60" fill="white"/>
</clipPath>
</defs>
</svg>
