<svg width="60" height="60" viewBox="0 0 60 60" fill="none" xmlns="http://www.w3.org/2000/svg">
<g clip-path="url(#clip0_1085_496)">
<rect width="60" height="60" fill="#FFCA28"/>
<path d="M36.4286 49.9017L40.8462 46.9786C41.1923 48.0663 43.3846 50.6494 46.1538 50.6494C48.9231 50.6494 50.2088 49.1369 50.2088 48.1343C50.2088 45.4017 47.3811 44.4383 46.0229 43.9755C45.8015 43.9001 45.6192 43.838 45.4945 43.7836C45.4306 43.7558 45.3339 43.7188 45.2097 43.6714C43.6992 43.0943 38.1264 40.9652 38.1264 34.7935C38.1264 27.9956 44.6868 27.2139 46.1703 27.2139C47.1409 27.2139 51.8077 27.3328 54.1319 31.7005L49.8462 34.6915C48.9066 32.7881 47.3455 32.1593 46.3846 32.1593C44.011 32.1593 43.5165 33.8995 43.5165 34.6915C43.5165 36.9141 46.0954 37.9103 48.2729 38.7515C48.8426 38.9715 49.3848 39.181 49.8462 39.399C52.2198 40.5207 55.7143 42.3561 55.7143 48.1343C55.7143 51.0284 53.2868 55.7139 47.1758 55.7139C38.967 55.7139 36.7912 50.7854 36.4286 49.9017Z" fill="#3E3E3E"/>
<path d="M15 50.4822L19.6043 47.5606C19.9651 48.6477 21.367 50.652 23.4011 50.652C25.4353 50.652 26.4764 48.5627 26.4764 47.5606V27.8567H32.139V47.5606C32.2306 50.2783 30.7233 55.7139 24.0712 55.7139C17.955 55.7139 15.4123 52.0789 15 50.4822Z" fill="#3E3E3E"/>
</g>
<defs>
<clipPath id="clip0_1085_496">
<rect width="60" height="60" fill="white"/>
</clipPath>
</defs>
</svg>
