<svg width="43" height="17" viewBox="0 0 43 17" fill="none" xmlns="http://www.w3.org/2000/svg">
<path d="M41.6373 2.68992C42.1816 2.78333 42.6986 2.41778 42.792 1.87345C42.8854 1.32912 42.5199 0.81214 41.9755 0.718734L41.6373 2.68992ZM0.634604 13.0891C0.500359 13.6248 0.825822 14.168 1.36154 14.3022L10.0916 16.4899C10.6273 16.6242 11.1705 16.2987 11.3047 15.763C11.4389 15.2273 11.1135 14.6842 10.5778 14.5499L2.81769 12.6053L4.76225 4.84523C4.8965 4.30951 4.57104 3.76639 4.03532 3.63214C3.49959 3.49789 2.95648 3.82334 2.82224 4.35906L0.634604 13.0891ZM41.9755 0.718734C36.2999 -0.255186 20.474 0.859086 1.09059 12.4744L2.11864 14.19C21.1898 2.7618 36.5345 1.81429 41.6373 2.68992L41.9755 0.718734Z" fill="#6F3E37" fill-opacity="0.8"/>
</svg>
