<svg width="66" height="77" viewBox="0 0 66 77" fill="none" xmlns="http://www.w3.org/2000/svg">
<path d="M1.45856 74.3916C0.959145 74.6274 0.74544 75.2234 0.98124 75.7228C1.21704 76.2222 1.81305 76.436 2.31247 76.2002L1.45856 74.3916ZM62.4866 1.33862C62.2793 0.826728 61.6963 0.579829 61.1844 0.787149L52.8426 4.16565C52.3307 4.37297 52.0838 4.95601 52.2911 5.4679C52.4984 5.9798 53.0815 6.22671 53.5934 6.01938L61.0083 3.01627L64.0115 10.4312C64.2188 10.9431 64.8019 11.19 65.3137 10.9827C65.8256 10.7754 66.0725 10.1923 65.8652 9.68043L62.4866 1.33862ZM2.31247 76.2002C14.4431 70.4728 43.1707 47.7034 62.4806 2.10397L60.6389 1.32406C41.4947 46.532 13.0882 68.9008 1.45856 74.3916L2.31247 76.2002Z" fill="#6F3E37" fill-opacity="0.8"/>
</svg>
