<svg width="42" height="40" viewBox="0 0 42 40" fill="none" xmlns="http://www.w3.org/2000/svg">
<path d="M0.751599 2.11152C0.232728 1.92233 -0.0345354 1.34833 0.15465 0.82946C0.343835 0.310591 0.917828 0.0433336 1.4367 0.232524L0.751599 2.11152ZM38.9112 39.2403C38.7731 39.7751 38.2277 40.0967 37.693 39.9587L28.9786 37.7093C28.4438 37.5712 28.1222 37.0258 28.2603 36.4911C28.3983 35.9563 28.9437 35.6347 29.4784 35.7727L37.2246 37.7722L39.224 30.0261C39.362 29.4913 39.9074 29.1697 40.4422 29.3078C40.9769 29.4458 41.2985 29.9912 41.1605 30.526L38.9112 39.2403ZM1.4367 0.232524C7.89265 2.58649 24.0714 13.4978 38.8043 38.4825L37.0815 39.4983C22.509 14.7855 6.65091 4.26252 0.751599 2.11152L1.4367 0.232524Z" fill="#6F3E37" fill-opacity="0.8"/>
</svg>
