<svg width="139" height="227" viewBox="0 0 139 227" fill="none" xmlns="http://www.w3.org/2000/svg">
<mask id="path-1-inside-1_984_389" fill="white">
<path d="M0 0L138.5 0L138.5 161L0 161L0 0Z"/>
</mask>
<path d="M0 0L138.5 0L138.5 161L0 161L0 0Z" fill="#EEEEEE"/>
<path d="M138.5 161V164H141.5V161H138.5ZM0 161H-3L-3 164H0L0 161ZM138.5 0L135.5 0L135.5 161H138.5H141.5L141.5 0L138.5 0ZM138.5 161V158L0 158L0 161L0 164L138.5 164V161ZM0 161H3L3 0L0 0L-3 0L-3 161H0Z" fill="black" mask="url(#path-1-inside-1_984_389)"/>
<path d="M28.9863 34L33.8887 19.8594H37.6582L42.541 34H39.3965L38.332 30.7383H33.2148L32.1504 34H28.9863ZM37.5898 28.4531L35.8223 23.043H35.7246L33.957 28.4531H37.5898ZM46.9746 34L44.084 34V19.8594H46.9746V34ZM52.1113 34H49.2207V19.8594H52.1113V34ZM70.8223 34H68.2832L62.0723 25.0156H61.9551V34H59.0254V19.8594H61.6035L67.7754 28.8437H67.9121V19.8594L70.8223 19.8594V34ZM73.2051 19.8594H82.6973V22.2812H76.1348V25.7187H82.209V28.1406H76.1348V31.5781H82.7168V34H73.2051V19.8594ZM84.1035 19.8594L87.3066 19.8594L89.6895 29.7422H89.8066L92.4043 19.8594H95.1582L97.7559 29.7617H97.873L100.256 19.8594H103.459L99.416 34H96.5449L93.8496 24.6641H93.7324L91.0176 34H88.1465L84.1035 19.8594ZM108.088 29.7617H105.588L105.334 19.8594H108.342L108.088 29.7617ZM105.217 32.5352C105.21 32.2422 105.279 31.972 105.422 31.7246C105.572 31.4707 105.773 31.2721 106.027 31.1289C106.281 30.9857 106.558 30.9141 106.857 30.9141C107.144 30.9141 107.411 30.9857 107.658 31.1289C107.906 31.2721 108.104 31.4707 108.254 31.7246C108.404 31.972 108.479 32.2422 108.479 32.5352C108.479 32.8346 108.404 33.1113 108.254 33.3652C108.104 33.6126 107.906 33.8112 107.658 33.9609C107.411 34.1042 107.144 34.1758 106.857 34.1758C106.558 34.1758 106.281 34.1042 106.027 33.9609C105.773 33.8112 105.572 33.6126 105.422 33.3652C105.279 33.1113 105.21 32.8346 105.217 32.5352ZM17.2383 43.8594L21.1641 53.4492H21.3203L25.2461 43.8594H28.8789L28.8789 58H26.0273V48.7422H25.9102L22.2188 57.9414H20.2656L16.5742 48.7031H16.457V58H13.6055L13.6055 43.8594H17.2383ZM44.2109 50.9297C44.2109 52.4336 43.9245 53.7324 43.3516 54.8262C42.7786 55.9199 41.9909 56.7565 40.9883 57.3359C39.9922 57.9089 38.8659 58.1953 37.6094 58.1953C36.3464 58.1953 35.2135 57.9089 34.2109 57.3359C33.2083 56.7565 32.4206 55.9199 31.8477 54.8262C31.2747 53.7259 30.9883 52.4271 30.9883 50.9297C30.9883 49.4258 31.2747 48.127 31.8477 47.0332C32.4206 45.9395 33.2083 45.1061 34.2109 44.5332C35.2135 43.9538 36.3464 43.6641 37.6094 43.6641C38.8659 43.6641 39.9922 43.9538 40.9883 44.5332C41.9909 45.1061 42.7786 45.9395 43.3516 47.0332C43.9245 48.127 44.2109 49.4258 44.2109 50.9297ZM33.9766 50.9297C33.9766 51.9193 34.123 52.7656 34.416 53.4687C34.7155 54.1654 35.1387 54.6927 35.6855 55.0508C36.2324 55.4089 36.8737 55.5911 37.6094 55.5977C38.3385 55.5911 38.9733 55.4089 39.5137 55.0508C40.0605 54.6862 40.4805 54.1556 40.7734 53.459C41.0729 52.7624 41.2227 51.9193 41.2227 50.9297C41.2227 49.9401 41.0729 49.097 40.7734 48.4004C40.4805 47.6973 40.0605 47.1667 39.5137 46.8086C38.9733 46.4505 38.3385 46.2682 37.6094 46.2617C36.8737 46.2682 36.2324 46.4505 35.6855 46.8086C35.1387 47.1667 34.7155 47.6973 34.416 48.4004C34.123 49.097 33.9766 49.9401 33.9766 50.9297ZM46.3203 43.8594H51.8672C52.9219 43.8594 53.8301 44.0482 54.5918 44.4258C55.3535 44.8034 55.9329 45.3405 56.3301 46.0371C56.7272 46.7272 56.9258 47.5378 56.9258 48.4687C56.9258 49.4323 56.7109 50.2591 56.2813 50.9492C55.8516 51.6393 55.2331 52.1569 54.4258 52.502L57.4336 58H54.1914L51.4863 52.9805H49.25V58H46.3203V43.8594ZM51.3203 50.5977C53.0521 50.5977 53.9115 49.888 53.8984 48.4687C53.9049 47.7526 53.6934 47.209 53.2637 46.8379C52.834 46.4603 52.1862 46.2682 51.3203 46.2617H49.25V50.5977H51.3203ZM58.957 43.8594L68.4492 43.8594V46.2812L61.8867 46.2812V49.7187H67.9609V52.1406H61.8867V55.5781H68.4688V58H58.957V43.8594ZM78.2734 58H75.3438V43.8594H78.2734V58ZM92.4531 58H89.9141L83.7031 49.0156H83.5859V58H80.6562V43.8594H83.2344L89.4062 52.8437H89.543V43.8594H92.4531V58ZM94.8359 43.8594H104.152V46.2812H97.7656V49.7187H103.547V52.1406H97.7656V58H94.8359V43.8594ZM119.035 50.9297C119.035 52.4336 118.749 53.7324 118.176 54.8262C117.603 55.9199 116.815 56.7565 115.812 57.3359C114.816 57.9089 113.69 58.1953 112.434 58.1953C111.171 58.1953 110.038 57.9089 109.035 57.3359C108.033 56.7565 107.245 55.9199 106.672 54.8262C106.099 53.7259 105.812 52.4271 105.812 50.9297C105.812 49.4258 106.099 48.127 106.672 47.0332C107.245 45.9395 108.033 45.1061 109.035 44.5332C110.038 43.9538 111.171 43.6641 112.434 43.6641C113.69 43.6641 114.816 43.9538 115.812 44.5332C116.815 45.1061 117.603 45.9395 118.176 47.0332C118.749 48.127 119.035 49.4258 119.035 50.9297ZM108.801 50.9297C108.801 51.9193 108.947 52.7656 109.24 53.4687C109.54 54.1654 109.963 54.6927 110.51 55.0508C111.057 55.4089 111.698 55.5911 112.434 55.5977C113.163 55.5911 113.798 55.4089 114.338 55.0508C114.885 54.6862 115.305 54.1556 115.598 53.459C115.897 52.7624 116.047 51.9193 116.047 50.9297C116.047 49.9401 115.897 49.097 115.598 48.4004C115.305 47.6973 114.885 47.1667 114.338 46.8086C113.798 46.4505 113.163 46.2682 112.434 46.2617C111.698 46.2682 111.057 46.4505 110.51 46.8086C109.963 47.1667 109.54 47.6973 109.24 48.4004C108.947 49.097 108.801 49.9401 108.801 50.9297ZM124.27 53.7617L121.77 53.7617L121.516 43.8594H124.523L124.27 53.7617ZM121.398 56.5352C121.392 56.2422 121.46 55.972 121.604 55.7246C121.753 55.4707 121.955 55.2721 122.209 55.1289C122.463 54.9857 122.74 54.9141 123.039 54.9141C123.326 54.9141 123.592 54.9857 123.84 55.1289C124.087 55.2721 124.286 55.4707 124.436 55.7246C124.585 55.972 124.66 56.2422 124.66 56.5352C124.66 56.8346 124.585 57.1113 124.436 57.3652C124.286 57.6126 124.087 57.8112 123.84 57.9609C123.592 58.1042 123.326 58.1758 123.039 58.1758C122.74 58.1758 122.463 58.1042 122.209 57.9609C121.955 57.8112 121.753 57.6126 121.604 57.3652C121.46 57.1113 121.392 56.8346 121.398 56.5352Z" fill="black" fill-opacity="0.8"/>
<path d="M50.917 117.9C50.917 122.54 49.577 126.16 46.897 128.76C44.217 131.32 39.837 132.6 33.757 132.6C31.637 132.6 29.597 132.4 27.637 132C25.717 131.56 24.017 131.08 22.537 130.56L23.797 121.38C25.517 122.02 27.277 122.5 29.077 122.82C30.877 123.14 32.537 123.22 34.057 123.06C35.577 122.9 36.797 122.42 37.717 121.62C38.677 120.82 39.157 119.62 39.157 118.02C39.157 116.54 38.697 115.44 37.777 114.72C36.857 114 35.657 113.54 34.177 113.34C32.737 113.14 31.157 113.08 29.437 113.16C27.757 113.24 26.157 113.32 24.637 113.4L24.637 88.8H50.197L48.097 99.6H35.317L35.317 105.36C36.237 105.28 37.177 105.24 38.137 105.24C41.937 105.24 45.017 106.24 47.377 108.24C49.737 110.24 50.917 113.46 50.917 117.9ZM70.8384 88.32C76.5184 88.32 80.6184 90.04 83.1384 93.48C85.6584 96.92 86.9184 102.48 86.9184 110.16C86.9184 117.84 85.6584 123.5 83.1384 127.14C80.6184 130.78 76.5184 132.6 70.8384 132.6C65.1584 132.6 61.0584 130.78 58.5384 127.14C56.0584 123.5 54.8184 117.84 54.8184 110.16C54.8184 102.48 56.0584 96.92 58.5384 93.48C61.0584 90.04 65.1584 88.32 70.8384 88.32ZM70.8384 123.3C72.0784 123.3 72.9584 122.22 73.4784 120.06C74.0384 117.86 74.3184 114.56 74.3184 110.16C74.3184 105.76 74.0384 102.58 73.4784 100.62C72.9584 98.62 72.0784 97.62 70.8384 97.62C69.5984 97.62 68.6984 98.62 68.1384 100.62C67.6184 102.58 67.3584 105.76 67.3584 110.16C67.3584 114.56 67.6184 117.86 68.1384 120.06C68.6984 122.22 69.5984 123.3 70.8384 123.3ZM102.084 138.18V132.24C99.9243 131.84 98.0243 131.02 96.3843 129.78C94.7443 128.5 93.4443 126.64 92.4843 124.2C91.5643 121.76 91.1043 118.6 91.1043 114.72C91.1043 113.04 91.3043 111.3 91.7043 109.5C92.1043 107.7 92.7443 105.98 93.6243 104.34C94.5043 102.66 95.6443 101.22 97.0443 100.02C98.4443 98.78 100.124 97.92 102.084 97.44V91.08H108.204V97.08C109.364 97.12 110.544 97.24 111.744 97.44C112.984 97.6 114.084 97.82 115.044 98.1V111.72H108.864L107.664 105.48C105.864 105.48 104.504 106.16 103.584 107.52C102.704 108.88 102.264 111.32 102.264 114.84C102.264 117.36 102.584 119.3 103.224 120.66C103.864 122.02 104.764 122.94 105.924 123.42C107.084 123.9 108.464 124.08 110.064 123.96C111.664 123.8 113.404 123.48 115.284 123V131.52C114.284 131.8 113.144 132.02 111.864 132.18C110.624 132.34 109.404 132.46 108.204 132.54V138.18H102.084Z" fill="black"/>
<mask id="path-5-inside-2_984_389" fill="white">
<path d="M0 161L138.5 161V227L0 227L0 161Z"/>
</mask>
<path d="M0 161L138.5 161V227L0 227L0 161Z" fill="#EEEEEE"/>
<path d="M138.5 227V230H141.5V227H138.5ZM0 227H-3L-3 230H0L0 227ZM138.5 161H135.5V227H138.5H141.5V161H138.5ZM138.5 227V224L0 224L0 227L0 230L138.5 230V227ZM0 227H3L3 161H0H-3L-3 227H0Z" fill="black" mask="url(#path-5-inside-2_984_389)"/>
<path d="M33.2734 201.807L40.8906 194.805C41.6426 194.082 42.2236 193.486 42.6338 193.018C43.0537 192.539 43.376 192.065 43.6006 191.597C43.8252 191.118 43.9375 190.605 43.9375 190.059C43.9375 189.443 43.791 188.906 43.498 188.447C43.2148 187.979 42.8145 187.622 42.2969 187.378C41.7891 187.134 41.2129 187.012 40.5684 187.012C39.5625 187.002 38.7617 187.295 38.166 187.891C37.5703 188.477 37.2773 189.277 37.2871 190.293H33.0977C33.0977 188.936 33.4102 187.744 34.0352 186.719C34.6699 185.684 35.5537 184.888 36.6865 184.331C37.8291 183.774 39.1426 183.496 40.627 183.496C42.1211 183.496 43.4395 183.765 44.582 184.302C45.7246 184.829 46.6084 185.566 47.2334 186.514C47.8682 187.461 48.1855 188.545 48.1855 189.766C48.1855 190.605 48.0244 191.411 47.7021 192.183C47.3799 192.944 46.8184 193.794 46.0176 194.731C45.2266 195.669 44.1035 196.797 42.6484 198.115L39.4258 201.25V201.367H48.4785V205H33.3027L33.2734 201.807ZM59.8457 205.293C58.0781 205.293 56.5547 204.868 55.2754 204.019C53.9961 203.159 53.0146 201.914 52.3311 200.283C51.6572 198.652 51.3203 196.689 51.3203 194.395C51.3203 192.109 51.6621 190.151 52.3457 188.521C53.0293 186.88 54.0107 185.635 55.29 184.785C56.5693 183.926 58.0879 183.496 59.8457 183.496C61.6035 183.496 63.1221 183.926 64.4014 184.785C65.6807 185.635 66.6621 186.88 67.3457 188.521C68.0293 190.151 68.3711 192.109 68.3711 194.395C68.3711 196.699 68.0293 198.667 67.3457 200.298C66.6621 201.929 65.6807 203.169 64.4014 204.019C63.1318 204.868 61.6133 205.293 59.8457 205.293ZM55.832 194.526C55.832 196.87 56.1885 198.647 56.9014 199.858C57.6143 201.06 58.5957 201.66 59.8457 201.66C61.1055 201.66 62.0918 201.05 62.8047 199.829C63.5176 198.599 63.8691 196.787 63.8594 194.395C63.8594 192.812 63.6982 191.479 63.376 190.396C63.0537 189.302 62.5898 188.481 61.9844 187.935C61.3789 187.388 60.666 187.109 59.8457 187.1C58.5859 187.109 57.5996 187.744 56.8867 189.004C56.1836 190.264 55.832 192.104 55.832 194.526ZM71.3887 201.807L79.0059 194.805C79.7578 194.082 80.3389 193.486 80.749 193.018C81.1689 192.539 81.4912 192.065 81.7158 191.597C81.9404 191.118 82.0527 190.605 82.0527 190.059C82.0527 189.443 81.9062 188.906 81.6133 188.447C81.3301 187.979 80.9297 187.622 80.4121 187.378C79.9043 187.134 79.3281 187.012 78.6836 187.012C77.6777 187.002 76.877 187.295 76.2812 187.891C75.6855 188.477 75.3926 189.277 75.4023 190.293H71.2129C71.2129 188.936 71.5254 187.744 72.1504 186.719C72.7852 185.684 73.6689 184.888 74.8018 184.331C75.9443 183.774 77.2578 183.496 78.7422 183.496C80.2363 183.496 81.5547 183.765 82.6973 184.302C83.8398 184.829 84.7236 185.566 85.3486 186.514C85.9834 187.461 86.3008 188.545 86.3008 189.766C86.3008 190.605 86.1396 191.411 85.8174 192.183C85.4951 192.944 84.9336 193.794 84.1328 194.731C83.3418 195.669 82.2188 196.797 80.7637 198.115L77.541 201.25V201.367H86.5938V205H71.418L71.3887 201.807ZM97.5215 205.293C96.0664 205.293 94.7529 205.024 93.5811 204.487C92.4189 203.95 91.501 203.208 90.8271 202.261C90.1533 201.304 89.8066 200.225 89.7871 199.023H94.0645C94.0938 199.561 94.2646 200.044 94.5771 200.474C94.8994 200.894 95.3145 201.221 95.8223 201.455C96.3398 201.689 96.9062 201.807 97.5215 201.807C98.2441 201.807 98.8887 201.65 99.4551 201.338C100.031 201.016 100.476 200.571 100.788 200.005C101.11 199.438 101.271 198.789 101.271 198.057C101.271 197.314 101.11 196.655 100.788 196.079C100.466 195.493 100.012 195.039 99.4258 194.717C98.8496 194.385 98.1953 194.219 97.4629 194.219C95.8711 194.219 94.7578 194.814 94.123 196.006H90.1387L91.2812 183.789H104.348V187.393H94.9141L94.3281 192.754H94.5039C94.8945 192.217 95.4756 191.787 96.2471 191.465C97.0186 191.133 97.8633 190.967 98.7812 190.967C100.061 190.967 101.213 191.265 102.238 191.86C103.273 192.456 104.084 193.286 104.67 194.351C105.256 195.415 105.549 196.611 105.549 197.939C105.549 199.355 105.212 200.625 104.538 201.748C103.864 202.861 102.917 203.73 101.696 204.355C100.485 204.98 99.0938 205.293 97.5215 205.293Z" fill="black" fill-opacity="0.8"/>
</svg>
