<svg width="191" height="390" viewBox="0 0 191 390" fill="none" xmlns="http://www.w3.org/2000/svg">
<g clip-path="url(#clip0_984_395)">
<rect width="191" height="390" transform="matrix(-1 0 0 1 191 0)" fill="#EEEEEE"/>
<path d="M115 20.293L150.4 20.293L150.4 22.093L115 22.093L115 20.293ZM115 25.693L150.4 25.693L150.4 27.493L115 27.493L115 25.693ZM115 29.293L150.4 29.293L150.4 32.893L115 32.893L115 29.293ZM115 40.0977L150.4 40.0977L150.4 41.8977L115 41.8977L115 40.0977ZM115 45.4977L150.4 45.4977L150.4 47.2977L115 47.2977L115 45.4977ZM115 49.0977L150.4 49.0977L150.4 52.6977L115 52.6977L115 49.0977ZM115 59.9023L150.4 59.9023L150.4 61.7023L115 61.7023L115 59.9023ZM115 63.5023L150.4 63.5023L150.4 70.7023L115 70.7023L115 63.5023ZM115 74.3023L150.4 74.3023L150.4 76.1023L115 76.1023L115 74.3023Z" fill="black"/>
<path d="M81 95.4687L140 95.4687L140 101.469L81 101.469L81 95.4687ZM81 107.469L140 107.469L140 116.469L81 116.469L81 107.469ZM81 122.469L140 122.469L140 125.469L81 125.469L81 122.469ZM51.2 105.369L54.2 108.369C56.2 110.369 57.8 111.869 59 112.869C60.1333 113.869 61.2667 114.669 62.4 115.269C63.4667 115.869 64.6333 116.169 65.9 116.169C67.3667 116.169 68.4333 115.835 69.1 115.169C69.7667 114.435 70.1 113.469 70.1 112.269C70.1 110.402 69.3333 108.835 67.8 107.569C67.4 107.302 67.0667 107.169 66.8 107.169C66.6 107.169 66.4667 107.169 66.4 107.169L66.2 106.969L66.4 106.769L67.9 104.869C69.3667 105.602 70.4667 106.602 71.2 107.869C72 109.135 72.4 110.602 72.4 112.269C72.4 114.202 71.8 115.802 70.6 117.069C69.4 118.269 67.8 118.869 65.8 118.869C64.4667 118.869 63.1667 118.535 61.9 117.869C60.6333 117.269 59.4333 116.469 58.3 115.469C57.1667 114.469 55.7 113.069 53.9 111.269L51.4 108.769L51.4 117.369C51.4 117.769 51.4 118.069 51.4 118.269C51.4667 118.402 51.5667 118.569 51.7 118.769L51.7 118.969L49.1 118.969L49.1 105.369L51.2 105.369ZM81 128.477L140 128.477L140 131.477L81 131.477L81 128.477ZM81 137.477L140 137.477L140 146.477L81 146.477L81 137.477ZM81 149.477L140 149.477L140 155.477L81 155.477L81 149.477ZM72.4 144.977C72.4 147.243 71.3667 149.01 69.3 150.277C67.1667 151.543 64.2667 152.177 60.6 152.177C56.8 152.177 53.8667 151.543 51.8 150.277C49.7333 149.077 48.7 147.31 48.7 144.977C48.7 142.643 49.7333 140.877 51.8 139.677C53.8667 138.41 56.8 137.777 60.6 137.777C64.2667 137.777 67.1667 138.41 69.3 139.677C71.3667 140.943 72.4 142.71 72.4 144.977ZM70.1 144.977C70.1 143.577 69.2667 142.477 67.6 141.677C65.8667 140.877 63.5333 140.477 60.6 140.477C58.9333 140.477 57.5 140.577 56.3 140.777L66.5 148.677C67.6333 148.343 68.5333 147.843 69.2 147.177C69.8 146.577 70.1 145.843 70.1 144.977ZM51 144.977C51 146.377 51.8 147.477 53.4 148.277C55.0667 149.077 57.4667 149.477 60.6 149.477C62 149.477 63.2333 149.377 64.3 149.177L54.2 141.377C52.0667 142.11 51 143.31 51 144.977ZM81 161.484L140 161.484L140 167.484L81 167.484L81 161.484ZM81 173.484L140 173.484L140 182.484L81 182.484L81 173.484ZM81 188.484L140 188.484L140 191.484L81 191.484L81 188.484ZM51.2 171.384L54.2 174.384C56.2 176.384 57.8 177.884 59 178.884C60.1333 179.884 61.2667 180.684 62.4 181.284C63.4667 181.884 64.6333 182.184 65.9 182.184C67.3667 182.184 68.4333 181.851 69.1 181.184C69.7667 180.451 70.1 179.484 70.1 178.284C70.1 176.418 69.3333 174.851 67.8 173.584C67.4 173.318 67.0667 173.184 66.8 173.184C66.6 173.184 66.4667 173.184 66.4 173.184L66.2 172.984L66.4 172.784L67.9 170.884C69.3667 171.618 70.4667 172.618 71.2 173.884C72 175.151 72.4 176.618 72.4 178.284C72.4 180.218 71.8 181.818 70.6 183.084C69.4 184.284 67.8 184.884 65.8 184.884C64.4667 184.884 63.1667 184.551 61.9 183.884C60.6333 183.284 59.4333 182.484 58.3 181.484C57.1667 180.484 55.7 179.084 53.9 177.284L51.4 174.784L51.4 183.384C51.4 183.784 51.4 184.084 51.4 184.284C51.4667 184.418 51.5667 184.584 51.7 184.784L51.7 184.984L49.1 184.984L49.1 171.384L51.2 171.384ZM81 194.492L140 194.492L140 200.492L81 200.492L81 194.492ZM81 203.492L140 203.492L140 212.492L81 212.492L81 203.492ZM81 218.492L140 218.492L140 221.492L81 221.492L81 218.492ZM48.7 210.992C48.7 209.526 49 208.192 49.6 206.992C50.2 205.792 51.1 204.826 52.3 204.092L54 206.492L53.9 206.592C53.6333 206.592 53.4 206.626 53.2 206.692C53.0667 206.759 52.8667 206.926 52.6 207.192C52 207.659 51.5667 208.226 51.3 208.892C51.1 209.492 51 210.226 51 211.092C51 211.892 51.2 212.626 51.6 213.292C52.0667 214.026 52.7333 214.592 53.6 214.992C54.4 215.392 55.3667 215.592 56.5 215.592C58.1667 215.592 59.5 215.126 60.5 214.192C61.5 213.326 62 212.192 62 210.792C62 210.059 61.8 209.292 61.4 208.492C61 207.759 60.4667 207.092 59.8 206.492L60.5 204.892L72.3 205.592L72.3 217.392L69.9 217.392L69.9 207.792L63.3 207.492C63.9 208.692 64.2 209.959 64.2 211.292C64.2 212.626 63.8667 213.792 63.2 214.792C62.6 215.859 61.7 216.692 60.5 217.292C59.3 217.892 57.9333 218.192 56.4 218.192C54.8 218.192 53.4333 217.892 52.3 217.292C51.1 216.626 50.2 215.759 49.6 214.692C49 213.559 48.7 212.326 48.7 210.992ZM81 227.5L140 227.5L140 230.5L81 230.5L81 227.5ZM81 236.5L140 236.5L140 245.5L81 245.5L81 236.5ZM81 248.5L140 248.5L140 254.5L81 254.5L81 248.5ZM72.4 244C72.4 246.267 71.3667 248.033 69.3 249.3C67.1667 250.567 64.2667 251.2 60.6 251.2C56.8 251.2 53.8667 250.567 51.8 249.3C49.7333 248.1 48.7 246.333 48.7 244C48.7 241.667 49.7333 239.9 51.8 238.7C53.8667 237.433 56.8 236.8 60.6 236.8C64.2667 236.8 67.1667 237.433 69.3 238.7C71.3667 239.967 72.4 241.733 72.4 244ZM70.1 244C70.1 242.6 69.2667 241.5 67.6 240.7C65.8667 239.9 63.5333 239.5 60.6 239.5C58.9333 239.5 57.5 239.6 56.3 239.8L66.5 247.7C67.6333 247.367 68.5333 246.867 69.2 246.2C69.8 245.6 70.1 244.867 70.1 244ZM51 244C51 245.4 51.8 246.5 53.4 247.3C55.0667 248.1 57.4667 248.5 60.6 248.5C62 248.5 63.2333 248.4 64.3 248.2L54.2 240.4C52.0667 241.133 51 242.333 51 244ZM81 260.508L140 260.508L140 266.508L81 266.508L81 260.508ZM81 272.508L140 272.508L140 275.508L81 275.508L81 272.508ZM81 281.508L140 281.508L140 290.508L81 290.508L81 281.508ZM54.8 279.508L54.8 269.508L56.7 269.508L72.3 280.108L72.3 282.308L56.9 282.308L56.9 285.208L54.8 285.208L54.8 282.308L49.1 282.308L49.1 279.508L54.8 279.508ZM57 279.508L67.6 279.508L57 272.508L57 279.508ZM81 293.516L140 293.516L140 296.516L81 296.516L81 293.516ZM81 302.516L140 302.516L140 311.516L81 311.516L81 302.516ZM81 314.516L140 314.516L140 320.516L81 320.516L81 314.516ZM72.4 310.016C72.4 312.282 71.3667 314.049 69.3 315.316C67.1667 316.582 64.2667 317.216 60.6 317.216C56.8 317.216 53.8667 316.582 51.8 315.316C49.7333 314.116 48.7 312.349 48.7 310.016C48.7 307.682 49.7333 305.916 51.8 304.716C53.8667 303.449 56.8 302.816 60.6 302.816C64.2667 302.816 67.1667 303.449 69.3 304.716C71.3667 305.982 72.4 307.749 72.4 310.016ZM70.1 310.016C70.1 308.616 69.2667 307.516 67.6 306.716C65.8667 305.916 63.5333 305.516 60.6 305.516C58.9333 305.516 57.5 305.616 56.3 305.816L66.5 313.716C67.6333 313.382 68.5333 312.882 69.2 312.216C69.8 311.616 70.1 310.882 70.1 310.016ZM51 310.016C51 311.416 51.8 312.516 53.4 313.316C55.0667 314.116 57.4667 314.516 60.6 314.516C62 314.516 63.2333 314.416 64.3 314.216L54.2 306.416C52.0667 307.149 51 308.349 51 310.016ZM81 326.523L140 326.523L140 332.523L81 332.523L81 326.523ZM81 338.523L140 338.523L140 347.523L81 347.523L81 338.523ZM81 353.523L140 353.523L140 356.523L81 356.523L81 353.523ZM51.2 336.423L54.2 339.423C56.2 341.423 57.8 342.923 59 343.923C60.1333 344.923 61.2667 345.723 62.4 346.323C63.4667 346.923 64.6333 347.223 65.9 347.223C67.3667 347.223 68.4333 346.89 69.1 346.223C69.7667 345.49 70.1 344.523 70.1 343.323C70.1 341.457 69.3333 339.89 67.8 338.623C67.4 338.357 67.0667 338.223 66.8 338.223C66.6 338.223 66.4667 338.223 66.4 338.223L66.2 338.023L66.4 337.823L67.9 335.923C69.3667 336.657 70.4667 337.657 71.2 338.923C72 340.19 72.4 341.657 72.4 343.323C72.4 345.257 71.8 346.857 70.6 348.123C69.4 349.323 67.8 349.923 65.8 349.923C64.4667 349.923 63.1667 349.59 61.9 348.923C60.6333 348.323 59.4333 347.523 58.3 346.523C57.1667 345.523 55.7 344.123 53.9 342.323L51.4 339.823L51.4 348.423C51.4 348.823 51.4 349.123 51.4 349.323C51.4667 349.457 51.5667 349.623 51.7 349.823L51.7 350.023L49.1 350.023L49.1 336.423L51.2 336.423Z" fill="black"/>
</g>
<rect x="-1.5" y="1.5" width="188" height="387" transform="matrix(-1 0 0 1 188 0)" stroke="black" stroke-width="3"/>
<defs>
<clipPath id="clip0_984_395">
<rect width="191" height="390" transform="matrix(-1 0 0 1 191 0)" fill="white"/>
</clipPath>
</defs>
</svg>
