<?xml version="1.0" encoding="UTF-8"?>
<svg id="_레이어_4" data-name="레이어 4" xmlns="http://www.w3.org/2000/svg" xmlns:xlink="http://www.w3.org/1999/xlink" viewBox="0 0 1863.79 1289">
  <defs>
    <style>
      .cls-1 {
        fill: #313831;
      }

      .cls-1, .cls-2, .cls-3, .cls-4, .cls-5, .cls-6, .cls-7, .cls-8, .cls-9, .cls-10, .cls-11, .cls-12 {
        stroke-width: 3px;
      }

      .cls-1, .cls-2, .cls-5, .cls-13, .cls-6, .cls-8, .cls-10, .cls-14, .cls-12 {
        stroke-miterlimit: 10;
      }

      .cls-1, .cls-9 {
        stroke: #000;
      }

      .cls-2, .cls-3, .cls-4, .cls-5, .cls-13, .cls-6, .cls-7, .cls-8, .cls-10, .cls-11, .cls-14, .cls-12 {
        stroke: #252625;
      }

      .cls-2, .cls-3, .cls-4, .cls-5, .cls-7, .cls-8, .cls-9, .cls-10, .cls-11, .cls-12 {
        stroke-linecap: round;
      }

      .cls-2, .cls-13, .cls-6, .cls-11 {
        fill: none;
      }

      .cls-3 {
        fill: #999;
      }

      .cls-3, .cls-4, .cls-7, .cls-9, .cls-11 {
        stroke-linejoin: round;
      }

      .cls-15 {
        fill: #fff992;
      }

      .cls-15, .cls-16 {
        stroke-width: 0px;
      }

      .cls-4 {
        fill: #c1272d;
      }

      .cls-5 {
        fill: #737f7e;
      }

      .cls-16 {
        fill: #4f7889;
      }

      .cls-17 {
        clip-path: url(#clippath);
      }

      .cls-7, .cls-9 {
        fill: #c0dabe;
      }

      .cls-8 {
        fill: #7c7a71;
      }

      .cls-10 {
        fill: #dbdacc;
      }

      .cls-14 {
        fill: #8e8e8e;
        opacity: .5;
      }

      .cls-12 {
        fill: url(#_무제_그라디언트_122);
      }
    </style>
    <linearGradient id="_무제_그라디언트_122" data-name="무제 그라디언트 122" x1="1405" y1="1268.5" x2="1405" y2="961.5" gradientUnits="userSpaceOnUse">
      <stop offset="0" stop-color="#a8b1b3"/>
      <stop offset=".25" stop-color="#a1aaac"/>
      <stop offset=".6" stop-color="#8f999a"/>
      <stop offset=".99" stop-color="#737f7e"/>
      <stop offset="1" stop-color="#2f4461"/>
    </linearGradient>
    <clipPath id="clippath">
      <ellipse class="cls-13" cx="1408" cy="1236.5" rx="178" ry="43.5"/>
    </clipPath>
  </defs>
  <g>
    <path class="cls-16" d="M1347.67,953c.38,3.1.83,6.39,2.82,8.79,2.92,3.53,8.06,3.99,12.63,4.19,28.18,1.23,56.35,2.46,84.53,3.69,2.43.11,5.16.11,6.9-1.59,1.42-1.38,1.76-3.5,2.03-5.47,1.67-12.34-.13-29.14,3.43-41.62,1.07-3.74,8,0,10-7,1.14-3.98-.75-9.21-3-11-1.34-1.07-3.42-3.97-5.13-3.81-8.6.79-30.76.92-33.36.97-12.4.26-24.81.22-37.21-.13s-24.79-1.01-37.16-1.96c-10.19-.78-18.14,4.21-18.14,13.92,0,6,7.56,7.06,8,9,2.67,11.77,2.23,20.18,3.67,32Z"/>
    <path class="cls-11" d="M1339.21,903.88c-2.74,1.6-4.35,4.94-3.9,8.08s2.94,5.89,6.02,6.65c5.58,1.38,10.61,0,16.12-1.65s11.06-3.67,16.8-3.47"/>
    <path class="cls-11" d="M1469.07,904.32c1.91,2.15,2.77,5.2,2.26,8.03-.87,4.83-5.32,7.36-10.04,7.08-4.82-.28-9.5-2.33-14.08-3.67-5.09-1.49-10.34-2.48-15.62-2.94"/>
  </g>
  <ellipse class="cls-3" cx="1394" cy="989" rx="120.5" ry="38.5"/>
  <g>
    <path class="cls-16" d="M1333.76,945.03c.12,8.78,3.54,17.48,9.42,24,3.1-8.88,10.03-16.34,18.66-20.07-3.36-6.97-4.72-14.89-3.87-22.58.14-1.27.31-2.67-.43-3.71-.88-1.25-2.62-1.42-4.14-1.48-2.94-.12-5.9-.34-8.85-.36-2.21-.02-2.93.89-4.18,2.68-2.81,4.03-4.79,8.62-5.82,13.42-.57,2.67-.83,5.38-.81,8.11Z"/>
    <path class="cls-11" d="M1343.04,968.88c-3.04-2.67-4.83-6.48-6.13-10.32-2.13-6.3-3.15-13.04-2.39-19.65s3.37-13.08,7.84-18"/>
    <path class="cls-11" d="M1357.97,925.43c-1.39,7.86-.1,16.17,3.59,23.24"/>
    <g>
      <rect class="cls-3" x="1368.28" y="945.68" width="18.61" height="7" transform="translate(-282.56 1155.57) rotate(-41.65)"/>
      <circle class="cls-4" cx="1386.49" cy="939.59" r="8"/>
    </g>
    <path class="cls-7" d="M1356.96,946.7c-4.86,1.65-8.55,5.72-11.09,10.17-1.88,3.28-3.27,7.01-2.93,10.78.54,5.96,5.67,10.97,11.54,12.13s12.12-1.18,16.41-5.34c2.53-2.45,4.5-5.63,4.84-9.14.52-5.41-3.02-10.92-5.74-15.3-2.51-4.03-8.96-4.68-13.02-3.3Z"/>
  </g>
  <g>
    <path class="cls-16" d="M1461.2,948.53c-2.74,8.34-8.6,15.62-16.17,20.09-.3-9.4-4.69-18.59-11.81-24.73,5.29-5.65,8.95-12.8,10.44-20.4.25-1.25.5-2.64,1.52-3.42,1.21-.93,2.92-.57,4.39-.18,2.85.77,5.73,1.44,8.55,2.3,2.12.64,2.53,1.72,3.19,3.81,1.48,4.68,1.99,9.66,1.54,14.55-.25,2.71-.81,5.38-1.65,7.98Z"/>
    <path class="cls-11" d="M1445.21,967.52c3.7-1.64,6.55-4.74,8.93-8.01,3.92-5.38,6.9-11.5,8.15-18.04,1.25-6.53.69-13.48-2.1-19.52"/>
    <path class="cls-11" d="M1443.95,922.6c-1.02,7.91-4.73,15.46-10.38,21.1"/>
    <g>
      <rect class="cls-3" x="1408.81" y="940.77" width="18.61" height="7" transform="translate(1636.1 2634) rotate(-131.01)"/>
      <circle class="cls-4" cx="1410.5" cy="933.61" r="8"/>
    </g>
    <path class="cls-7" d="M1438.56,943.2c4.14,3.02,6.45,8.01,7.55,13.02.81,3.7,1.03,7.67-.43,11.16-2.3,5.53-8.69,8.77-14.64,8.12s-11.21-4.75-14.07-10c-1.68-3.09-2.61-6.72-1.88-10.17,1.12-5.32,6.14-9.52,10.05-12.88,3.6-3.1,9.95-1.78,13.41.75Z"/>
  </g>
  <g>
    <g>
      <path class="cls-9" d="M1418.78,744.56c.46-.5.92-1.01,1.37-1.51,8.27-9.01,19.59-15.16,31.64-17.24.9-.15,1.8.16,2.5.74,2.87,2.37,7.24,2.86,10.5,1.02,3.67-2.07,5.55-6.86,4.26-10.86s-5.61-6.81-9.79-6.35c-4.81.53-8.35,4.69-10.32,9.19-.37.84-1.09,1.45-1.97,1.69-9.11,2.51-17.77,6.63-25.5,12.07-4.07,2.86-7.88,6.09-11.36,9.64-.37.38-.78.75-1.16,1.11-1.48-.04-2.96-.06-4.45-.06-76.49,0-135,45.28-135,92.5s59.51,74,136,74,134-24.78,134-72c0-44.23-51.34-88.52-120.72-93.94Z"/>
      <path class="cls-1" d="M1513.24,827.29c10.91,11.59,3.82,35.99-15.84,54.5-19.66,18.51-44.9,19.71-55.35,12.52-13.12-9.02-3.82-35.99,15.84-54.5,19.66-18.51,44.44-24.11,55.35-12.52Z"/>
      <path class="cls-1" d="M1294.05,826.16c-10.91,11.59-3.82,35.99,15.84,54.5,19.66,18.51,44.9,19.71,55.35,12.52,13.12-9.02,3.82-35.99-15.84-54.5-19.66-18.51-44.44-24.11-55.35-12.52Z"/>
    </g>
    <g>
      <path class="cls-11" d="M1418.78,744.56c.46-.5.92-1.01,1.37-1.51,8.27-9.01,19.59-15.16,31.64-17.24.9-.15,1.8.16,2.5.74,2.87,2.37,7.24,2.86,10.5,1.02,3.67-2.07,5.55-6.86,4.26-10.86s-5.61-6.81-9.79-6.35c-4.81.53-8.35,4.69-10.32,9.19-.37.84-1.09,1.45-1.97,1.69-9.11,2.51-17.77,6.63-25.5,12.07-4.07,2.86-7.88,6.09-11.36,9.64-.37.38-.78.75-1.16,1.11-1.48-.04-2.96-.06-4.45-.06-76.49,0-135,45.28-135,92.5s59.51,74,136,74,134-24.78,134-72c0-44.23-51.34-88.52-120.72-93.94Z"/>
      <path class="cls-11" d="M1513.24,827.29c10.91,11.59,3.82,35.99-15.84,54.5-19.66,18.51-44.9,19.71-55.35,12.52-13.12-9.02-3.82-35.99,15.84-54.5,19.66-18.51,44.44-24.11,55.35-12.52Z"/>
      <path class="cls-11" d="M1294.05,826.16c-10.91,11.59-3.82,35.99,15.84,54.5,19.66,18.51,44.9,19.71,55.35,12.52,13.12-9.02,3.82-35.99-15.84-54.5-19.66-18.51-44.44-24.11-55.35-12.52Z"/>
    </g>
  </g>
  <g>
    <ellipse class="cls-14" cx="1403.5" cy="982" rx="148" ry="65.5"/>
    <ellipse class="cls-6" cx="1403.5" cy="982" rx="148" ry="65.5"/>
  </g>
  <g>
    <ellipse class="cls-12" cx="1405" cy="1115" rx="457" ry="153.5"/>
    <line class="cls-11" x1="1404.85" y1="981.64" x2="1404.85" y2="1126.74"/>
    <path class="cls-11" d="M977.55,1104.96c50.92,53.02,121.37,86.84,194.59,93.41"/>
    <path class="cls-11" d="M1827.87,1106.65c-50.92,53.02-121.37,86.84-194.59,93.41"/>
  </g>
  <g>
    <path class="cls-5" d="M1599.5,1237.15c2.16-8.35,3.7-16.86,4.61-25.44.76-7.22,2.66-16.13-1.1-22.7-4-6-9-10-15-14-26-14-53-19-81-24-61-9-119-10-180-3-38,5-74,9-108,29-2.54,1.81-6.49,3.83-8.23,6.41-2.33,3.45-1.83,8.9-1.48,12.8,1.24,13.84,4.45,27.5,9.5,40.45,126.27-18.38,254.31-16.95,380.71.49Z"/>
    <ellipse class="cls-10" cx="1409" cy="1234.84" rx="190.5" ry="52.66"/>
    <ellipse class="cls-8" cx="1408.5" cy="1235" rx="178" ry="43.5"/>
    <g>
      <g class="cls-17">
        <circle class="cls-15" cx="1404.5" cy="1164.5" r="102.5"/>
      </g>
      <ellipse class="cls-13" cx="1408" cy="1236.5" rx="178" ry="43.5"/>
    </g>
    <path class="cls-2" d="M1405,1144.06v36.94"/>
    <path class="cls-2" d="M1570.96,1167.22c-2.2,11.88-4.39,23.75-6.59,35.63"/>
    <path class="cls-2" d="M1254.54,1161.37l8.02,39.37"/>
  </g>
</svg>