<svg width="84" height="84" viewBox="0 0 84 84" fill="none" xmlns="http://www.w3.org/2000/svg">
<path d="M82 7.1592H83V6.1592V2V1H82H77.2841H76.2841V2C76.2841 3.37929 75.1889 4.4696 73.864 4.4696C72.5392 4.4696 71.444 3.37929 71.444 2V1H70.444H66.6628H65.6628V2C65.6628 3.37929 64.5675 4.4696 63.2427 4.4696C61.9179 4.4696 60.8226 3.37929 60.8226 2V1H59.8226H56.0414H55.0414V2C55.0414 3.37929 53.9462 4.4696 52.6213 4.4696C51.2965 4.4696 50.2013 3.37929 50.2013 2V1H49.2013H45.4201H44.4201V2C44.4201 3.37929 43.3248 4.4696 42 4.4696C40.6752 4.4696 39.5799 3.37929 39.5799 2V1H38.5799H34.7987H33.7987V2C33.7987 3.37929 32.7035 4.4696 31.3786 4.4696C30.0538 4.4696 28.9586 3.37929 28.9586 2V1H27.9586H24.1774H23.1774V2C23.1774 3.37929 22.0821 4.4696 20.7573 4.4696C19.4325 4.4696 18.3372 3.37929 18.3372 2V1H17.3372H13.556H12.556V2C12.556 3.37929 11.4608 4.4696 10.136 4.4696C8.81114 4.4696 7.71588 3.37929 7.71588 2V1H6.71588H2H1V2V6.1592V7.1592H2C3.3205 7.1592 4.42008 8.25053 4.42008 9.6288C4.42008 11.0007 3.32151 12.093 2 12.093H1V13.093V16.9343V17.9343H2C3.32151 17.9343 4.42008 19.0267 4.42008 20.3985C4.42008 21.7768 3.3205 22.8681 2 22.8681H1V23.8681V27.7095V28.7095H2C3.32151 28.7095 4.42008 29.8018 4.42008 31.1737C4.42008 32.552 3.3205 33.6433 2 33.6433H1V34.6433V38.4846V39.4846H2C3.32151 39.4846 4.42008 40.577 4.42008 41.9488C4.42008 43.3271 3.3205 44.4184 2 44.4184H1V45.4184V49.2598V50.2598H2C3.32151 50.2598 4.42008 51.3521 4.42008 52.724C4.42008 54.1022 3.3205 55.1936 2 55.1936H1V56.1936V60.0349V61.0349H2C3.32151 61.0349 4.42008 62.1272 4.42008 63.4991C4.42008 64.8774 3.3205 65.9687 2 65.9687H1V66.9687V70.81V71.81H2C3.30037 71.81 4.38092 72.8647 4.41509 74.1975L4.41685 74.2662L4.42005 74.2856C4.414 75.6585 3.31685 76.7438 2 76.7438H1V77.7438V81.5852V82V83H2H3.61976H6.71588H7.71588V82C7.71588 80.6207 8.81114 79.5304 10.136 79.5304C11.4608 79.5304 12.556 80.6207 12.556 82V83H13.556H17.3372H18.3372V82C18.3372 80.6207 19.4325 79.5304 20.7573 79.5304C22.0821 79.5304 23.1774 80.6207 23.1774 82V83H24.1774H27.9586H28.9586V82C28.9586 80.6207 30.0538 79.5304 31.3786 79.5304C32.7035 79.5304 33.7987 80.6207 33.7987 82V83H34.7987H38.5799H39.5799V82C39.5799 80.6207 40.6752 79.5304 42 79.5304C43.3248 79.5304 44.4201 80.6207 44.4201 82V83H45.4201H49.2013H50.2013V82C50.2013 80.6207 51.2965 79.5304 52.6213 79.5304C53.9462 79.5304 55.0414 80.6207 55.0414 82V83H56.0414H59.8226H60.8226V82C60.8226 80.6207 61.9179 79.5304 63.2427 79.5304C64.5675 79.5304 65.6628 80.6207 65.6628 82V83H66.6628H70.444H71.444V82C71.444 80.6207 72.5392 79.5304 73.864 79.5304C75.1889 79.5304 76.2841 80.6207 76.2841 82V83H77.2841H80.3802H82H83V82V81.5852V77.7438V76.7438H82C80.6788 76.7438 79.5859 75.6595 79.5799 74.2856L79.5831 74.2662L79.5849 74.1975C79.6191 72.8637 80.6953 71.81 82 71.81H83V70.81V66.9687V65.9687H82C80.6752 65.9687 79.5799 64.8784 79.5799 63.4991C79.5799 62.1262 80.6742 61.0349 82 61.0349H83V60.0349V56.1936V55.1936H82C80.6752 55.1936 79.5799 54.1032 79.5799 52.724C79.5799 51.3511 80.6742 50.2598 82 50.2598H83V49.2598V45.4184V44.4184H82C80.6752 44.4184 79.5799 43.3281 79.5799 41.9488C79.5799 40.5759 80.6742 39.4846 82 39.4846H83V38.4846V34.6433V33.6433H82C80.6752 33.6433 79.5799 32.553 79.5799 31.1737C79.5799 29.8008 80.6742 28.7095 82 28.7095H83V27.7095V23.8681V22.8681H82C80.6752 22.8681 79.5799 21.7778 79.5799 20.3985C79.5799 19.0257 80.6742 17.9343 82 17.9343H83V16.9343V13.093V12.093H82C80.6742 12.093 79.5799 11.0017 79.5799 9.6288C79.5799 8.24951 80.6752 7.1592 82 7.1592Z" fill="#EEEEEE" stroke="black" stroke-width="2"/>
<path fill-rule="evenodd" clip-rule="evenodd" d="M25.7143 32.5C24.2152 32.5 23 33.7152 23 35.2143C23 36.7133 24.2152 37.9286 25.7143 37.9286H58.2857C59.7848 37.9286 61 36.7133 61 35.2143C61 33.7152 59.7848 32.5 58.2857 32.5H25.7143ZM25.7143 46.0714C24.2152 46.0714 23 47.2867 23 48.7857C23 50.2848 24.2152 51.5 25.7143 51.5H58.2857C59.7848 51.5 61 50.2848 61 48.7857C61 47.2867 59.7848 46.0714 58.2857 46.0714H25.7143Z" fill="black"/>
</svg>
