<svg width="60" height="60" viewBox="0 0 60 60" fill="none" xmlns="http://www.w3.org/2000/svg">
<g clip-path="url(#clip0_1083_42)">
<path d="M10.625 4.83609e-06H49.375C50.7707 -0.00134432 52.1529 0.279605 53.4426 0.826775C54.7322 1.37394 55.9041 2.17659 56.8909 3.18878C57.8778 4.20097 58.6604 5.40283 59.1939 6.72558C59.7274 8.04832 60.0013 9.46599 60 10.8974V49.1026C60.0013 50.534 59.7274 51.9517 59.1939 53.2744C58.6604 54.5972 57.8778 55.799 56.8909 56.8112C55.9041 57.8234 54.7322 58.6261 53.4426 59.1732C52.1529 59.7204 50.7707 60.0013 49.375 60H10.625C9.22934 60.0013 7.84712 59.7204 6.55744 59.1732C5.26776 58.6261 4.09595 57.8234 3.10906 56.8112C2.12218 55.799 1.3396 54.5972 0.806106 53.2744C0.272615 51.9517 -0.00131071 50.534 4.71519e-06 49.1026V10.8974C-0.00131071 9.46599 0.272615 8.04832 0.806106 6.72558C1.3396 5.40283 2.12218 4.20097 3.10906 3.18878C4.09595 2.17659 5.26776 1.37394 6.55744 0.826775C7.84712 0.279605 9.22934 -0.00134432 10.625 4.83609e-06V4.83609e-06Z" fill="#001E36"/>
<path d="M13.5 42.0774V15.6927C13.5 15.5132 13.575 15.4107 13.75 15.4107C14.175 15.4107 14.575 15.4107 15.15 15.385C15.725 15.3594 16.375 15.3594 17.05 15.3338C17.725 15.3081 18.45 15.3081 19.225 15.2825C20 15.2568 20.75 15.2568 21.5 15.2568C23.55 15.2568 25.25 15.5132 26.65 16.0517C27.905 16.4888 29.0494 17.2071 30 18.1543C30.8056 18.9832 31.428 19.9801 31.825 21.0773C32.2034 22.1459 32.398 23.2738 32.4 24.4107C32.4 26.6158 31.9 28.4363 30.9 29.8722C29.8954 31.3062 28.4927 32.3963 26.875 33.0004C25.175 33.6415 23.3 33.8722 21.25 33.8722C20.65 33.8722 20.25 33.8722 20 33.8466C19.75 33.8209 19.4 33.8209 18.925 33.8209V42.0517C18.9306 42.0939 18.9278 42.1368 18.9169 42.1779C18.9061 42.219 18.8872 42.2574 18.8616 42.2909C18.8359 42.3244 18.804 42.3522 18.7676 42.3728C18.7313 42.3934 18.6913 42.4063 18.65 42.4107H13.8C13.6 42.4107 13.5 42.3081 13.5 42.0774ZM18.95 20.3594V28.9748C19.3 29.0004 19.625 29.0261 19.925 29.0261H21.25C22.226 29.0273 23.1961 28.8715 24.125 28.5645C24.922 28.3241 25.634 27.8521 26.175 27.2056C26.7 26.5645 26.95 25.6927 26.95 24.5645C26.9735 23.7633 26.7741 22.9717 26.375 22.2825C25.9582 21.6167 25.3451 21.1047 24.625 20.8209C23.6865 20.4439 22.6822 20.2694 21.675 20.3081C21.025 20.3081 20.45 20.3081 19.975 20.3338C19.6333 20.3108 19.2902 20.3194 18.95 20.3594V20.3594Z" fill="#31A8FF"/>
<path d="M48 27.4111C47.2452 27.0033 46.4368 26.7097 45.6 26.5393C44.681 26.3258 43.7423 26.2141 42.8 26.206C42.2941 26.1881 41.7884 26.2486 41.3 26.3854C40.9886 26.4519 40.7124 26.6347 40.525 26.8983C40.3987 27.1063 40.3296 27.3455 40.325 27.5906C40.3366 27.8345 40.4243 28.0682 40.575 28.2572C40.812 28.5423 41.1006 28.7774 41.425 28.9495C42 29.2572 42.6 29.5393 43.2 29.7957C44.5507 30.2621 45.843 30.8903 47.05 31.6675C47.871 32.197 48.5499 32.9285 49.025 33.7957C49.4267 34.6137 49.6243 35.5212 49.6 36.4367C49.6203 37.6487 49.2802 38.8382 48.625 39.847C47.9277 40.8705 46.9547 41.6635 45.825 42.129C44.6 42.6675 43.1 42.9495 41.3 42.9495C40.1587 42.9543 39.0198 42.8426 37.9 42.6162C37.0183 42.4599 36.1608 42.184 35.35 41.7957C35.2628 41.7508 35.1904 41.6808 35.1415 41.5943C35.0926 41.5077 35.0695 41.4084 35.075 41.3085V36.847C35.0728 36.8032 35.0808 36.7594 35.0981 36.7193C35.1155 36.6793 35.1418 36.6439 35.175 36.6162C35.2102 36.5952 35.2511 36.5863 35.2916 36.5909C35.3322 36.5955 35.3701 36.6134 35.4 36.6418C36.363 37.2241 37.409 37.6481 38.5 37.8983C39.4633 38.1553 40.4547 38.2846 41.45 38.2829C42.4 38.2829 43.075 38.1547 43.525 37.9239C43.7257 37.8288 43.8958 37.677 44.0154 37.4862C44.1349 37.2955 44.199 37.0737 44.2 36.847C44.2 36.488 44 36.1547 43.6 35.8213C43.2 35.488 42.375 35.1034 41.15 34.6162C39.8933 34.162 38.6999 33.5414 37.6 32.7701C36.8166 32.1974 36.1676 31.4529 35.7 30.5906C35.301 29.7807 35.1035 28.8823 35.125 27.9752C35.1287 26.8811 35.4225 25.8086 35.975 24.8726C36.6101 23.8433 37.5217 23.0241 38.6 22.5136C39.775 21.8983 41.25 21.6162 43.025 21.6162C44.0624 21.6165 45.0984 21.6936 46.125 21.847C46.8631 21.9494 47.5856 22.1476 48.275 22.4367C48.3849 22.4767 48.4748 22.5596 48.525 22.6675C48.5538 22.7676 48.5706 22.8709 48.575 22.9752V27.1547C48.5754 27.2045 48.5643 27.2537 48.5426 27.2983C48.5208 27.3429 48.4891 27.3815 48.45 27.4111C48.3046 27.4647 48.1454 27.4647 48 27.4111Z" fill="#31A8FF"/>
</g>
<defs>
<clipPath id="clip0_1083_42">
<rect width="60" height="60" fill="white"/>
</clipPath>
</defs>
</svg>
