<svg width="1746" height="997" viewBox="0 0 1746 997" fill="none" xmlns="http://www.w3.org/2000/svg">
<circle cx="1.5" cy="1.5" r="1.5" transform="matrix(-1 0 0 1 354 6)" fill="white"/>
<circle cx="1.5" cy="1.5" r="1.5" transform="matrix(-1 0 0 1 1546 180)" fill="white"/>
<circle cx="1.5" cy="1.5" r="1.5" transform="matrix(-1 0 0 1 1490 241)" fill="white"/>
<circle cx="1.5" cy="1.5" r="1.5" transform="matrix(-1 0 0 1 1653 496)" fill="white"/>
<circle cx="1.5" cy="1.5" r="1.5" transform="matrix(-1 0 0 1 956 419)" fill="white"/>
<circle cx="1.5" cy="1.5" r="1.5" transform="matrix(-1 0 0 1 573 183)" fill="white"/>
<circle cx="1.5" cy="1.5" r="1.5" transform="matrix(-1 0 0 1 466 420)" fill="white"/>
<circle cx="1.5" cy="1.5" r="1.5" transform="matrix(-1 0 0 1 906 165)" fill="white"/>
<circle cx="1.5" cy="1.5" r="1.5" transform="matrix(-1 0 0 1 90 429)" fill="white"/>
<circle cx="1.5" cy="1.5" r="1.5" transform="matrix(-1 0 0 1 1361 150)" fill="white" fill-opacity="0.5"/>
<circle cx="1.5" cy="1.5" r="1.5" transform="matrix(-1 0 0 1 1723 305)" fill="white" fill-opacity="0.5"/>
<circle cx="1.5" cy="1.5" r="1.5" transform="matrix(-1 0 0 1 123 244)" fill="white" fill-opacity="0.5"/>
<circle cx="1.5" cy="1.5" r="1.5" transform="matrix(-1 0 0 1 754 308)" fill="white" fill-opacity="0.5"/>
<circle cx="1.5" cy="1.5" r="1.5" transform="matrix(-1 0 0 1 1075 167)" fill="white" fill-opacity="0.5"/>
<circle cx="1.5" cy="1.5" r="1.5" transform="matrix(-1 0 0 1 3 213)" fill="white" fill-opacity="0.5"/>
<circle cx="1.5" cy="1.5" r="1.5" transform="matrix(-1 0 0 1 1623 147)" fill="white" fill-opacity="0.2"/>
<circle cx="1.5" cy="1.5" r="1.5" transform="matrix(-1 0 0 1 386 311)" fill="white" fill-opacity="0.2"/>
<circle cx="1.5" cy="1.5" r="1.5" transform="matrix(-1 0 0 1 149 3)" fill="white" fill-opacity="0.2"/>
<circle cx="1.5" cy="1.5" r="1.5" transform="matrix(-1 0 0 1 1746 0)" fill="white" fill-opacity="0.2"/>
<circle cx="1.5" cy="1.5" r="1.5" transform="matrix(1 0 0 -1 1392 991)" fill="white" fill-opacity="0.5"/>
<circle cx="1.5" cy="1.5" r="1.5" transform="matrix(1 0 0 -1 200 817)" fill="white" fill-opacity="0.5"/>
<circle cx="1.5" cy="1.5" r="1.5" transform="matrix(1 0 0 -1 256 756)" fill="white" fill-opacity="0.5"/>
<circle cx="1.5" cy="1.5" r="1.5" transform="matrix(1 0 0 -1 93 501)" fill="white" fill-opacity="0.5"/>
<circle cx="1.5" cy="1.5" r="1.5" transform="matrix(1 0 0 -1 790 578)" fill="white" fill-opacity="0.5"/>
<circle cx="1.5" cy="1.5" r="1.5" transform="matrix(1 0 0 -1 1173 814)" fill="white" fill-opacity="0.5"/>
<circle cx="1.5" cy="1.5" r="1.5" transform="matrix(1 0 0 -1 1280 577)" fill="white" fill-opacity="0.5"/>
<circle cx="1.5" cy="1.5" r="1.5" transform="matrix(1 0 0 -1 840 832)" fill="white" fill-opacity="0.5"/>
<circle cx="1.5" cy="1.5" r="1.5" transform="matrix(1 0 0 -1 1656 568)" fill="white" fill-opacity="0.5"/>
<circle cx="1.5" cy="1.5" r="1.5" transform="matrix(1 0 0 -1 385 847)" fill="white" fill-opacity="0.3"/>
<circle cx="1.5" cy="1.5" r="1.5" transform="matrix(1 0 0 -1 23 692)" fill="white" fill-opacity="0.3"/>
<circle cx="1.5" cy="1.5" r="1.5" transform="matrix(1 0 0 -1 1623 753)" fill="white" fill-opacity="0.3"/>
<circle cx="1.5" cy="1.5" r="1.5" transform="matrix(1 0 0 -1 992 689)" fill="white" fill-opacity="0.3"/>
<circle cx="1.5" cy="1.5" r="1.5" transform="matrix(1 0 0 -1 671 830)" fill="white" fill-opacity="0.3"/>
<circle cx="1.5" cy="1.5" r="1.5" transform="matrix(1 0 0 -1 1743 784)" fill="white" fill-opacity="0.3"/>
<circle cx="1.5" cy="1.5" r="1.5" transform="matrix(1 0 0 -1 123 850)" fill="white" fill-opacity="0.1"/>
<circle cx="1.5" cy="1.5" r="1.5" transform="matrix(1 0 0 -1 1360 686)" fill="white" fill-opacity="0.1"/>
<circle cx="1.5" cy="1.5" r="1.5" transform="matrix(1 0 0 -1 1597 994)" fill="white" fill-opacity="0.1"/>
<circle cx="1.5" cy="1.5" r="1.5" transform="matrix(1 0 0 -1 0 997)" fill="white" fill-opacity="0.1"/>
</svg>
