<svg width="52" height="52" viewBox="0 0 52 52" fill="none" xmlns="http://www.w3.org/2000/svg">
<g filter="url(#filter0_d_1333_3463)">
<path d="M19.6375 25C19.6375 25.7042 19.7762 26.4015 20.0456 27.0521C20.3151 27.7027 20.7101 28.2939 21.2081 28.7918C21.706 29.2898 22.2972 29.6848 22.9478 29.9543C23.5984 30.2237 24.2957 30.3625 25 30.3625C25.7042 30.3625 26.4015 30.2237 27.0521 29.9543C27.7027 29.6848 28.2939 29.2898 28.7918 28.7918C29.2898 28.2939 29.6848 27.7027 29.9543 27.0521C30.2237 26.4015 30.3625 25.7042 30.3625 25C30.3625 24.2957 30.2237 23.5984 29.9543 22.9478C29.6848 22.2972 29.2898 21.706 28.7918 21.2081C28.2939 20.7101 27.7027 20.3151 27.0521 20.0456C26.4015 19.7762 25.7042 19.6375 25 19.6375C24.2957 19.6375 23.5984 19.7762 22.9478 20.0456C22.2972 20.3151 21.706 20.7101 21.2081 21.2081C20.7101 21.706 20.3151 22.2972 20.0456 22.9478C19.7762 23.5984 19.6375 24.2957 19.6375 25Z" stroke="#D771FF" stroke-width="3" stroke-miterlimit="10"/>
<path d="M30.3625 17.8375V29.0875C30.3625 29.918 30.6924 30.7144 31.2797 31.3017C31.8669 31.8889 32.6633 32.2188 33.4938 32.2188C34.0677 32.2245 34.6318 32.0695 35.1222 31.7713C35.6127 31.4731 36.0098 31.0435 36.2688 30.5313C37.3098 28.3968 37.7196 26.0095 37.45 23.65C37.152 21.0495 36.0479 18.6074 34.2925 16.6657C32.537 14.7241 30.2182 13.3803 27.6607 12.8225C25.1033 12.2648 22.4355 12.521 20.031 13.5554C17.6265 14.5897 15.6058 16.3504 14.252 18.5907C12.8983 20.831 12.2792 23.4386 12.4817 26.0483C12.6841 28.658 13.6979 31.139 15.3809 33.1437C17.064 35.1484 19.332 36.5764 21.8673 37.2276C24.4025 37.8788 27.078 37.7205 29.5188 36.775" stroke="#D771FF" stroke-width="3" stroke-miterlimit="10"/>
<path d="M12.475 5.3125H37.525C37.525 5.3125 44.6875 5.3125 44.6875 12.475V37.525C44.6875 37.525 44.6875 44.6875 37.525 44.6875H12.475C12.475 44.6875 5.3125 44.6875 5.3125 37.525V12.475C5.3125 12.475 5.3125 5.3125 12.475 5.3125Z" stroke="#D771FF" stroke-width="3" stroke-miterlimit="10"/>
</g>
<defs>
<filter id="filter0_d_1333_3463" x="-2" y="-2" width="56" height="56" filterUnits="userSpaceOnUse" color-interpolation-filters="sRGB">
<feFlood flood-opacity="0" result="BackgroundImageFix"/>
<feColorMatrix in="SourceAlpha" type="matrix" values="0 0 0 0 0 0 0 0 0 0 0 0 0 0 0 0 0 0 127 0" result="hardAlpha"/>
<feOffset dx="1" dy="1"/>
<feGaussianBlur stdDeviation="2"/>
<feColorMatrix type="matrix" values="0 0 0 0 0.711655 0 0 0 0 0.000892775 0 0 0 0 0.990385 0 0 0 1 0"/>
<feBlend mode="normal" in2="BackgroundImageFix" result="effect1_dropShadow_1333_3463"/>
<feBlend mode="normal" in="SourceGraphic" in2="effect1_dropShadow_1333_3463" result="shape"/>
</filter>
</defs>
</svg>
