<svg width="60" height="60" viewBox="0 0 60 60" fill="none" xmlns="http://www.w3.org/2000/svg">
<path d="M57.1312 11.4375H60V48.5625H57.1312V11.4375Z" fill="#D771FF"/>
<path d="M54.2812 48.5625H57.1313V51.4313H54.2812V48.5625Z" fill="#D771FF"/>
<path d="M54.2812 8.56836H57.1313V11.4371H54.2812V8.56836Z" fill="#D771FF"/>
<path d="M51.4313 14.2871H54.2813V20.0059H51.4313V14.2871Z" fill="#D771FF"/>
<path d="M5.71875 51.4316H54.2812V54.2816H5.71875V51.4316Z" fill="#D771FF"/>
<path d="M48.5625 42.8623H51.4313V45.7123H48.5625V42.8623Z" fill="#D771FF"/>
<path d="M48.5625 20.0059H51.4313V22.8559H48.5625V20.0059Z" fill="#D771FF"/>
<path d="M45.7125 39.9941H48.5625V42.8629H45.7125V39.9941Z" fill="#D771FF"/>
<path d="M45.7125 22.8564H48.5625V25.7064H45.7125V22.8564Z" fill="#D771FF"/>
<path d="M42.8438 37.1436H45.7125V39.9936H42.8438V37.1436Z" fill="#D771FF"/>
<path d="M42.8438 25.7061H45.7125V28.5748H42.8438V25.7061Z" fill="#D771FF"/>
<path d="M39.9938 34.2939H42.8438V37.1439H39.9938V34.2939Z" fill="#D771FF"/>
<path d="M39.9938 28.5752H42.8438V31.4252H39.9938V28.5752Z" fill="#D771FF"/>
<path d="M34.275 31.4248H39.9938V34.2936H34.275V31.4248Z" fill="#D771FF"/>
<path d="M25.7062 34.2939H34.275V37.1439H25.7062V34.2939Z" fill="#D771FF"/>
<path d="M19.9875 31.4248H25.7062V34.2936H19.9875V31.4248Z" fill="#D771FF"/>
<path d="M17.1375 34.2939H19.9875V37.1439H17.1375V34.2939Z" fill="#D771FF"/>
<path d="M17.1375 28.5752H19.9875V31.4252H17.1375V28.5752Z" fill="#D771FF"/>
<path d="M14.2875 37.1436H17.1375V39.9936H14.2875V37.1436Z" fill="#D771FF"/>
<path d="M14.2875 25.7061H17.1375V28.5748H14.2875V25.7061Z" fill="#D771FF"/>
<path d="M11.4188 39.9941H14.2875V42.8629H11.4188V39.9941Z" fill="#D771FF"/>
<path d="M11.4188 22.8564H14.2875V25.7064H11.4188V22.8564Z" fill="#D771FF"/>
<path d="M8.56876 42.8623H11.4188V45.7123H8.56876V42.8623Z" fill="#D771FF"/>
<path d="M8.56876 20.0059H11.4188V22.8559H8.56876V20.0059Z" fill="#D771FF"/>
<path d="M5.71875 5.71875H54.2812V8.56875H5.71875V5.71875Z" fill="#D771FF"/>
<path d="M5.71875 14.2871H8.56875V20.0059H5.71875V14.2871Z" fill="#D771FF"/>
<path d="M2.85001 48.5625H5.71876V51.4313H2.85001V48.5625Z" fill="#D771FF"/>
<path d="M2.85001 8.56836H5.71876V11.4371H2.85001V8.56836Z" fill="#D771FF"/>
<path d="M0 11.4375H2.85V48.5625H0V11.4375Z" fill="#D771FF"/>
</svg>
