<svg width="39" height="40" viewBox="0 0 39 40" fill="none" xmlns="http://www.w3.org/2000/svg">
<g filter="url(#filter0_dd_1333_3417)">
<path d="M12.5769 12.7958L12.605 12.7156V12.6306V12.1391H15.579L20.5203 25.8226H18.2947L17.1664 22.7212L17.0467 22.3921H16.6965H11.5095H11.151L11.036 22.7317L9.98851 25.8226H8.01868L12.5769 12.7958ZM15.846 20.4731H16.5224L16.324 19.8265L14.5675 14.101L14.0897 12.5435L13.6115 14.1009L11.8535 19.8264L11.6549 20.4731H12.3315H15.846ZM1.625 7.83962C1.625 6.42072 2.18866 5.05992 3.19198 4.0566C4.1953 3.05328 5.55609 2.48962 6.975 2.48962H29.025C30.4439 2.48962 31.8047 3.05328 32.808 4.0566C33.8113 5.05992 34.375 6.42072 34.375 7.83962V29.8896C34.375 31.3085 33.8113 32.6693 32.808 33.6726C31.8047 34.676 30.4439 35.2396 29.025 35.2396H6.975C5.55609 35.2396 4.1953 34.676 3.19198 33.6726C2.18866 32.6693 1.625 31.3085 1.625 29.8896V7.83962ZM6.975 3.73962C5.88761 3.73962 4.84476 4.17159 4.07586 4.94049C3.30696 5.70939 2.875 6.75224 2.875 7.83962V29.8896C2.875 30.977 3.30696 32.0199 4.07586 32.7888C4.84476 33.5577 5.88761 33.9896 6.975 33.9896H29.025C30.1124 33.9896 31.1552 33.5577 31.9241 32.7888C32.693 32.0199 33.125 30.977 33.125 29.8896V7.83962C33.125 6.75224 32.693 5.70939 31.9241 4.94049C31.1552 4.17159 30.1124 3.73962 29.025 3.73962H6.975ZM25.3791 13.0797C25.1916 13.2673 24.9372 13.3726 24.672 13.3726C24.4068 13.3726 24.1524 13.2673 23.9649 13.0797C23.7774 12.8922 23.672 12.6378 23.672 12.3726C23.672 12.1074 23.7774 11.8531 23.9649 11.6655C24.1524 11.478 24.4068 11.3726 24.672 11.3726C24.9372 11.3726 25.1916 11.478 25.3791 11.6655C25.5666 11.8531 25.672 12.1074 25.672 12.3726C25.672 12.6378 25.5666 12.8922 25.3791 13.0797ZM23.672 15.9881H25.672V25.8226H23.672V15.9881Z" fill="#CF15FD" stroke="#CF15FD"/>
</g>
<defs>
<filter id="filter0_dd_1333_3417" x="-1" y="-0.135376" width="41" height="41" filterUnits="userSpaceOnUse" color-interpolation-filters="sRGB">
<feFlood flood-opacity="0" result="BackgroundImageFix"/>
<feColorMatrix in="SourceAlpha" type="matrix" values="0 0 0 0 0 0 0 0 0 0 0 0 0 0 0 0 0 0 127 0" result="hardAlpha"/>
<feOffset dx="1" dy="1"/>
<feGaussianBlur stdDeviation="1"/>
<feColorMatrix type="matrix" values="0 0 0 0 0.801724 0 0 0 0 0 0 0 0 0 1 0 0 0 0.8 0"/>
<feBlend mode="normal" in2="BackgroundImageFix" result="effect1_dropShadow_1333_3417"/>
<feColorMatrix in="SourceAlpha" type="matrix" values="0 0 0 0 0 0 0 0 0 0 0 0 0 0 0 0 0 0 127 0" result="hardAlpha"/>
<feOffset dx="2" dy="2"/>
<feGaussianBlur stdDeviation="1"/>
<feColorMatrix type="matrix" values="0 0 0 0 0.203922 0 0 0 0 0.176471 0 0 0 0 1 0 0 0 0.6 0"/>
<feBlend mode="normal" in2="effect1_dropShadow_1333_3417" result="effect2_dropShadow_1333_3417"/>
<feBlend mode="normal" in="SourceGraphic" in2="effect2_dropShadow_1333_3417" result="shape"/>
</filter>
</defs>
</svg>
