<svg width="60" height="60" viewBox="0 0 60 60" fill="none" xmlns="http://www.w3.org/2000/svg">
<g clip-path="url(#clip0_1361_809)">
<path d="M57.15 22.8564H60V25.7064H57.15V22.8564Z" fill="#DCFF93"/>
<path d="M54.2812 25.7061H57.15V28.5561H54.2812V25.7061Z" fill="#DCFF93"/>
<path d="M51.4313 51.4316H54.2813V57.1316H51.4313V51.4316Z" fill="#DCFF93"/>
<path d="M48.5625 45.7129H51.4313V51.4316H48.5625V45.7129Z" fill="#DCFF93"/>
<path d="M48.5625 28.5566H54.2813V31.4254H48.5625V28.5566Z" fill="#DCFF93"/>
<path d="M45.7125 57.1309H51.4313V59.9996H45.7125V57.1309Z" fill="#DCFF93"/>
<path d="M45.7125 39.9941H48.5625V45.7129H45.7125V39.9941Z" fill="#DCFF93"/>
<path d="M45.7125 31.4248H48.5625V34.2748H45.7125V31.4248Z" fill="#DCFF93"/>
<path d="M42.8625 54.2812H45.7125V57.1313H42.8625V54.2812Z" fill="#DCFF93"/>
<path d="M42.8625 34.2754H45.7125V39.9941H42.8625V34.2754Z" fill="#DCFF93"/>
<path d="M37.1437 51.4316H42.8625V54.2816H37.1437V51.4316Z" fill="#DCFF93"/>
<path d="M39.9938 19.9873H57.15V22.8561H39.9938V19.9873Z" fill="#DCFF93"/>
<path d="M37.1437 14.2871H39.9937V19.9871H37.1437V14.2871Z" fill="#DCFF93"/>
<path d="M34.2938 48.5625H37.1438V51.4313H34.2938V48.5625Z" fill="#DCFF93"/>
<path d="M34.2938 31.4248H37.1438V34.2748H34.2938V31.4248Z" fill="#DCFF93"/>
<path d="M34.2938 8.56836H37.1438V14.2871H34.2938V8.56836Z" fill="#DCFF93"/>
<path d="M31.425 45.7129H34.2937V48.5629H31.425V45.7129Z" fill="#DCFF93"/>
<path d="M31.425 25.7061H34.2937V28.5561H31.425V25.7061Z" fill="#DCFF93"/>
<path d="M31.425 2.84961H34.2937V8.56836H31.425V2.84961Z" fill="#DCFF93"/>
<path d="M28.575 42.8438H31.425V45.7125H28.575V42.8438Z" fill="#DCFF93"/>
<path d="M25.7062 34.2754H34.2937V37.1441H25.7062V34.2754Z" fill="#DCFF93"/>
<path d="M28.575 0H31.425V2.85H28.575V0Z" fill="#DCFF93"/>
<path d="M25.7062 45.7129H28.575V48.5629H25.7062V45.7129Z" fill="#DCFF93"/>
<path d="M25.7062 25.7061H28.575V28.5561H25.7062V25.7061Z" fill="#DCFF93"/>
<path d="M25.7062 2.84961H28.575V8.56836H25.7062V2.84961Z" fill="#DCFF93"/>
<path d="M22.8563 48.5625H25.7063V51.4313H22.8563V48.5625Z" fill="#DCFF93"/>
<path d="M22.8563 31.4248H25.7063V34.2748H22.8563V31.4248Z" fill="#DCFF93"/>
<path d="M22.8563 8.56836H25.7063V14.2871H22.8563V8.56836Z" fill="#DCFF93"/>
<path d="M20.0062 14.2871H22.8562V19.9871H20.0062V14.2871Z" fill="#DCFF93"/>
<path d="M17.1375 51.4316H22.8563V54.2816H17.1375V51.4316Z" fill="#DCFF93"/>
<path d="M14.2875 54.2812H17.1375V57.1313H14.2875V54.2812Z" fill="#DCFF93"/>
<path d="M14.2875 34.2754H17.1375V39.9941H14.2875V34.2754Z" fill="#DCFF93"/>
<path d="M11.4375 39.9941H14.2875V45.7129H11.4375V39.9941Z" fill="#DCFF93"/>
<path d="M11.4375 31.4248H14.2875V34.2748H11.4375V31.4248Z" fill="#DCFF93"/>
<path d="M8.56873 57.1309H14.2875V59.9996H8.56873V57.1309Z" fill="#DCFF93"/>
<path d="M8.56873 45.7129H11.4375V51.4316H8.56873V45.7129Z" fill="#DCFF93"/>
<path d="M5.71875 28.5566H11.4375V31.4254H5.71875V28.5566Z" fill="#DCFF93"/>
<path d="M5.71875 51.4316H8.56875V57.1316H5.71875V51.4316Z" fill="#DCFF93"/>
<path d="M2.84998 19.9873H20.0062V22.8561H2.84998V19.9873Z" fill="#DCFF93"/>
<path d="M2.84998 25.7061H5.71873V28.5561H2.84998V25.7061Z" fill="#DCFF93"/>
<path d="M0 22.8564H2.85V25.7064H0V22.8564Z" fill="#DCFF93"/>
</g>
<defs>
<clipPath id="clip0_1361_809">
<rect width="60" height="60" fill="white"/>
</clipPath>
</defs>
</svg>
