<svg width="40" height="41" viewBox="0 0 40 41" fill="none" xmlns="http://www.w3.org/2000/svg">
<g filter="url(#filter0_dd_1333_3408)">
<path d="M22.5378 27.2337L22.1273 26.9028L21.8187 27.3302L20.3887 29.3102L20.1246 29.6759L20.4612 29.9761C21.9197 31.2769 23.729 31.918 25.854 31.918V31.9181L25.8659 31.9178C27.4807 31.8794 28.7901 31.4609 29.7164 30.5907L29.7165 30.5905C30.6294 29.7321 31.1023 28.6862 31.1023 27.4763C31.1023 26.3403 30.7858 25.3629 30.1208 24.5848C29.4567 23.8078 28.3858 23.2332 26.988 22.8175C25.8729 22.4781 25.1318 22.182 24.7237 21.936C24.3552 21.7022 24.264 21.4873 24.264 21.298C24.264 21.1257 24.333 20.9673 24.5936 20.8076C24.867 20.6401 25.2731 20.533 25.854 20.533C26.2546 20.533 26.7285 20.6124 27.2815 20.7852L27.2907 20.7881L27.3 20.7906C27.8258 20.9329 28.2841 21.1606 28.6805 21.4714L29.1129 21.8104L29.4097 21.3481L30.693 19.3498L30.9359 18.9717L30.5857 18.69C29.3496 17.6957 27.7376 17.223 25.799 17.223C24.3799 17.223 23.1693 17.5887 22.2076 18.3571C21.2214 19.1253 20.6973 20.1135 20.6973 21.298H20.6973L20.6974 21.3036C20.7109 22.4958 21.1101 23.48 21.9347 24.1888L21.938 24.1916C22.7183 24.8508 23.7971 25.3651 25.1409 25.7549C26.2163 26.0935 26.8647 26.4096 27.1719 26.6767C27.4489 26.9282 27.5723 27.2104 27.5723 27.5496C27.5723 27.8686 27.4584 28.0765 27.2235 28.2357L27.2208 28.2376C26.947 28.4257 26.5007 28.553 25.8173 28.5529L25.8123 28.553C24.76 28.5637 23.6715 28.1475 22.5378 27.2337ZM13.2718 28.2623L13.2718 28.2622L13.264 28.2575C12.9654 28.0784 12.6695 27.8042 12.3815 27.4165L12.0688 26.9956L11.6632 27.3278L9.93991 28.7395L9.6079 29.0115L9.8264 29.3808C10.3808 30.3181 11.0877 31.0042 11.9576 31.397L11.9589 31.3975C12.7427 31.7489 13.6271 31.918 14.6018 31.918C15.1562 31.918 15.7234 31.83 16.3017 31.6591C16.907 31.4804 17.461 31.1784 17.9619 30.7598C18.9104 29.9984 19.3529 28.7922 19.3917 27.269L19.3918 27.269V27.2563V17.943V17.443H18.8918H16.4167H15.9167V17.943V26.7796C15.9167 27.5668 15.7373 27.9822 15.5164 28.184C15.2421 28.4215 14.8885 28.553 14.4184 28.553C13.9439 28.553 13.5692 28.4483 13.2718 28.2623ZM5.5 10.8646C5.5 8.37935 7.51473 6.36462 10 6.36462H30C32.4854 6.36462 34.5 8.37934 34.5 10.8646V30.8646C34.5 33.35 32.4854 35.3646 30 35.3646H10C7.51472 35.3646 5.5 33.35 5.5 30.8646V10.8646Z" fill="#CF15FD" stroke="#CF15FD"/>
</g>
<defs>
<filter id="filter0_dd_1333_3408" x="-1" y="-0.135376" width="45" height="45" filterUnits="userSpaceOnUse" color-interpolation-filters="sRGB">
<feFlood flood-opacity="0" result="BackgroundImageFix"/>
<feColorMatrix in="SourceAlpha" type="matrix" values="0 0 0 0 0 0 0 0 0 0 0 0 0 0 0 0 0 0 127 0" result="hardAlpha"/>
<feOffset dx="1" dy="1"/>
<feGaussianBlur stdDeviation="1"/>
<feColorMatrix type="matrix" values="0 0 0 0 0.801724 0 0 0 0 0 0 0 0 0 1 0 0 0 0.8 0"/>
<feBlend mode="normal" in2="BackgroundImageFix" result="effect1_dropShadow_1333_3408"/>
<feColorMatrix in="SourceAlpha" type="matrix" values="0 0 0 0 0 0 0 0 0 0 0 0 0 0 0 0 0 0 127 0" result="hardAlpha"/>
<feOffset dx="2" dy="2"/>
<feGaussianBlur stdDeviation="1"/>
<feColorMatrix type="matrix" values="0 0 0 0 0.203922 0 0 0 0 0.176471 0 0 0 0 1 0 0 0 0.6 0"/>
<feBlend mode="normal" in2="effect1_dropShadow_1333_3408" result="effect2_dropShadow_1333_3408"/>
<feBlend mode="normal" in="SourceGraphic" in2="effect2_dropShadow_1333_3408" result="shape"/>
</filter>
</defs>
</svg>
