<svg width="53" height="52" viewBox="0 0 53 52" fill="none" xmlns="http://www.w3.org/2000/svg">
<g filter="url(#filter0_d_1333_3459)">
<path fill-rule="evenodd" clip-rule="evenodd" d="M11.5 3C9.37827 3 7.34344 3.84285 5.84315 5.34315C4.34285 6.84344 3.5 8.87827 3.5 11V39C3.5 41.1217 4.34285 43.1566 5.84315 44.6569C7.34344 46.1571 9.37827 47 11.5 47H39.5C41.6217 47 43.6566 46.1571 45.1569 44.6569C46.6571 43.1566 47.5 41.1217 47.5 39V11C47.5 8.87827 46.6571 6.84344 45.1569 5.34315C43.6566 3.84285 41.6217 3 39.5 3H11.5ZM9.5 22.818C9.5 15.452 16.814 9.728 25.5 9.728C34.186 9.728 41.5 15.452 41.5 22.818C41.5 30.184 34.186 35.908 25.5 35.908C24.8281 35.9081 24.1566 35.8748 23.488 35.808L16.428 40.164C16.309 40.2374 16.1713 40.2749 16.0315 40.2721C15.8917 40.2694 15.7557 40.2264 15.6396 40.1483C15.5236 40.0703 15.4325 39.9605 15.3773 39.832C15.322 39.7036 15.3049 39.5619 15.328 39.424L16.32 33.544C12.242 31.204 9.5 27.302 9.5 22.818ZM14.59 18.908C14.3248 18.908 14.0704 19.0134 13.8829 19.2009C13.6954 19.3884 13.59 19.6428 13.59 19.908C13.59 20.1732 13.6954 20.4276 13.8829 20.6151C14.0704 20.8026 14.3248 20.908 14.59 20.908H15.772V26.454C15.772 26.7192 15.8774 26.9736 16.0649 27.1611C16.2524 27.3486 16.5068 27.454 16.772 27.454C17.0372 27.454 17.2916 27.3486 17.4791 27.1611C17.6666 26.9736 17.772 26.7192 17.772 26.454V20.908H18.954C19.2192 20.908 19.4736 20.8026 19.6611 20.6151C19.8486 20.4276 19.954 20.1732 19.954 19.908C19.954 19.6428 19.8486 19.3884 19.6611 19.2009C19.4736 19.0134 19.2192 18.908 18.954 18.908H14.59ZM23.16 19.548C23.087 19.3602 22.9589 19.1989 22.7926 19.0851C22.6263 18.9713 22.4295 18.9105 22.228 18.9105C22.0265 18.9105 21.8297 18.9713 21.6634 19.0851C21.4971 19.1989 21.369 19.3602 21.296 19.548L18.75 26.092C18.6596 26.338 18.6693 26.6096 18.7772 26.8485C18.885 27.0873 19.0823 27.2743 19.3265 27.3692C19.5708 27.4641 19.8426 27.4593 20.0834 27.3558C20.3241 27.2523 20.5147 27.0585 20.614 26.816L20.932 26H23.524L23.84 26.816C23.8858 26.9407 23.9561 27.055 24.0466 27.1523C24.1371 27.2495 24.2461 27.3278 24.3672 27.3824C24.4882 27.4371 24.619 27.4671 24.7518 27.4706C24.8846 27.4742 25.0168 27.4512 25.1407 27.4031C25.2645 27.355 25.3775 27.2827 25.4731 27.1905C25.5687 27.0982 25.6449 26.9878 25.6974 26.8657C25.7498 26.7437 25.7774 26.6124 25.7786 26.4795C25.7797 26.3467 25.7544 26.2149 25.704 26.092L23.16 19.546V19.548ZM22.228 22.668L22.746 24H21.71L22.228 22.668ZM27.954 19.908C27.954 19.6428 27.8486 19.3884 27.6611 19.2009C27.4736 19.0134 27.2192 18.908 26.954 18.908C26.6888 18.908 26.4344 19.0134 26.2469 19.2009C26.0594 19.3884 25.954 19.6428 25.954 19.908V26.454C25.954 26.7192 26.0594 26.9736 26.2469 27.1611C26.4344 27.3486 26.6888 27.454 26.954 27.454H29.864C30.1292 27.454 30.3836 27.3486 30.5711 27.1611C30.7586 26.9736 30.864 26.7192 30.864 26.454C30.864 26.1888 30.7586 25.9344 30.5711 25.7469C30.3836 25.5594 30.1292 25.454 29.864 25.454H27.954V19.908ZM32.046 18.908C32.3112 18.908 32.5656 19.0134 32.7531 19.2009C32.9406 19.3884 33.046 19.6428 33.046 19.908V21.858L35.7 19.202C35.7922 19.1065 35.9026 19.0303 36.0246 18.9779C36.1466 18.9255 36.2778 18.8979 36.4106 18.8967C36.5434 18.8956 36.6751 18.9209 36.798 18.9712C36.9209 19.0215 37.0325 19.0957 37.1264 19.1896C37.2203 19.2835 37.2945 19.3951 37.3448 19.518C37.3951 19.6409 37.4204 19.7726 37.4193 19.9054C37.4181 20.0382 37.3905 20.1694 37.3381 20.2914C37.2857 20.4134 37.2095 20.5238 37.114 20.616L34.838 22.892L37.188 25.83C37.3441 26.0377 37.4131 26.298 37.3806 26.5558C37.3481 26.8136 37.2165 27.0486 37.0138 27.211C36.811 27.3735 36.553 27.4506 36.2944 27.4262C36.0357 27.4017 35.7967 27.2776 35.628 27.08L33.414 24.316L33.044 24.686V26.454C33.044 26.7192 32.9386 26.9736 32.7511 27.1611C32.5636 27.3486 32.3092 27.454 32.044 27.454C31.7788 27.454 31.5244 27.3486 31.3369 27.1611C31.1494 26.9736 31.044 26.7192 31.044 26.454V19.908C31.044 19.6428 31.1494 19.3884 31.3369 19.2009C31.5244 19.0134 31.7808 18.908 32.046 18.908Z" fill="#D771FF"/>
</g>
<defs>
<filter id="filter0_d_1333_3459" x="-1.5" y="-2" width="56" height="56" filterUnits="userSpaceOnUse" color-interpolation-filters="sRGB">
<feFlood flood-opacity="0" result="BackgroundImageFix"/>
<feColorMatrix in="SourceAlpha" type="matrix" values="0 0 0 0 0 0 0 0 0 0 0 0 0 0 0 0 0 0 127 0" result="hardAlpha"/>
<feOffset dx="1" dy="1"/>
<feGaussianBlur stdDeviation="2"/>
<feColorMatrix type="matrix" values="0 0 0 0 0.711655 0 0 0 0 0.000892775 0 0 0 0 0.990385 0 0 0 1 0"/>
<feBlend mode="normal" in2="BackgroundImageFix" result="effect1_dropShadow_1333_3459"/>
<feBlend mode="normal" in="SourceGraphic" in2="effect1_dropShadow_1333_3459" result="shape"/>
</filter>
</defs>
</svg>
