<svg width="70" height="70" viewBox="0 0 70 70" fill="none" xmlns="http://www.w3.org/2000/svg">
<path d="M48.3437 33.3377V36.6627H41.6719V40.0096H21.6781V43.3346H31.675V46.6596H35V50.0064H38.3469V53.3314H51.6687V56.6564H55.0156V60.0033H58.3406V63.3283H61.6656V50.0064H65.0125V46.6596H68.3375V33.3377H65.0125V29.9908H61.6656V26.6658H55.0156V16.6689H51.6687V33.3377H48.3437Z" fill="#FFFC8C"/>
<path d="M48.3438 13.3223H51.6687V16.6691H48.3438V13.3223Z" fill="#FFFC8C"/>
<path d="M38.3468 23.3408H44.9968V29.9908H38.3468V23.3408Z" fill="#FFFC8C"/>
<path d="M41.6719 9.99707H48.3438V13.3221H41.6719V9.99707Z" fill="#FFFC8C"/>
<path d="M25.0031 23.3408H31.6749V29.9908H25.0031V23.3408Z" fill="#FFFC8C"/>
<path d="M18.3312 43.334H21.6781V46.659H18.3312V43.334Z" fill="#FFFC8C"/>
<path d="M15.0062 6.67188H41.6719V9.99688H15.0062V6.67188Z" fill="#FFFC8C"/>
<path d="M15.0063 40.0098H11.6813V53.3316H15.0063V50.0066H18.3313V46.6598H15.0063V40.0098Z" fill="#FFFC8C"/>
<path d="M11.6813 23.3408H18.3313V29.9908H11.6813V23.3408Z" fill="#FFFC8C"/>
<path d="M8.33435 9.99707H15.0062V13.3221H8.33435V9.99707Z" fill="#FFFC8C"/>
<path d="M8.33435 36.6621H11.6812V40.009H8.33435V36.6621Z" fill="#FFFC8C"/>
<path d="M5.0094 33.3379H8.3344V36.6629H5.0094V33.3379Z" fill="#FFFC8C"/>
<path d="M5.0094 13.3223H8.3344V16.6691H5.0094V13.3223Z" fill="#FFFC8C"/>
<path d="M1.66248 16.6689H5.00935V33.3377H1.66248V16.6689Z" fill="#FFFC8C"/>
</svg>
