<svg width="165" height="163" viewBox="0 0 165 163" fill="none" xmlns="http://www.w3.org/2000/svg">
<g filter="url(#filter0_d_1333_2035)">
<path d="M128.73 86.5828C125.681 112.361 102.313 130.786 76.5348 127.737C50.7571 124.688 32.3318 101.32 35.3807 75.5417C38.4296 49.764 61.7981 31.3387 87.5759 34.3876C113.354 37.4365 131.779 60.8051 128.73 86.5828Z" fill="#FF9E01"/>
</g>
<g filter="url(#filter1_d_1333_2035)">
<path d="M92.3947 105.153C54.7511 119.688 19.8883 122.355 14.5266 111.11C11.6989 105.18 17.6409 96.565 29.4105 87.6142M125.306 51.6942C138.721 50.8415 148.248 53.0234 150.846 58.473C155.075 67.3409 139.694 82.2124 114.54 95.2323" stroke="#ADFF00" stroke-width="5" stroke-linecap="round" stroke-linejoin="round"/>
</g>
<defs>
<filter id="filter0_d_1333_2035" x="25.0508" y="24.0577" width="114.009" height="114.009" filterUnits="userSpaceOnUse" color-interpolation-filters="sRGB">
<feFlood flood-opacity="0" result="BackgroundImageFix"/>
<feColorMatrix in="SourceAlpha" type="matrix" values="0 0 0 0 0 0 0 0 0 0 0 0 0 0 0 0 0 0 127 0" result="hardAlpha"/>
<feOffset/>
<feGaussianBlur stdDeviation="5"/>
<feComposite in2="hardAlpha" operator="out"/>
<feColorMatrix type="matrix" values="0 0 0 0 1 0 0 0 0 0.619608 0 0 0 0 0.00392157 0 0 0 1 0"/>
<feBlend mode="normal" in2="BackgroundImageFix" result="effect1_dropShadow_1333_2035"/>
<feBlend mode="normal" in="SourceGraphic" in2="effect1_dropShadow_1333_2035" result="shape"/>
</filter>
<filter id="filter1_d_1333_2035" x="1.32629" y="39.0151" width="162.717" height="91.5533" filterUnits="userSpaceOnUse" color-interpolation-filters="sRGB">
<feFlood flood-opacity="0" result="BackgroundImageFix"/>
<feColorMatrix in="SourceAlpha" type="matrix" values="0 0 0 0 0 0 0 0 0 0 0 0 0 0 0 0 0 0 127 0" result="hardAlpha"/>
<feOffset/>
<feGaussianBlur stdDeviation="5"/>
<feColorMatrix type="matrix" values="0 0 0 0 0.678431 0 0 0 0 1 0 0 0 0 0 0 0 0 1 0"/>
<feBlend mode="normal" in2="BackgroundImageFix" result="effect1_dropShadow_1333_2035"/>
<feBlend mode="normal" in="SourceGraphic" in2="effect1_dropShadow_1333_2035" result="shape"/>
</filter>
</defs>
</svg>
