<svg width="170" height="170" viewBox="0 0 170 170" fill="none" xmlns="http://www.w3.org/2000/svg">
<g clip-path="url(#clip0_1333_2041)">
<g filter="url(#filter0_d_1333_2041)">
<path fill-rule="evenodd" clip-rule="evenodd" d="M55.9779 31.4302C62.5898 27.9274 69.8356 25.7827 77.2888 25.1223C84.742 24.462 92.252 25.2993 99.3767 27.5851C123.375 35.2553 138.631 57.5108 138.515 81.4315L103.463 70.2284C102.042 69.7743 100.499 69.9032 99.173 70.5868C97.8471 71.2705 96.847 72.4529 96.3928 73.8739C95.9386 75.295 96.0676 76.8382 96.7512 78.1642C97.4349 79.4902 98.6173 80.4902 100.038 80.9444L137.276 92.8462C136.888 94.6708 136.409 96.4842 135.832 98.2898C126.374 127.882 94.7192 144.203 65.127 134.745C57.9971 132.475 51.3935 128.802 45.7048 123.941C40.0162 119.08 35.3575 113.13 32.0031 106.442L64.9065 116.958C66.3275 117.413 67.8708 117.284 69.1967 116.6C70.5227 115.916 71.5228 114.734 71.9769 113.313C72.4311 111.892 72.3022 110.349 71.6185 109.023C70.9349 107.697 69.7525 106.697 68.3315 106.242L27.2786 93.1213C26.4011 89.1067 25.9685 85.0077 25.9885 80.8984L82.4724 98.9514C83.8934 99.4056 85.4367 99.2766 86.7626 98.593C88.0886 97.9093 89.0887 96.7269 89.5429 95.3059C89.997 93.8848 89.8681 92.3416 89.1845 91.0156C88.5008 89.6897 87.3184 88.6896 85.8974 88.2354L27.2274 69.4837C29.6594 57.9435 35.6722 47.4655 44.4088 39.5432L90.8143 54.375C91.5179 54.5999 92.2589 54.684 92.9951 54.6225C93.7312 54.561 94.448 54.3551 95.1045 54.0166C95.7611 53.6781 96.3445 53.2136 96.8216 52.6496C97.2986 52.0856 97.6599 51.4331 97.8848 50.7295C98.1097 50.0259 98.1938 49.2849 98.1323 48.5487C98.0708 47.8126 97.8649 47.0958 97.5264 46.4393C97.1878 45.7827 96.7233 45.1993 96.1593 44.7222C95.5953 44.2452 94.9429 43.8839 94.2393 43.659L55.9779 31.4302ZM76.6734 61.666C75.2523 61.2118 73.7091 61.3407 72.3831 62.0244C71.0571 62.7081 70.0571 63.8905 69.6029 65.3115C69.1487 66.7325 69.2776 68.2758 69.9613 69.6017C70.645 70.9277 71.8274 71.9278 73.2484 72.382L83.9644 75.8069C85.3854 76.2611 86.9286 76.1322 88.2546 75.4485C89.5806 74.7649 90.5806 73.5825 91.0348 72.1615C91.489 70.7404 91.3601 69.1972 90.6764 67.8712C89.9928 66.5452 88.8104 65.5452 87.3893 65.091L76.6734 61.666ZM61.4679 66.8924C60.1421 67.5758 58.5992 67.7045 57.1784 67.2504C55.7577 66.7964 54.5755 65.7966 53.8917 64.471C53.2075 63.145 53.0726 61.5997 53.5264 60.1783C53.7511 59.4744 54.1122 58.8217 54.5891 58.2574C55.066 57.6932 55.6494 57.2283 56.306 56.8895C56.9626 56.5507 57.6794 56.3445 58.4157 56.2828C59.1519 56.221 59.8932 56.3048 60.597 56.5295C62.0185 56.9833 63.2015 57.9832 63.8857 59.3092C64.2249 59.966 64.4312 60.6832 64.4929 61.4199C64.5547 62.1565 64.4706 62.8981 64.2456 63.6022C64.0205 64.3063 63.6589 64.9592 63.1814 65.5234C62.7038 66.0877 62.1251 66.554 61.4679 66.8924ZM95.2637 101.315C95.5944 101.985 96.0551 102.582 96.6191 103.072C97.183 103.562 97.8388 103.934 98.5483 104.168C99.2578 104.401 100.007 104.491 100.751 104.432C101.496 104.373 102.221 104.167 102.885 103.824C103.549 103.482 104.138 103.011 104.618 102.439C105.098 101.866 105.459 101.204 105.68 100.491C105.901 99.7773 105.978 99.0269 105.906 98.2835C105.834 97.5401 105.615 96.8184 105.261 96.1606C104.578 94.8341 103.397 93.828 101.976 93.3732C100.555 92.9185 99.0115 93.0469 97.685 93.7302C96.3585 94.4135 95.3578 95.5958 94.9031 97.017C94.4483 98.4381 94.5803 99.9888 95.2637 101.315Z" fill="#2023F0"/>
</g>
<g filter="url(#filter1_d_1333_2041)">
<path fill-rule="evenodd" clip-rule="evenodd" d="M66.7926 35.046C73.4294 31.5907 80.6904 29.4979 88.1482 28.891C95.6059 28.2841 103.11 29.1752 110.218 31.512C134.161 39.3539 149.257 61.7181 148.97 85.6374L113.999 74.1835C112.581 73.7192 111.037 73.837 109.706 74.5112C108.375 75.1853 107.367 76.3605 106.902 77.7783C106.438 79.196 106.556 80.7401 107.23 82.071C107.904 83.4018 109.079 84.4103 110.497 84.8747L147.649 97.0429C147.248 98.8648 146.755 100.675 146.165 102.476C136.496 132 104.725 148.093 75.2013 138.424C68.0879 136.103 61.5107 132.382 55.857 127.481C50.2033 122.579 45.5874 116.596 42.281 109.884L75.1082 120.636C76.5259 121.1 78.0701 120.982 79.4009 120.308C80.7318 119.634 81.7403 118.459 82.2046 117.041C82.669 115.623 82.5511 114.079 81.877 112.749C81.2028 111.418 80.0276 110.409 78.6099 109.945L37.6521 96.53C36.8034 92.5092 36.4002 88.4071 36.4496 84.2981L92.8027 102.755C94.2204 103.22 95.7646 103.102 97.0954 102.428C98.4262 101.754 99.4348 100.578 99.8991 99.1606C100.363 97.7428 100.246 96.1987 99.5714 94.8679C98.8973 93.537 97.7221 92.5285 96.3044 92.0642L37.7703 72.8926C40.2849 61.3701 46.3726 50.9354 55.1657 43.0759L101.464 58.2399C102.166 58.4698 102.906 58.5592 103.643 58.503C104.379 58.4467 105.097 58.246 105.756 57.9122C106.415 57.5784 107.002 57.1181 107.483 56.5575C107.964 55.9969 108.33 55.3471 108.56 54.6451C108.79 53.9431 108.879 53.2027 108.823 52.4662C108.767 51.7296 108.566 51.0114 108.233 50.3524C107.899 49.6934 107.438 49.1067 106.878 48.6256C106.317 48.1446 105.667 47.7786 104.965 47.5487L66.7926 35.046ZM87.2709 65.4294C85.8532 64.965 84.3091 65.0829 82.9782 65.757C81.6474 66.4312 80.6389 67.6064 80.1745 69.0241C79.7102 70.4418 79.828 71.986 80.5022 73.3168C81.1763 74.6476 82.3515 75.6562 83.7693 76.1205L94.4604 79.6222C95.8782 80.0865 97.4223 79.9687 98.7531 79.2945C100.084 78.6204 101.093 77.4452 101.557 76.0274C102.021 74.6097 101.903 73.0656 101.229 71.7347C100.555 70.4039 99.3798 69.3954 97.9621 68.931L87.2709 65.4294ZM72.0285 70.5467C70.6978 71.2205 69.154 71.3382 67.7365 70.874C66.3191 70.4097 65.144 69.4015 64.4698 68.071C63.7951 66.7402 63.6713 65.194 64.1352 63.7758C64.3649 63.0736 64.7307 62.4235 65.2117 61.8627C65.6926 61.3018 66.2794 60.8412 66.9383 60.5071C67.5973 60.173 68.3156 59.9719 69.0523 59.9154C69.789 59.859 70.5296 59.9481 71.2318 60.1778C72.65 60.6418 73.8258 61.6501 74.5005 62.981C74.8349 63.6402 75.0361 64.3589 75.0926 65.096C75.1491 65.833 75.0597 66.574 74.8296 67.2764C74.5995 67.9789 74.2332 68.6292 73.7517 69.19C73.2701 69.7509 72.6881 70.213 72.0285 70.5467ZM105.577 105.211C105.903 105.883 106.359 106.483 106.919 106.977C107.48 107.471 108.133 107.848 108.841 108.087C109.549 108.325 110.297 108.421 111.042 108.367C111.787 108.313 112.514 108.112 113.18 107.774C113.846 107.437 114.439 106.97 114.923 106.401C115.407 105.832 115.772 105.173 115.999 104.461C116.225 103.749 116.307 102.999 116.241 102.255C116.174 101.511 115.96 100.788 115.611 100.128C114.937 98.7965 113.764 97.782 112.346 97.3171C110.928 96.8521 109.384 96.9695 108.052 97.6433C106.721 98.3171 105.712 99.4922 105.247 100.91C104.782 102.328 104.903 103.879 105.577 105.211Z" fill="#A020F0"/>
</g>
</g>
<defs>
<filter id="filter0_d_1333_2041" x="15.9878" y="14.9034" width="132.528" height="132.527" filterUnits="userSpaceOnUse" color-interpolation-filters="sRGB">
<feFlood flood-opacity="0" result="BackgroundImageFix"/>
<feColorMatrix in="SourceAlpha" type="matrix" values="0 0 0 0 0 0 0 0 0 0 0 0 0 0 0 0 0 0 127 0" result="hardAlpha"/>
<feOffset/>
<feGaussianBlur stdDeviation="5"/>
<feComposite in2="hardAlpha" operator="out"/>
<feColorMatrix type="matrix" values="0 0 0 0 0.188235 0 0 0 0 0.137255 0 0 0 0 0.945098 0 0 0 0.8 0"/>
<feBlend mode="normal" in2="BackgroundImageFix" result="effect1_dropShadow_1333_2041"/>
<feBlend mode="normal" in="SourceGraphic" in2="effect1_dropShadow_1333_2041" result="shape"/>
</filter>
<filter id="filter1_d_1333_2041" x="26.4455" y="18.7062" width="132.528" height="132.527" filterUnits="userSpaceOnUse" color-interpolation-filters="sRGB">
<feFlood flood-opacity="0" result="BackgroundImageFix"/>
<feColorMatrix in="SourceAlpha" type="matrix" values="0 0 0 0 0 0 0 0 0 0 0 0 0 0 0 0 0 0 127 0" result="hardAlpha"/>
<feOffset/>
<feGaussianBlur stdDeviation="5"/>
<feComposite in2="hardAlpha" operator="out"/>
<feColorMatrix type="matrix" values="0 0 0 0 0.627451 0 0 0 0 0.12549 0 0 0 0 0.941176 0 0 0 0.8 0"/>
<feBlend mode="normal" in2="BackgroundImageFix" result="effect1_dropShadow_1333_2041"/>
<feBlend mode="normal" in="SourceGraphic" in2="effect1_dropShadow_1333_2041" result="shape"/>
</filter>
<clipPath id="clip0_1333_2041">
<rect width="135" height="135" fill="white" transform="translate(41.2308) rotate(17.7246)"/>
</clipPath>
</defs>
</svg>
