<svg width="1757" height="551" viewBox="0 0 1757 551" fill="none" xmlns="http://www.w3.org/2000/svg">
<path d="M1119.48 192.943C1120.01 201.903 1113.94 210.921 1102.26 219.56C1090.61 228.186 1073.47 236.362 1052.08 243.645C1009.31 258.21 949.662 269.177 883.279 273.084C816.896 276.99 756.375 273.096 712.193 263.649C690.098 258.925 672.113 252.817 659.527 245.617C646.924 238.407 639.835 230.163 639.308 221.203C638.781 212.243 644.853 203.225 656.524 194.586C668.178 185.959 685.323 177.784 706.71 170.501C749.479 155.936 809.126 144.969 875.509 141.062C941.892 137.155 1002.41 141.05 1046.6 150.497C1068.69 155.221 1086.67 161.329 1099.26 168.529C1111.86 175.739 1118.95 183.982 1119.48 192.943Z" stroke="url(#paint0_linear_1799_3)" stroke-width="0.8"/>
<path d="M1423.89 189.956C1425.51 209.908 1411.96 230.239 1385.81 249.928C1359.68 269.603 1321.08 288.557 1272.83 305.764C1176.35 340.174 1041.4 367.561 890.865 379.758C740.328 391.956 602.733 386.651 501.968 368.223C451.582 359.008 410.428 346.516 381.473 331.304C352.498 316.082 335.849 298.198 334.233 278.246C332.616 258.295 346.168 237.964 372.315 218.275C398.444 198.6 437.049 179.645 485.294 162.439C581.778 128.028 716.725 100.641 867.261 88.4442C1017.8 76.247 1155.39 81.5513 1256.16 99.9798C1306.54 109.195 1347.7 121.687 1376.65 136.898C1405.63 152.121 1422.28 170.005 1423.89 189.956Z" stroke="url(#paint1_linear_1799_3)" stroke-width="0.8"/>
<path d="M1745.3 233.185C1746.85 265.164 1724.22 296.898 1681.72 326.9C1639.24 356.889 1577 385.073 1499.57 409.967C1344.73 459.754 1129.23 496.354 889.78 507.958C650.334 519.561 432.306 503.97 273.372 469.39C193.902 452.099 129.229 430.066 84.0446 404.325C38.8402 378.573 13.2487 349.176 11.699 317.197C10.1492 285.218 32.7783 253.484 75.2808 223.482C117.765 193.493 180.003 165.309 257.429 140.415C412.275 90.6288 627.774 54.0286 867.22 42.4248C1106.67 30.821 1324.69 46.4122 1483.63 80.9925C1563.1 98.2832 1627.77 120.317 1672.96 146.057C1718.16 171.809 1743.75 201.206 1745.3 233.185Z" stroke="url(#paint2_linear_1799_3)" stroke-width="0.8"/>
<defs>
<linearGradient id="paint0_linear_1799_3" x1="803.553" y1="143.832" x2="954.521" y2="299.451" gradientUnits="userSpaceOnUse">
<stop stop-color="#3854AF"/>
<stop offset="0.480769" stop-color="#7BA9CE"/>
<stop offset="1" stop-color="#0017AF"/>
</linearGradient>
<linearGradient id="paint1_linear_1799_3" x1="390.729" y1="207.332" x2="788.933" y2="707.093" gradientUnits="userSpaceOnUse">
<stop stop-color="#5C2780"/>
<stop offset="0.490385" stop-color="#96BFCE"/>
<stop offset="1" stop-color="#FFBAFD"/>
</linearGradient>
<linearGradient id="paint2_linear_1799_3" x1="630.5" y1="50.8318" x2="1211.76" y2="564.796" gradientUnits="userSpaceOnUse">
<stop stop-color="#D0777F"/>
<stop offset="0.504808" stop-color="#FCF6C8"/>
<stop offset="1" stop-color="#FFA8B0"/>
</linearGradient>
</defs>
</svg>
