<svg width="39" height="40" viewBox="0 0 39 40" fill="none" xmlns="http://www.w3.org/2000/svg">
<g filter="url(#filter0_dd_1333_3412)">
<path d="M22.4459 18.9703L22.4448 18.9693C22.2646 18.8245 22.075 18.6322 22.0102 18.3817C21.9735 18.2399 21.9794 18.0875 22.0403 17.9436C22.098 17.807 22.1909 17.7117 22.2742 17.6481C22.4304 17.5289 22.6205 17.4705 22.762 17.4377C22.9156 17.4022 23.0767 17.383 23.2171 17.3729C24.1188 17.306 25.2755 17.4699 26.3875 17.6967V15.6576C25.3032 15.4527 24.1032 15.3011 23.0664 15.3778L23.0662 15.3778C22.3729 15.4288 21.6227 15.5907 21.0233 16.0221C20.3659 16.4999 20 17.2226 20 18.1146C20 19.2126 20.5194 19.9869 21.1945 20.5297C21.6651 20.9063 22.2317 21.1487 22.8727 21.4189L22.9037 21.4319C23.5207 21.6917 24.2117 21.9827 24.7958 22.4637L22.4459 18.9703ZM22.4459 18.9703C23.0353 19.4411 23.7219 19.7302 24.3365 19.9889L24.3451 19.9926C24.3453 19.9927 24.3455 19.9927 24.3457 19.9928C25.0015 20.2704 25.5807 20.5195 26.0644 20.9173L26.0645 20.9174M22.4459 18.9703L26.0645 20.9174M26.0645 20.9174C26.7405 21.473 27.25 22.2583 27.25 23.3646M26.0645 20.9174L27.25 23.3646M27.25 23.3646C27.25 24.4694 26.7378 25.291 25.9191 25.7869L27.25 23.3646ZM24.8942 24.0688C24.5986 24.2471 24.0831 24.3825 23.3387 24.4C22.1575 24.4299 20.7586 24.1741 19.6835 23.9061V25.9615C20.7927 26.213 22.1556 26.431 23.3889 26.4003C24.2483 26.3786 25.1754 26.2364 25.919 25.7869L24.7964 22.4642C24.9591 22.598 25.1275 22.8274 25.2117 23.0718C25.2551 23.198 25.291 23.3707 25.2548 23.5577C25.2146 23.7645 25.0928 23.9493 24.8942 24.0688ZM24.8942 24.0688C24.8939 24.069 24.8936 24.0692 24.8932 24.0694L24.636 23.6406L24.8942 24.0688ZM11.25 21.3646H10.75V21.8646V25.8646H8.75V11.8646H13.5C14.7598 11.8646 15.968 12.3651 16.8588 13.2559C17.7496 14.1467 18.25 15.3548 18.25 16.6146C18.25 17.8744 17.7496 19.0826 16.8588 19.9734C15.968 20.8642 14.7598 21.3646 13.5 21.3646H11.25ZM10.75 18.8646V19.3646H11.25H13.5C14.2293 19.3646 14.9288 19.0749 15.4445 18.5592C15.9603 18.0434 16.25 17.344 16.25 16.6146C16.25 15.8853 15.9603 15.1858 15.4445 14.6701C14.9288 14.1544 14.2293 13.8646 13.5 13.8646H11.25H10.75V14.3646V18.8646ZM1.625 7.83962C1.625 6.42072 2.18866 5.05992 3.19198 4.0566C4.1953 3.05328 5.55609 2.48962 6.975 2.48962H29.025C30.4439 2.48962 31.8047 3.05328 32.808 4.0566C33.8113 5.05992 34.375 6.42072 34.375 7.83962V29.8896C34.375 31.3085 33.8113 32.6693 32.808 33.6726C31.8047 34.676 30.4439 35.2396 29.025 35.2396H6.975C5.55609 35.2396 4.1953 34.676 3.19198 33.6726C2.18866 32.6693 1.625 31.3085 1.625 29.8896V7.83962ZM6.975 3.73962C5.88761 3.73962 4.84476 4.17159 4.07586 4.94049C3.30696 5.70939 2.875 6.75224 2.875 7.83962V29.8896C2.875 30.977 3.30696 32.0199 4.07586 32.7888C4.84476 33.5577 5.88761 33.9896 6.975 33.9896H29.025C30.1124 33.9896 31.1552 33.5577 31.9241 32.7888C32.693 32.0199 33.125 30.977 33.125 29.8896V7.83962C33.125 6.75224 32.693 5.70939 31.9241 4.94049C31.1552 4.17159 30.1124 3.73962 29.025 3.73962H6.975Z" fill="#CF15FD" stroke="#CF15FD"/>
</g>
<defs>
<filter id="filter0_dd_1333_3412" x="-1" y="-0.135376" width="41" height="41" filterUnits="userSpaceOnUse" color-interpolation-filters="sRGB">
<feFlood flood-opacity="0" result="BackgroundImageFix"/>
<feColorMatrix in="SourceAlpha" type="matrix" values="0 0 0 0 0 0 0 0 0 0 0 0 0 0 0 0 0 0 127 0" result="hardAlpha"/>
<feOffset dx="1" dy="1"/>
<feGaussianBlur stdDeviation="1"/>
<feColorMatrix type="matrix" values="0 0 0 0 0.801724 0 0 0 0 0 0 0 0 0 1 0 0 0 0.8 0"/>
<feBlend mode="normal" in2="BackgroundImageFix" result="effect1_dropShadow_1333_3412"/>
<feColorMatrix in="SourceAlpha" type="matrix" values="0 0 0 0 0 0 0 0 0 0 0 0 0 0 0 0 0 0 127 0" result="hardAlpha"/>
<feOffset dx="2" dy="2"/>
<feGaussianBlur stdDeviation="1"/>
<feColorMatrix type="matrix" values="0 0 0 0 0.203922 0 0 0 0 0.176471 0 0 0 0 1 0 0 0 0.6 0"/>
<feBlend mode="normal" in2="effect1_dropShadow_1333_3412" result="effect2_dropShadow_1333_3412"/>
<feBlend mode="normal" in="SourceGraphic" in2="effect2_dropShadow_1333_3412" result="shape"/>
</filter>
</defs>
</svg>
