<svg width="362" height="410" viewBox="0 0 362 410" fill="none" xmlns="http://www.w3.org/2000/svg">
<g filter="url(#filter0_f_2597_1225)">
<path d="M6.12451 405H356V17.5999H193.345L181.498 5H18.3628L6 18.1486L6.12451 405ZM355.011 403.108H7.83219L7.17993 401.197V18.9432L19.1099 6.89188H180.769L192.616 19.4918H355.011V403.108Z" fill="#70F1FF"/>
<path d="M6.12451 405H356V17.5999H193.345L181.498 5H18.3628L6 18.1486L6.12451 405ZM355.011 403.108H7.83219L7.17993 401.197V18.9432L19.1099 6.89188H180.769L192.616 19.4918H355.011V403.108Z" fill="#4EFFB8"/>
</g>
<g filter="url(#filter1_d_2597_1225)">
<path d="M13 397V25.0009L23.343 14H179.776L192.075 26.7667H348.922L349 397H13Z" fill="#BCEDFF" fill-opacity="0.05" shape-rendering="crispEdges"/>
<path d="M23.71 14.8496L13.8496 25.3369V396.15H348.15L348.072 27.6162H191.713L191.463 27.3564L179.414 14.8496H23.71Z" stroke="#EA15FD" stroke-width="1.7" shape-rendering="crispEdges"/>
</g>
<g filter="url(#filter2_d_2597_1225)">
<path d="M23.502 14.4004L13.4004 24.9619V396.6H348.6V27.167H191.898L191.78 27.0439L179.601 14.4004H23.502Z" stroke="#FF0017" stroke-width="0.8" shape-rendering="crispEdges"/>
<path d="M23.502 14.4004L13.4004 24.9619V396.6H348.6V27.167H191.898L191.78 27.0439L179.601 14.4004H23.502Z" stroke="white" stroke-opacity="0.3" stroke-width="0.8" shape-rendering="crispEdges"/>
</g>
<g filter="url(#filter3_dd_2597_1225)">
<path d="M6.59543 404.033H355.564V18.4895H193.331L181.515 5.94995H18.802L6.47125 19.0355L6.59543 404.033ZM353.5 402.15H8.5V20L19.5471 7.83276H180.787L192.603 20.3723L353.5 20.5V402.15Z" fill="#70F1FF"/>
</g>
<defs>
<filter id="filter0_f_2597_1225" x="4.822" y="3.822" width="352.356" height="402.356" filterUnits="userSpaceOnUse" color-interpolation-filters="sRGB">
<feFlood flood-opacity="0" result="BackgroundImageFix"/>
<feBlend mode="normal" in="SourceGraphic" in2="BackgroundImageFix" result="shape"/>
<feGaussianBlur stdDeviation="0.589" result="effect1_foregroundBlur_2597_1225"/>
</filter>
<filter id="filter1_d_2597_1225" x="6" y="7" width="350" height="397" filterUnits="userSpaceOnUse" color-interpolation-filters="sRGB">
<feFlood flood-opacity="0" result="BackgroundImageFix"/>
<feColorMatrix in="SourceAlpha" type="matrix" values="0 0 0 0 0 0 0 0 0 0 0 0 0 0 0 0 0 0 127 0" result="hardAlpha"/>
<feOffset/>
<feGaussianBlur stdDeviation="3.5"/>
<feComposite in2="hardAlpha" operator="out"/>
<feColorMatrix type="matrix" values="0 0 0 0 0.917647 0 0 0 0 0.0823529 0 0 0 0 0.992157 0 0 0 1 0"/>
<feBlend mode="normal" in2="BackgroundImageFix" result="effect1_dropShadow_2597_1225"/>
<feBlend mode="normal" in="SourceGraphic" in2="effect1_dropShadow_2597_1225" result="shape"/>
</filter>
<filter id="filter2_d_2597_1225" x="6" y="7" width="350" height="397" filterUnits="userSpaceOnUse" color-interpolation-filters="sRGB">
<feFlood flood-opacity="0" result="BackgroundImageFix"/>
<feColorMatrix in="SourceAlpha" type="matrix" values="0 0 0 0 0 0 0 0 0 0 0 0 0 0 0 0 0 0 127 0" result="hardAlpha"/>
<feOffset/>
<feGaussianBlur stdDeviation="3.5"/>
<feComposite in2="hardAlpha" operator="out"/>
<feColorMatrix type="matrix" values="0 0 0 0 0.917647 0 0 0 0 0.0823529 0 0 0 0 0.992157 0 0 0 1 0"/>
<feBlend mode="normal" in2="BackgroundImageFix" result="effect1_dropShadow_2597_1225"/>
<feBlend mode="normal" in="SourceGraphic" in2="effect1_dropShadow_2597_1225" result="shape"/>
</filter>
<filter id="filter3_dd_2597_1225" x="0.581188" y="0.0599475" width="360.873" height="409.863" filterUnits="userSpaceOnUse" color-interpolation-filters="sRGB">
<feFlood flood-opacity="0" result="BackgroundImageFix"/>
<feColorMatrix in="SourceAlpha" type="matrix" values="0 0 0 0 0 0 0 0 0 0 0 0 0 0 0 0 0 0 127 0" result="hardAlpha"/>
<feOffset/>
<feGaussianBlur stdDeviation="2.945"/>
<feComposite in2="hardAlpha" operator="out"/>
<feColorMatrix type="matrix" values="0 0 0 0 0 0 0 0 0 1 0 0 0 0 1 0 0 0 1 0"/>
<feBlend mode="normal" in2="BackgroundImageFix" result="effect1_dropShadow_2597_1225"/>
<feColorMatrix in="SourceAlpha" type="matrix" values="0 0 0 0 0 0 0 0 0 0 0 0 0 0 0 0 0 0 127 0" result="hardAlpha"/>
<feOffset/>
<feGaussianBlur stdDeviation="1.96333"/>
<feComposite in2="hardAlpha" operator="out"/>
<feColorMatrix type="matrix" values="0 0 0 0 0.439216 0 0 0 0 0.945098 0 0 0 0 1 0 0 0 1 0"/>
<feBlend mode="normal" in2="effect1_dropShadow_2597_1225" result="effect2_dropShadow_2597_1225"/>
<feBlend mode="normal" in="SourceGraphic" in2="effect2_dropShadow_2597_1225" result="shape"/>
</filter>
</defs>
</svg>
