<svg width="41" height="38" viewBox="0 0 41 38" fill="none" xmlns="http://www.w3.org/2000/svg">
<g filter="url(#filter0_dd_1333_3396)">
<mask id="path-1-inside-1_1333_3396" fill="white">
<path d="M30.514 12.484C30.1483 12.3582 29.7694 12.2391 29.3792 12.1265C29.4433 11.8647 29.5022 11.6064 29.5545 11.3525C30.4135 7.18294 29.8519 3.82388 27.9341 2.71796C26.0951 1.65751 23.0878 2.7632 20.0504 5.40649C19.7584 5.66066 19.4654 5.9298 19.1727 6.21184C18.9776 6.02524 18.7829 5.8449 18.5886 5.6724C15.4054 2.84602 12.2147 1.65494 10.2988 2.76407C8.46164 3.82759 7.91758 6.98539 8.69076 10.9369C8.76542 11.3186 8.85272 11.7084 8.95142 12.1047C8.49985 12.2328 8.06391 12.3695 7.64676 12.5149C3.91479 13.816 1.53137 15.8552 1.53137 17.9704C1.53137 20.155 4.08997 22.3461 7.97713 23.6748C8.28388 23.7796 8.60218 23.8787 8.9302 23.9729C8.82373 24.4015 8.73111 24.8215 8.65337 25.2311C7.91612 29.1141 8.49186 32.1973 10.3241 33.2541C12.2167 34.3455 15.3929 33.2236 18.4858 30.5201C18.7303 30.3064 18.9756 30.0798 19.2214 29.8422C19.5399 30.149 19.858 30.4393 20.1743 30.7116C23.1701 33.2896 26.129 34.3306 27.9596 33.2708C29.8502 32.1763 30.4647 28.8642 29.6669 24.8345C29.606 24.5268 29.5351 24.2124 29.4555 23.8923C29.6786 23.8264 29.8975 23.7583 30.1111 23.6876C34.1521 22.3487 36.7814 20.1842 36.7814 17.9704C36.7814 15.8476 34.3211 13.7946 30.514 12.484ZM29.6375 22.2582C29.4447 22.322 29.2469 22.3837 29.0454 22.4435C28.5993 21.0311 27.9972 19.5294 27.2604 17.9777C27.9635 16.4631 28.5423 14.9805 28.976 13.5773C29.3365 13.6817 29.6865 13.7918 30.0238 13.9079C33.2857 15.0308 35.2755 16.6911 35.2755 17.9704C35.2755 19.3331 33.1266 21.102 29.6375 22.2582ZM28.1897 25.127C28.5424 26.9089 28.5928 28.5199 28.3592 29.7793C28.1492 30.9109 27.727 31.6655 27.205 31.9676C26.0941 32.6106 23.7185 31.7748 21.1564 29.5701C20.8627 29.3174 20.5669 29.0475 20.2701 28.7619C21.2633 27.6756 22.256 26.4128 23.2249 25.0102C24.9289 24.859 26.5389 24.6118 27.9989 24.2743C28.0708 24.5643 28.1347 24.8488 28.1897 25.127ZM13.5489 31.8565C12.4635 32.2398 11.5991 32.2508 11.0766 31.9495C9.96467 31.3082 9.50245 28.8327 10.133 25.512C10.2052 25.1317 10.2911 24.741 10.3902 24.3417C11.8342 24.6611 13.4324 24.8908 15.1405 25.0293C16.1159 26.4017 17.1373 27.6632 18.1665 28.7677C17.9416 28.9848 17.7176 29.1915 17.4949 29.3863C16.1273 30.5817 14.7567 31.4299 13.5489 31.8565ZM8.46415 22.2498C6.74533 21.6624 5.32585 20.8988 4.35287 20.0656C3.47859 19.3169 3.03718 18.5736 3.03718 17.9704C3.03718 16.6868 4.95081 15.0497 8.14243 13.9369C8.5297 13.8018 8.93511 13.6746 9.35578 13.5551C9.7969 14.9899 10.3755 16.4901 11.0738 18.0071C10.3665 19.5465 9.77965 21.0706 9.33422 22.5223C9.0343 22.4361 8.74375 22.3453 8.46415 22.2498ZM10.1686 10.6478C9.50612 7.26218 9.94611 4.7082 11.0532 4.06733C12.2325 3.38462 14.8402 4.35803 17.5887 6.79849C17.7644 6.95445 17.9408 7.11773 18.1176 7.28663C17.0935 8.38635 16.0814 9.63836 15.1147 11.0027C13.4569 11.1563 11.87 11.4032 10.4109 11.7337C10.3192 11.3647 10.2379 11.0022 10.1686 10.6478ZM25.3738 14.4023C25.025 13.7999 24.667 13.2116 24.3019 12.6395C25.4266 12.7816 26.5042 12.9704 27.5161 13.2013C27.2123 14.175 26.8337 15.193 26.3879 16.2366C26.0682 15.6296 25.73 15.0175 25.3738 14.4023ZM19.1732 8.36284C19.8678 9.11531 20.5634 9.95546 21.2475 10.867C20.5581 10.8345 19.8601 10.8175 19.1564 10.8175C18.4593 10.8175 17.7665 10.8341 17.0813 10.8661C17.7661 9.963 18.4678 9.12398 19.1732 8.36284ZM12.9328 14.4127C12.5844 15.0169 12.2525 15.6257 11.9377 16.2355C11.4992 15.1955 11.1241 14.1729 10.8176 13.1854C11.8234 12.9603 12.8959 12.7763 14.0134 12.6368C13.6432 13.2143 13.2822 13.8069 12.9328 14.4127ZM14.0456 23.4114C12.8909 23.2826 11.8023 23.1081 10.7969 22.8892C11.1082 21.8841 11.4916 20.8396 11.9394 19.7772C12.255 20.3866 12.5882 20.9956 12.9388 21.6011C13.2958 22.218 13.6658 22.8222 14.0456 23.4114ZM19.2148 27.6841C18.5011 26.9141 17.7892 26.0622 17.0939 25.146C17.7689 25.1725 18.457 25.186 19.1564 25.186C19.8749 25.186 20.5851 25.1698 21.2842 25.1387C20.5978 26.0715 19.9047 26.9246 19.2148 27.6841ZM26.4023 19.7231C26.8735 20.7969 27.2706 21.836 27.586 22.8239C26.5639 23.0571 25.4604 23.2449 24.2978 23.3844C24.6637 22.8045 25.0249 22.2062 25.3799 21.5907C25.739 20.9681 26.0799 20.3445 26.4023 19.7231ZM24.0755 20.8385C23.5244 21.7939 22.9588 22.7059 22.3844 23.5668C21.3384 23.6416 20.2578 23.6802 19.1564 23.6802C18.0594 23.6802 16.9924 23.6461 15.9649 23.5794C15.3674 22.7072 14.7894 21.7924 14.2419 20.8467C13.6958 19.9035 13.1934 18.9524 12.738 18.0065C13.1933 17.0585 13.6945 16.1063 14.2375 15.1649C14.7818 14.2209 15.3546 13.3107 15.9466 12.444C16.9949 12.3647 18.0699 12.3234 19.1563 12.3234C20.2476 12.3234 21.3241 12.3651 22.3721 12.445C22.955 13.3054 23.524 14.2128 24.0705 15.1569C24.6232 16.1116 25.131 17.0575 25.5901 17.9852C25.1323 18.9288 24.6257 19.8842 24.0755 20.8385ZM27.1819 4.02255C28.3623 4.70325 28.8214 7.44859 28.0797 11.0486C28.0324 11.2782 27.9791 11.5122 27.9213 11.7494C26.4588 11.4119 24.8708 11.1608 23.2081 11.0048C22.2395 9.6255 21.2358 8.37154 20.2283 7.28595C20.4992 7.02536 20.7697 6.77689 21.039 6.54244C23.6414 4.27766 26.0737 3.38349 27.1819 4.02255ZM19.1564 14.8227C20.8948 14.8227 22.3041 16.232 22.3041 17.9704C22.3041 19.7088 20.8948 21.1181 19.1564 21.1181C17.418 21.1181 16.0087 19.7088 16.0087 17.9704C16.0087 16.232 17.418 14.8227 19.1564 14.8227Z"/>
</mask>
<path d="M30.514 12.484C30.1483 12.3582 29.7694 12.2391 29.3792 12.1265C29.4433 11.8647 29.5022 11.6064 29.5545 11.3525C30.4135 7.18294 29.8519 3.82388 27.9341 2.71796C26.0951 1.65751 23.0878 2.7632 20.0504 5.40649C19.7584 5.66066 19.4654 5.9298 19.1727 6.21184C18.9776 6.02524 18.7829 5.8449 18.5886 5.6724C15.4054 2.84602 12.2147 1.65494 10.2988 2.76407C8.46164 3.82759 7.91758 6.98539 8.69076 10.9369C8.76542 11.3186 8.85272 11.7084 8.95142 12.1047C8.49985 12.2328 8.06391 12.3695 7.64676 12.5149C3.91479 13.816 1.53137 15.8552 1.53137 17.9704C1.53137 20.155 4.08997 22.3461 7.97713 23.6748C8.28388 23.7796 8.60218 23.8787 8.9302 23.9729C8.82373 24.4015 8.73111 24.8215 8.65337 25.2311C7.91612 29.1141 8.49186 32.1973 10.3241 33.2541C12.2167 34.3455 15.3929 33.2236 18.4858 30.5201C18.7303 30.3064 18.9756 30.0798 19.2214 29.8422C19.5399 30.149 19.858 30.4393 20.1743 30.7116C23.1701 33.2896 26.129 34.3306 27.9596 33.2708C29.8502 32.1763 30.4647 28.8642 29.6669 24.8345C29.606 24.5268 29.5351 24.2124 29.4555 23.8923C29.6786 23.8264 29.8975 23.7583 30.1111 23.6876C34.1521 22.3487 36.7814 20.1842 36.7814 17.9704C36.7814 15.8476 34.3211 13.7946 30.514 12.484ZM29.6375 22.2582C29.4447 22.322 29.2469 22.3837 29.0454 22.4435C28.5993 21.0311 27.9972 19.5294 27.2604 17.9777C27.9635 16.4631 28.5423 14.9805 28.976 13.5773C29.3365 13.6817 29.6865 13.7918 30.0238 13.9079C33.2857 15.0308 35.2755 16.6911 35.2755 17.9704C35.2755 19.3331 33.1266 21.102 29.6375 22.2582ZM28.1897 25.127C28.5424 26.9089 28.5928 28.5199 28.3592 29.7793C28.1492 30.9109 27.727 31.6655 27.205 31.9676C26.0941 32.6106 23.7185 31.7748 21.1564 29.5701C20.8627 29.3174 20.5669 29.0475 20.2701 28.7619C21.2633 27.6756 22.256 26.4128 23.2249 25.0102C24.9289 24.859 26.5389 24.6118 27.9989 24.2743C28.0708 24.5643 28.1347 24.8488 28.1897 25.127ZM13.5489 31.8565C12.4635 32.2398 11.5991 32.2508 11.0766 31.9495C9.96467 31.3082 9.50245 28.8327 10.133 25.512C10.2052 25.1317 10.2911 24.741 10.3902 24.3417C11.8342 24.6611 13.4324 24.8908 15.1405 25.0293C16.1159 26.4017 17.1373 27.6632 18.1665 28.7677C17.9416 28.9848 17.7176 29.1915 17.4949 29.3863C16.1273 30.5817 14.7567 31.4299 13.5489 31.8565ZM8.46415 22.2498C6.74533 21.6624 5.32585 20.8988 4.35287 20.0656C3.47859 19.3169 3.03718 18.5736 3.03718 17.9704C3.03718 16.6868 4.95081 15.0497 8.14243 13.9369C8.5297 13.8018 8.93511 13.6746 9.35578 13.5551C9.7969 14.9899 10.3755 16.4901 11.0738 18.0071C10.3665 19.5465 9.77965 21.0706 9.33422 22.5223C9.0343 22.4361 8.74375 22.3453 8.46415 22.2498ZM10.1686 10.6478C9.50612 7.26218 9.94611 4.7082 11.0532 4.06733C12.2325 3.38462 14.8402 4.35803 17.5887 6.79849C17.7644 6.95445 17.9408 7.11773 18.1176 7.28663C17.0935 8.38635 16.0814 9.63836 15.1147 11.0027C13.4569 11.1563 11.87 11.4032 10.4109 11.7337C10.3192 11.3647 10.2379 11.0022 10.1686 10.6478ZM25.3738 14.4023C25.025 13.7999 24.667 13.2116 24.3019 12.6395C25.4266 12.7816 26.5042 12.9704 27.5161 13.2013C27.2123 14.175 26.8337 15.193 26.3879 16.2366C26.0682 15.6296 25.73 15.0175 25.3738 14.4023ZM19.1732 8.36284C19.8678 9.11531 20.5634 9.95546 21.2475 10.867C20.5581 10.8345 19.8601 10.8175 19.1564 10.8175C18.4593 10.8175 17.7665 10.8341 17.0813 10.8661C17.7661 9.963 18.4678 9.12398 19.1732 8.36284ZM12.9328 14.4127C12.5844 15.0169 12.2525 15.6257 11.9377 16.2355C11.4992 15.1955 11.1241 14.1729 10.8176 13.1854C11.8234 12.9603 12.8959 12.7763 14.0134 12.6368C13.6432 13.2143 13.2822 13.8069 12.9328 14.4127ZM14.0456 23.4114C12.8909 23.2826 11.8023 23.1081 10.7969 22.8892C11.1082 21.8841 11.4916 20.8396 11.9394 19.7772C12.255 20.3866 12.5882 20.9956 12.9388 21.6011C13.2958 22.218 13.6658 22.8222 14.0456 23.4114ZM19.2148 27.6841C18.5011 26.9141 17.7892 26.0622 17.0939 25.146C17.7689 25.1725 18.457 25.186 19.1564 25.186C19.8749 25.186 20.5851 25.1698 21.2842 25.1387C20.5978 26.0715 19.9047 26.9246 19.2148 27.6841ZM26.4023 19.7231C26.8735 20.7969 27.2706 21.836 27.586 22.8239C26.5639 23.0571 25.4604 23.2449 24.2978 23.3844C24.6637 22.8045 25.0249 22.2062 25.3799 21.5907C25.739 20.9681 26.0799 20.3445 26.4023 19.7231ZM24.0755 20.8385C23.5244 21.7939 22.9588 22.7059 22.3844 23.5668C21.3384 23.6416 20.2578 23.6802 19.1564 23.6802C18.0594 23.6802 16.9924 23.6461 15.9649 23.5794C15.3674 22.7072 14.7894 21.7924 14.2419 20.8467C13.6958 19.9035 13.1934 18.9524 12.738 18.0065C13.1933 17.0585 13.6945 16.1063 14.2375 15.1649C14.7818 14.2209 15.3546 13.3107 15.9466 12.444C16.9949 12.3647 18.0699 12.3234 19.1563 12.3234C20.2476 12.3234 21.3241 12.3651 22.3721 12.445C22.955 13.3054 23.524 14.2128 24.0705 15.1569C24.6232 16.1116 25.131 17.0575 25.5901 17.9852C25.1323 18.9288 24.6257 19.8842 24.0755 20.8385ZM27.1819 4.02255C28.3623 4.70325 28.8214 7.44859 28.0797 11.0486C28.0324 11.2782 27.9791 11.5122 27.9213 11.7494C26.4588 11.4119 24.8708 11.1608 23.2081 11.0048C22.2395 9.6255 21.2358 8.37154 20.2283 7.28595C20.4992 7.02536 20.7697 6.77689 21.039 6.54244C23.6414 4.27766 26.0737 3.38349 27.1819 4.02255ZM19.1564 14.8227C20.8948 14.8227 22.3041 16.232 22.3041 17.9704C22.3041 19.7088 20.8948 21.1181 19.1564 21.1181C17.418 21.1181 16.0087 19.7088 16.0087 17.9704C16.0087 16.232 17.418 14.8227 19.1564 14.8227Z" fill="#CF15FD" stroke="#CF15FD" stroke-width="2" mask="url(#path-1-inside-1_1333_3396)"/>
</g>
<defs>
<filter id="filter0_dd_1333_3396" x="0.156372" y="-1" width="41" height="41" filterUnits="userSpaceOnUse" color-interpolation-filters="sRGB">
<feFlood flood-opacity="0" result="BackgroundImageFix"/>
<feColorMatrix in="SourceAlpha" type="matrix" values="0 0 0 0 0 0 0 0 0 0 0 0 0 0 0 0 0 0 127 0" result="hardAlpha"/>
<feOffset dx="1" dy="1"/>
<feGaussianBlur stdDeviation="1"/>
<feColorMatrix type="matrix" values="0 0 0 0 0.801724 0 0 0 0 0 0 0 0 0 1 0 0 0 0.8 0"/>
<feBlend mode="normal" in2="BackgroundImageFix" result="effect1_dropShadow_1333_3396"/>
<feColorMatrix in="SourceAlpha" type="matrix" values="0 0 0 0 0 0 0 0 0 0 0 0 0 0 0 0 0 0 127 0" result="hardAlpha"/>
<feOffset dx="2" dy="2"/>
<feGaussianBlur stdDeviation="1"/>
<feColorMatrix type="matrix" values="0 0 0 0 0.203922 0 0 0 0 0.176471 0 0 0 0 1 0 0 0 0.6 0"/>
<feBlend mode="normal" in2="effect1_dropShadow_1333_3396" result="effect2_dropShadow_1333_3396"/>
<feBlend mode="normal" in="SourceGraphic" in2="effect2_dropShadow_1333_3396" result="shape"/>
</filter>
</defs>
</svg>
