<svg width="199" height="198" viewBox="0 0 199 198" fill="none" xmlns="http://www.w3.org/2000/svg">
<g filter="url(#filter0_d_1333_3501)">
<g filter="url(#filter1_d_1333_3501)">
<path d="M120.827 42.2063C132.855 46.188 143.501 53.513 151.518 63.324C159.535 73.1351 164.592 85.0264 166.097 97.6066C181.104 107.22 196.457 121.222 191.426 136.317C185.784 153.25 159.989 155.097 129.934 149.74C123.13 154.437 115.326 157.488 107.14 158.652C98.9542 159.817 90.6097 159.062 82.7653 156.448C74.9209 153.834 67.7915 149.433 61.9398 143.592C56.088 137.75 51.6742 130.628 49.0468 122.789C21.7837 109.052 2.24791 92.1037 7.89004 75.1707C12.9196 60.0683 33.606 58.0723 51.3748 59.3828C60.1249 50.2193 71.3038 43.7374 83.6035 40.6955C95.9031 37.6537 108.815 38.1777 120.827 42.2063ZM20.6949 79.4373C17.9558 87.6622 38.995 108.201 92.8625 126.147C146.731 144.1 175.882 140.275 178.621 132.051C180.896 125.242 167.714 113.869 153.076 105.486C141.688 98.9109 126.284 91.9515 106.431 85.3359C101.025 83.5349 98.4095 77.5808 100.105 72.4796C101.807 67.3776 106.273 63.6412 116.297 62.1883C121.035 61.7109 121.527 60.3366 121.633 59.1884C121.732 57.4229 119.148 55.8891 116.555 55.0269C95.9374 48.1543 72.1047 54.2025 57.062 73.4922C40.3196 71.4259 22.962 72.6299 20.6949 79.4373ZM107.552 113.658C106.153 117.864 100.772 119.859 95.5452 118.116C90.3187 116.372 87.2183 111.551 88.6172 107.353C90.0153 103.147 95.3896 101.153 100.616 102.896C105.843 104.639 108.958 109.46 107.552 113.658ZM139.254 128.1C144.649 129.096 149.667 126.383 150.464 122.048C151.263 117.72 147.54 113.396 142.139 112.408C136.751 111.412 131.734 114.125 130.936 118.46C130.138 122.788 133.853 127.113 139.254 128.1ZM61.6562 85.5907C66.5668 88.0353 68.956 93.2127 66.9972 97.1566C65.0385 101.1 59.4683 102.322 54.5577 99.8776C49.6478 97.4405 47.2587 92.263 49.2092 88.3124C51.1754 84.3678 56.7456 83.146 61.6562 85.5907Z" fill="#CF15FD"/>
</g>
</g>
<defs>
<filter id="filter0_d_1333_3501" x="-5.31543" y="-5.31543" width="208.631" height="208.631" filterUnits="userSpaceOnUse" color-interpolation-filters="sRGB">
<feFlood flood-opacity="0" result="BackgroundImageFix"/>
<feColorMatrix in="SourceAlpha" type="matrix" values="0 0 0 0 0 0 0 0 0 0 0 0 0 0 0 0 0 0 127 0" result="hardAlpha"/>
<feOffset/>
<feGaussianBlur stdDeviation="3"/>
<feColorMatrix type="matrix" values="0 0 0 0 0.482353 0 0 0 0 0 0 0 0 0 1 0 0 0 1 0"/>
<feBlend mode="normal" in2="BackgroundImageFix" result="effect1_dropShadow_1333_3501"/>
<feBlend mode="normal" in="SourceGraphic" in2="effect1_dropShadow_1333_3501" result="shape"/>
</filter>
<filter id="filter1_d_1333_3501" x="4.91565" y="36.7446" width="193.485" height="128.439" filterUnits="userSpaceOnUse" color-interpolation-filters="sRGB">
<feFlood flood-opacity="0" result="BackgroundImageFix"/>
<feColorMatrix in="SourceAlpha" type="matrix" values="0 0 0 0 0 0 0 0 0 0 0 0 0 0 0 0 0 0 127 0" result="hardAlpha"/>
<feOffset dx="2" dy="2"/>
<feGaussianBlur stdDeviation="2"/>
<feComposite in2="hardAlpha" operator="out"/>
<feColorMatrix type="matrix" values="0 0 0 0 0.482353 0 0 0 0 0 0 0 0 0 1 0 0 0 1 0"/>
<feBlend mode="normal" in2="BackgroundImageFix" result="effect1_dropShadow_1333_3501"/>
<feBlend mode="normal" in="SourceGraphic" in2="effect1_dropShadow_1333_3501" result="shape"/>
</filter>
</defs>
</svg>
