<svg width="909" height="250" viewBox="0 0 909 250" fill="none" xmlns="http://www.w3.org/2000/svg">
<g filter="url(#filter0_d_1670_193)">
<path d="M82.22 132.82C81.76 133.43 81.02 133.54 80.01 133.14C78.8 132.65 75.57 130.45 70.33 126.51C65.52 122.91 62.54 120.45 61.36 119.15C60.39 118.06 60.24 116.75 60.91 115.24C63.42 109.51 64.49 106.23 64.1 105.42C63.74 104.78 59.33 101.28 50.86 94.93C45.15 90.64 41.99 88.52 41.39 88.54C40.41 88.65 38.42 89.99 35.4 92.54C32.65 94.87 30.74 95.81 29.65 95.37C28.3 94.78 24.37 92.05 17.85 87.16C12.71 83.3 10.51 80.89 11.24 79.9C11.9 79.02 23.81 71.05 46.97 56C72.04 39.73 85.76 30.74 88.14 29.04C89.51 28.06 90.46 27.77 91 28.17C91.91 28.85 93.25 29.99 95.02 31.58C96.79 33.17 98.15 34.32 99.09 35.03C100 35.71 101.38 36.65 103.23 37.86C105.08 39.07 106.45 39.99 107.32 40.65C107.96 41.13 108.13 42.13 107.83 43.65C106.81 48.44 102.47 64.23 94.82 91.02C87.1 117.97 82.9 131.91 82.21 132.82H82.22ZM81.18 59.76C79.36 60.72 75.74 63.06 70.33 66.77C64.55 70.69 61.32 73.11 60.64 74.02C60.18 74.63 60.94 75.72 62.9 77.3C63.89 78.15 65.58 79.47 67.96 81.26C70.18 82.92 71.61 83.57 72.25 83.21C72.44 83.09 72.66 82.88 72.88 82.57C73.72 81.45 75.26 77.79 77.49 71.59C79.63 65.58 80.86 61.63 81.17 59.75L81.18 59.76Z" fill="#D0FD56"/>
<path d="M142.89 114.21C140.41 118.55 136.8 125.13 132.04 133.97C127.29 142.8 123.67 149.39 121.19 153.73C120.77 154.47 120.34 154.83 119.91 154.83C119.82 154.83 119.3 154.63 118.36 154.24C115.82 153.18 112.56 151.51 108.59 149.24C103.26 146.2 99.96 144.11 98.67 142.99C97.74 142.17 97.53 141.29 98.06 140.38C97.72 140.97 99.73 137.83 104.09 130.96C113.24 116.45 119.15 106.86 121.82 102.2C124.07 98.27 127.3 92.3 131.54 84.29C135.77 76.28 139.02 70.31 141.26 66.38C141.72 65.57 142.37 65.41 143.21 65.89C144.34 66.54 146.01 67.56 148.23 68.98C150.45 70.39 152.12 71.42 153.25 72.07C154.38 72.72 156.08 73.61 158.35 74.76C160.62 75.91 162.32 76.81 163.45 77.45C164.51 78.05 164.81 78.76 164.34 79.57C162.09 83.5 158.52 89.28 153.61 96.9C148.7 104.52 145.12 110.3 142.88 114.24L142.89 114.21Z" fill="#D0FD56"/>
<path d="M251.97 119.77C250.09 124.21 247.09 130.81 242.96 139.56C238.83 148.31 235.82 154.93 233.92 159.41L217.64 197.94C217.2 198.99 216.41 199.28 215.29 198.81C214.36 198.42 212.94 197.86 211.03 197.15C209.12 196.43 207.7 195.88 206.77 195.49C205.76 195.06 204.29 194.35 202.34 193.34C200.39 192.33 198.92 191.62 197.91 191.19C197.21 190.9 196.65 189.9 196.23 188.21C195.04 183.25 192.31 172.22 188.05 155.12C186.91 150.37 185.11 143.31 182.63 133.95C182.57 133.65 182.38 133.29 182.06 132.88C181.63 133.02 181.3 133.39 181.05 133.97C179.14 138.49 176.4 145.33 172.83 154.48C169.26 163.63 166.52 170.47 164.61 174.99C164.03 176.35 163.22 176.82 162.18 176.37L142.1 167.89C140.98 167.42 140.67 166.58 141.18 165.37C142.96 161.16 145.85 154.89 149.84 146.57C153.84 138.24 156.73 131.96 158.53 127.71C160.42 123.23 163.07 116.44 166.48 107.36C169.88 98.28 172.52 91.52 174.4 87.07C174.76 86.21 175.7 86.1 177.21 86.74C179.45 87.69 182.29 88.7 185.71 89.78C186.52 90.03 188.15 90.42 190.62 90.96C192.7 91.43 194.31 91.9 195.43 92.37C195.89 92.57 196.33 93.53 196.74 95.27L205.76 134.3C206.56 137.81 207.82 142.98 209.53 149.81C209.99 151.43 210.56 152.38 211.26 152.68C211.76 152.89 212.66 151.48 213.94 148.44C215.67 144.35 218.05 138.09 221.08 129.68C224.11 121.27 226.5 114.99 228.24 110.86C228.85 109.42 229.56 108.87 230.37 109.21C232.69 110.19 236.23 111.57 241 113.36C245.76 115.14 249.31 116.53 251.63 117.51C252.36 117.82 252.48 118.58 251.97 119.79V119.77Z" fill="#D0FD56"/>
<path d="M360.29 201.55C358.3 212.16 355.68 219.16 352.44 222.55C346.49 228.75 334.29 230.12 315.83 226.66C307.49 225.09 301.19 223.24 296.93 221.11C290.14 217.68 286.22 212.83 285.17 206.57C284.63 203.5 285.06 198.28 286.44 190.92C286.76 189.22 287.3 186.69 288.05 183.34C288.81 179.99 289.34 177.49 289.65 175.83C290.56 171.01 291.69 163.73 293.04 153.99C294.4 144.26 295.52 137 296.42 132.21C296.61 131.21 297.13 130.79 298 130.96C300.52 131.43 304.31 132.25 309.37 133.42C314.43 134.59 318.22 135.4 320.74 135.88C321.77 136.07 322.2 136.63 322.03 137.54C321 143.03 319.28 151.22 316.87 162.12C314.46 173.01 312.74 181.21 311.71 186.7C310.48 193.23 310.34 197.77 311.27 200.31C312.5 203.77 316.01 206.04 321.79 207.13C330.25 208.72 335.26 205.37 336.81 197.1C337.94 191.07 339.49 182 341.47 169.88C343.44 157.76 345 148.69 346.13 142.66C346.37 141.37 347.01 140.82 348.04 141.02C350.48 141.48 354.17 142.06 359.12 142.78C364.07 143.49 367.76 144.08 370.2 144.54C371.4 144.76 371.9 145.38 371.71 146.37C370.81 151.15 369.26 158.33 367.06 167.91C364.86 177.49 363.3 184.69 362.4 189.51C362.15 190.84 361.79 192.85 361.33 195.54C360.87 198.23 360.51 200.24 360.26 201.57L360.29 201.55Z" fill="#D0FD56"/>
<path d="M467.15 151.39C466.97 156.21 466.5 163.45 465.75 173.09C464.99 182.74 464.52 189.99 464.34 194.86L462.79 236.66C462.75 237.8 462.12 238.35 460.9 238.31C459.89 238.27 458.37 238.26 456.33 238.27C454.29 238.27 452.77 238.27 451.76 238.23C450.67 238.19 449.03 238.04 446.86 237.79C444.68 237.54 443.05 237.39 441.96 237.35C441.2 237.32 440.33 236.59 439.33 235.16C436.46 230.95 430 221.6 419.94 207.13C417.19 203.09 413 197.13 407.36 189.26C407.2 189 406.9 188.73 406.44 188.46C406.09 188.74 405.91 189.2 405.88 189.84C405.7 194.75 405.56 202.11 405.47 211.93C405.38 221.75 405.24 229.11 405.06 234.02C405.01 235.5 404.41 236.22 403.28 236.18L381.49 235.37C380.27 235.32 379.69 234.65 379.74 233.34C379.91 228.77 380.39 221.89 381.17 212.69C381.95 203.49 382.43 196.58 382.6 191.97C382.78 187.11 382.85 179.83 382.81 170.13C382.77 160.43 382.84 153.17 383.02 148.35C383.05 147.42 383.89 146.98 385.53 147.05C387.96 147.14 390.97 147.08 394.55 146.88C395.39 146.83 397.06 146.61 399.55 146.24C401.66 145.94 403.33 145.81 404.55 145.85C405.05 145.87 405.8 146.62 406.8 148.09L429.08 181.37C431.07 184.37 434.08 188.75 438.11 194.54C439.11 195.89 439.99 196.58 440.74 196.61C441.28 196.63 441.62 194.99 441.74 191.69C441.9 187.25 441.91 180.56 441.76 171.62C441.61 162.68 441.61 155.97 441.78 151.48C441.84 149.92 442.31 149.15 443.19 149.18C445.71 149.27 449.51 149.31 454.6 149.28C459.69 149.26 463.49 149.29 466.01 149.38C466.81 149.41 467.18 150.08 467.13 151.39H467.15Z" fill="#D0FD56"/>
<path d="M508.39 188.02C508.73 193 509.37 200.49 510.3 210.48C511.23 220.47 511.87 227.96 512.21 232.94C512.27 233.78 512.12 234.33 511.75 234.56C511.67 234.61 511.13 234.73 510.13 234.92C507.43 235.44 503.79 235.86 499.23 236.17C493.11 236.59 489.2 236.68 487.5 236.46C486.27 236.29 485.62 235.68 485.54 234.62C485.59 235.3 485.52 231.57 485.35 223.44C484.94 206.29 484.55 195.03 484.18 189.67C483.87 185.15 483.26 178.39 482.35 169.37C481.44 160.36 480.83 153.59 480.52 149.07C480.46 148.14 480.91 147.64 481.87 147.58C483.17 147.49 485.13 147.42 487.76 147.37C490.39 147.32 492.35 147.25 493.65 147.16C494.95 147.07 496.86 146.88 499.39 146.58C501.92 146.28 503.83 146.09 505.13 146C506.34 145.92 506.98 146.34 507.05 147.27C507.36 151.79 507.58 158.58 507.71 167.65C507.84 176.72 508.06 183.51 508.37 188.03L508.39 188.02Z" fill="#D0FD56"/>
<path d="M569.58 227.7C563.99 228.64 560.78 229.09 559.97 229.06C559.15 229.03 558.39 228.53 557.68 227.58C551.38 218.98 545.06 210.37 538.71 201.73C528.67 187.84 523.48 179.89 523.14 177.89C522.59 174.59 521.87 169.62 520.99 162.96C520.11 156.31 519.39 151.33 518.84 148.04C518.58 146.5 518.86 145.65 519.69 145.52C522.18 145.1 525.96 144.57 531.05 143.94C536.14 143.3 539.95 142.77 542.47 142.34C543.51 142.17 544.1 142.52 544.24 143.39C544.81 146.77 545.42 151.89 546.08 158.75C546.74 165.61 547.36 170.73 547.92 174.11C548.35 176.7 554.11 185.24 565.19 199.73C566.77 195.22 568.51 189.71 570.4 183.21C572.93 174.46 574.05 169.17 573.74 167.33C573.23 164.28 572.42 159.71 571.31 153.61C570.2 147.51 569.39 142.94 568.88 139.89C568.69 138.76 568.77 138.11 569.12 137.92L571.11 137.59C573.39 137.21 576.82 136.51 581.4 135.51C585.98 134.51 589.41 133.81 591.69 133.43C592.93 133.22 593.64 133.62 593.81 134.62C594.35 137.83 595.11 142.69 596.1 149.2C597.09 155.71 597.85 160.59 598.4 163.84C598.83 166.43 596.35 176.63 590.95 194.44C588.71 200.91 585.55 210.62 581.47 223.58C581.21 224.57 581.02 225.13 580.89 225.25C580.76 225.38 580.25 225.56 579.35 225.8C577.27 226.32 574.01 226.95 569.57 227.7H569.58Z" fill="#D0FD56"/>
<path d="M684.7 178.2C685.22 179.94 685.84 183.25 686.56 188.11C687.36 193.39 687.62 196.61 687.35 197.75C687.1 198.66 686.55 199.25 685.71 199.5C685.35 199.61 684.73 199.73 683.85 199.86C680.79 200.34 672.16 202.71 657.96 206.98C654.86 207.91 650.25 209.28 644.13 211.08C638 212.88 633.41 214.24 630.36 215.16C629.03 215.56 628.19 215.17 627.84 214C626.47 209.46 624.67 202.57 622.44 193.32C620.21 184.07 618.41 177.18 617.04 172.64C615.65 168.02 612.82 159.48 608.54 147.02C607.44 143.81 605.77 139.04 603.51 132.69L603.19 131.86C602.83 130.95 603.19 130.33 604.28 130.01C607.26 129.11 611.76 127.85 617.78 126.21C623.8 124.58 628.3 123.31 631.28 122.41C634.22 121.53 638.62 120.12 644.48 118.17C650.34 116.23 654.74 114.82 657.68 113.93C659.77 113.3 661.22 113.73 662.01 115.21C662.49 116.08 663.65 118.81 665.5 123.41C667.34 128 668.42 130.81 668.72 131.82C668.98 132.67 668.7 133.22 667.9 133.46C667.66 133.53 667.23 133.64 666.61 133.78C655.64 136.11 645.9 138.55 637.37 141.12C635.24 141.76 634.08 142.66 633.91 143.82C633.85 144.37 634.22 145.96 635.02 148.59C635.85 151.35 636.8 153.05 637.87 153.7C638.79 154.26 640.21 154.26 642.14 153.68C642.54 153.56 643.32 153.29 644.47 152.88C645.62 152.47 646.57 152.15 647.34 151.92C652.41 150.4 657.49 148.71 662.6 146.87C663.03 146.7 664.11 146.26 665.83 145.57C667.15 145 668.21 144.59 669.01 144.35C669.98 144.06 670.6 144.38 670.88 145.31C670.62 144.46 671.19 147.67 672.59 154.94C673.24 158.28 674.06 161.57 675.03 164.81C675.27 165.62 674.81 166.2 673.65 166.55L668.04 167.58C665.67 168.03 660.41 169.48 652.24 171.93L645.84 173.85C644.19 174.35 643.35 175.04 643.31 175.94C643.33 176.16 643.69 177.42 644.38 179.73C645.31 182.81 646.1 184.74 646.78 185.51C647.93 186.84 650.78 186.98 655.32 185.92C655.24 185.94 658.18 185.06 664.13 183.27C666.26 182.63 669.37 181.48 673.46 179.83C677.55 178.18 680.64 177.04 682.73 176.41C683.61 176.14 684.28 176.74 684.72 178.2H684.7Z" fill="#D0FD56"/>
<path d="M777.52 159.25C777.64 159.52 777.34 159.88 776.63 160.34C775.27 161.22 771.66 162.96 765.78 165.57C760.75 167.8 757.28 169.2 755.37 169.77C754.47 170.03 753.95 170.15 753.8 170.12C753.52 170.11 753.08 169.84 752.48 169.32C751.23 168.07 749.4 166.2 746.96 163.71C743.75 160.51 738.88 155.84 732.34 149.71C730.98 148.51 729.02 148.38 726.45 149.33C727.64 148.9 725.68 149.81 720.57 152.08C719.99 152.34 720.14 153.45 721.02 155.42C722.19 158.05 724.17 161.87 726.96 166.88C729.76 171.89 731.74 175.71 732.9 178.34C733.19 179 733.19 179.46 732.9 179.73C732.38 180.01 731.86 180.28 731.34 180.56C729.14 181.72 725.64 183.36 720.84 185.49C715.35 187.93 712 189.27 710.78 189.53C709.56 189.79 708.74 189.44 708.31 188.47C706.42 184.21 703.78 177.7 700.37 168.94C696.96 160.17 694.31 153.64 692.41 149.35C685.15 132.99 679.13 120.38 674.33 111.54L673.91 110.75C673.58 110.11 673.99 109.4 675.13 108.61C676.27 107.82 682.04 104.99 692.42 100.11C699.46 96.81 705.08 94.22 709.31 92.34C718.06 88.46 726.09 87.28 733.39 88.82C741.64 90.53 747.64 95.62 751.4 104.1C753.9 109.75 755.1 114.61 754.98 118.69C754.86 122.77 753.33 127.36 750.4 132.46C749.79 133.47 749.61 134.25 749.85 134.79C749.83 134.75 754.33 138.57 763.34 146.24C772.35 153.91 777.07 158.25 777.52 159.26V159.25ZM730.25 117.93C728.16 113.21 725.17 110.62 721.29 110.17C718.29 109.83 714.26 110.79 709.19 113.04C705.54 114.66 703.85 116.08 704.12 117.3C704.47 118.72 706.04 122.56 708.82 128.83C709.21 129.72 709.82 131.03 710.63 132.75C711.44 134.47 712.03 135.76 712.41 136.61C712.5 136.8 713.2 136.72 714.51 136.37C717.01 135.68 719.54 134.76 722.11 133.62C730.52 129.89 733.23 124.66 730.25 117.93Z" fill="#D0FD56"/>
<path d="M815.61 103.78C819.95 111.19 820.58 119.36 817.49 128.29C814.79 136.15 809.92 143 802.88 148.85C802.61 149.06 802.39 149.21 802.21 149.32C801.38 149.81 798.02 148.33 792.16 144.88C786.29 141.43 783.02 139.14 782.36 138.01C782.12 137.61 782.25 137.19 782.73 136.77C787.28 132.49 790.16 129.42 791.37 127.59C794.03 123.48 794.26 119.57 792.08 115.84C790.69 113.47 787.91 111.54 783.73 110.07C776.54 107.61 772.61 106.22 771.93 105.88C767.2 103.55 763.49 100.08 760.8 95.48C756.88 88.8 756.69 81.46 760.23 73.45C763.09 66.87 767.84 60.89 774.48 55.53C774.86 55.26 775.15 55.06 775.37 54.93C775.91 54.61 776.61 54.79 777.45 55.48C779.95 57.59 784.97 61.13 792.5 66.08C792.74 66.24 792.9 66.39 792.98 66.53C793.34 67.15 793.2 67.65 792.55 68.03C792.26 68.2 791.74 68.43 790.99 68.73C790.24 69.03 789.68 69.28 789.32 69.49C786.71 71.02 784.78 72.96 783.53 75.31C781.99 78.08 781.95 80.7 783.4 83.19C784.71 85.42 787.62 87.39 792.13 89.11C800.16 92.25 804.36 93.91 804.75 94.07C809.68 96.58 813.31 99.82 815.64 103.8L815.61 103.78Z" fill="#D0FD56"/>
<path d="M888.22 62.73C889.32 64.18 891.06 67.06 893.43 71.37C896.03 76.04 897.4 78.96 897.54 80.12C897.62 81.06 897.32 81.8 896.61 82.34C896.31 82.57 895.77 82.9 894.99 83.33C892.29 84.85 885.04 90.09 873.23 99.06C870.65 101.02 866.81 103.91 861.7 107.73C856.59 111.56 852.76 114.44 850.22 116.37C849.12 117.21 848.19 117.14 847.45 116.16C844.58 112.39 840.49 106.56 835.16 98.67C829.83 90.79 825.74 84.96 822.87 81.18C819.95 77.34 814.31 70.33 805.95 60.15C803.8 57.53 800.56 53.64 796.22 48.49L795.63 47.82C794.97 47.1 795.1 46.39 796 45.7C798.48 43.82 802.25 41.06 807.32 37.42C812.39 33.78 816.16 31.02 818.64 29.15C821.08 27.3 824.71 24.43 829.53 20.57C834.35 16.7 837.97 13.84 840.42 11.99C842.16 10.67 843.66 10.56 844.93 11.68C845.69 12.33 847.73 14.48 851.06 18.14C854.39 21.8 856.38 24.05 857.02 24.89C857.56 25.6 857.49 26.21 856.82 26.71C856.62 26.86 856.26 27.11 855.73 27.46C846.27 33.48 837.99 39.18 830.9 44.56C829.13 45.91 828.36 47.15 828.6 48.3C828.74 48.83 829.64 50.19 831.3 52.38C833.04 54.67 834.53 55.94 835.76 56.17C836.81 56.38 838.14 55.87 839.75 54.65C840.08 54.4 840.72 53.88 841.65 53.09C842.58 52.3 843.37 51.67 844 51.19C848.21 47.99 852.39 44.63 856.53 41.12C856.87 40.81 857.73 40.02 859.1 38.77C860.14 37.77 860.99 37.02 861.66 36.51C862.46 35.9 863.16 35.98 863.75 36.76C863.21 36.05 864.87 38.86 868.72 45.18C870.5 48.08 872.41 50.88 874.46 53.57C874.97 54.24 874.74 54.95 873.77 55.69L868.87 58.61C866.81 59.86 862.38 63.06 855.59 68.21L850.27 72.25C848.9 73.29 848.35 74.24 848.63 75.09C848.72 75.28 849.5 76.34 850.96 78.26C852.91 80.82 854.33 82.35 855.22 82.83C856.76 83.68 859.48 82.81 863.37 80.23C863.3 80.28 865.75 78.43 870.7 74.67C872.47 73.32 874.99 71.16 878.24 68.19C881.49 65.22 883.99 63.07 885.73 61.75C886.47 61.19 887.29 61.52 888.22 62.73Z" fill="#D0FD56"/>
</g>
<defs>
<filter id="filter0_d_1670_193" x="4.32361" y="4.13321" width="900.009" height="240.959" filterUnits="userSpaceOnUse" color-interpolation-filters="sRGB">
<feFlood flood-opacity="0" result="BackgroundImageFix"/>
<feColorMatrix in="SourceAlpha" type="matrix" values="0 0 0 0 0 0 0 0 0 0 0 0 0 0 0 0 0 0 127 0" result="hardAlpha"/>
<feOffset/>
<feGaussianBlur stdDeviation="3.39"/>
<feColorMatrix type="matrix" values="0 0 0 0 0.937255 0 0 0 0 1 0 0 0 0 0.670588 0 0 0 0.7 0"/>
<feBlend mode="normal" in2="BackgroundImageFix" result="effect1_dropShadow_1670_193"/>
<feBlend mode="normal" in="SourceGraphic" in2="effect1_dropShadow_1670_193" result="shape"/>
</filter>
</defs>
</svg>
