<?xml version="1.0" encoding="UTF-8"?>
<svg id="_레이어_1" data-name="레이어_1" xmlns="http://www.w3.org/2000/svg" version="1.1" viewBox="0 0 300 300">
  <!-- Generator: Adobe Illustrator 29.4.0, SVG Export Plug-In . SVG Version: 2.1.0 Build 152)  -->
  <defs>
    <style>
      .st0 {
        stroke-miterlimit: 10;
      }

      .st0, .st1 {
        fill: none;
        stroke: #fff;
        stroke-width: 8px;
      }

      .st1 {
        stroke-linecap: round;
        stroke-linejoin: round;
      }
    </style>
  </defs>
  <g id="_생성형_개체" data-name="생성형_개체">
    <g>
      <path class="st0" d="M189.32,204.76h0l.41-.38c7.42-6.44,14.11-13.83,21.6-20.18.14-.12.26-.26.41-.38.66-.55,1.97-2.12,2.45-2.28.44-.15.78-.58,1.09-1.09l53.23,53.56c12.47,19.17-11.73,41.4-29.18,28.74-16.94-12.28-33.48-36.25-50.17-49.95-.62-1.08.58-5.97.14-7.47-.05-.18.08-.41.02-.57h0Z"/>
      <path class="st0" d="M211.74,183.81c-.14.12-.27.26-.41.38-7.49,6.35-14.18,13.74-21.6,20.18l-.41.38h0c-.99-2.64-10.76-10.09-12.71-13.33l-1.73-2.02c6.41-4.69,16.21-14.35,20.81-20.74l1.87,1.71c3.9,3.72,7.52,7.76,11.45,11.45.82.77,1.9,1.23,2.32,2.37.14-.12.26-.26.41-.38Z"/>
      <g>
        <path class="st1" d="M195.69,168.67c-4.6,6.39-14.4,16.05-20.81,20.74C86.77,253.85-21.02,135.31,52.42,55.29c74.67-81.34,203.94,15.36,145.36,109.84-.72,1.16-1.28,2.4-2.1,3.53Z"/>
        <path class="st1" d="M116.36,48.74c88.73-5.47,98,130.01,7.65,134.87-89.05,4.79-96.7-129.38-7.65-134.87Z"/>
      </g>
    </g>
    <g>
      <path class="st1" d="M197.56,170.37c3.9,3.72,7.52,7.76,11.45,11.45"/>
      <path class="st1" d="M215.28,180.44l53.23,53.56c12.47,19.17-11.73,41.4-29.18,28.74-16.94-12.28-33.48-36.25-50.17-49.95-.62-1.08.58-5.97.14-7.47l.02-.57"/>
      <path class="st1" d="M176.61,191.42c1.95,3.24,11.72,10.69,12.71,13.33"/>
      <path class="st1" d="M214.18,181.53c-.48.17-1.78,1.73-2.45,2.28-.14.12-.27.26-.41.38-7.49,6.35-14.18,13.74-21.6,20.18l-.41.38"/>
    </g>
  </g>
</svg>