<?xml version="1.0" encoding="UTF-8"?>
<svg id="_레이어_1" data-name="레이어_1" xmlns="http://www.w3.org/2000/svg" version="1.1" viewBox="0 0 300 300">
  <!-- Generator: Adobe Illustrator 29.4.0, SVG Export Plug-In . SVG Version: 2.1.0 Build 152)  -->
  <defs>
    <style>
      .st0 {
        stroke-miterlimit: 10;
      }

      .st0, .st1 {
        fill: none;
      }

      .st0, .st1, .st2 {
        stroke: #fff;
      }

      .st1, .st2 {
        stroke-linecap: round;
        stroke-linejoin: round;
        stroke-width: 8px;
      }

      .st2 {
        fill: #fff;
      }
    </style>
  </defs>
  <g id="_생성형_개체" data-name="생성형_개체">
    <g>
      <path class="st0" d="M78.4,255.11c-4.26-19.18-15.48-53.66-22.91-72.01.83-.54,2.08-.94,2.89-1.38,20.76-11.11,39.28-17.1,62.28-7.42,6.77,2.85,14.19,9.14,20.94,11.05,20.37,5.77,58.35-9.15,75.76,7.8l.53.44.55-.33c8.82-5.15,17.46-10.61,26.29-15.72.18-.11.36-.22.55-.33,6.6-3.79,23.43-15.34,29.94-14.69,10.21,1.01,15.82,11.35,10.54,20.2-24.14,17.08-52.81,53.01-78.29,65.75-21.08,10.53-96.85,3.23-126.09,5.96-1.13.11-1.89-.18-2.98.69Z"/>
      <path class="st0" d="M245.28,177.21c-.18.11-.36.22-.55.33-8.83,5.12-17.48,10.58-26.29,15.72l-.55.33-.53-.44c-17.42-16.95-55.39-2.03-75.76-7.8-6.75-1.91-14.17-8.2-20.94-11.05.3-1.43,1.65-1.62,2.54-2.32,18.42-14.43,36.79-26.23,59.52-32.74l.67.21c21.96,7.01,44.49,18.3,59.84,35.89l1.5,2.2c.18-.11.36-.22.55-.33Z"/>
      <path class="st1" d="M55.48,183.1c7.44,18.35,18.65,52.83,22.91,72.01.88,3.95,3.51,7.11-.79,10.55-1.32,1.05-27.5,9.68-30.11,10.04-9.68,1.34-9.94-3.48-12.8-10.79-3.05-7.79-23.14-70.22-22.46-74.03.5-2.8,1.56-4.15,3.89-5.77,1.66-1.15,31.52-10.79,33.25-10.54,2.36.35,3.08,1.37,4.39,3.14h0c.67,1.76,1.01,3.66,1.72,5.4Z"/>
      <path class="st2" d="M252.54,83.91l-.72-.16c-7.16-1.8-14.33-3.18-21.77-2.91-15.23.54-29.74,6.73-34.13,22.84-.61,2.22-.83,11.02-.06,12.9l.26.54c.73,1.02,6.07,3.98,7.59,4.64,25.85,11.25,44.87-15.03,48.83-37.83Z"/>
      <path class="st2" d="M169.83,117.18c.09-.17.06-.4,0-.66,2.15-25.77-16.47-37.13-40.15-35.68-3.68.22-15.63,1.13-16.44,4.9-2.13,9.9,16.03,32.12,25.23,36.25,7.94,3.57,24.54,1.12,30.74-4.53.21-.19.57-.17.63-.28Z"/>
      <path class="st2" d="M181.83,24.08l-.43.61c-14.85,16.18-25.86,44.37.62,55.43l.59.31c26.74-11,16.79-41.58-.78-56.35Z"/>
    </g>
    <g>
      <line class="st1" x1="182.31" y1="60.39" x2="182.72" y2="139.25"/>
      <polyline class="st1" points="150.76 104.85 182.34 124.95 215.2 104.79"/>
      <path class="st1" d="M182.72,139.25c-22.74,6.51-41.11,18.31-59.52,32.74"/>
      <path class="st1" d="M182.72,139.25l.67.21c21.96,7.01,44.49,18.3,59.84,35.89"/>
      <path class="st1" d="M58.38,181.72c20.76-11.11,39.28-17.1,62.28-7.42,6.77,2.85,14.19,9.14,20.94,11.05,20.37,5.77,58.35-9.15,75.76,7.8l.53.44"/>
      <path class="st1" d="M81.38,254.42c29.24-2.72,105.01,4.58,126.09-5.96,25.49-12.73,54.16-48.66,78.29-65.75,5.28-8.86-.33-19.19-10.54-20.2-6.52-.65-23.35,10.91-29.94,14.69-.18.11-.36.22-.55.33-8.83,5.12-17.48,10.58-26.29,15.72l-.55.33"/>
      <path class="st1" d="M217.89,193.59c-1.46,7.96-1.8,14.91-11.05,17.48l-75.91.5"/>
    </g>
  </g>
</svg>