<svg width="1918" height="764" viewBox="0 0 1918 764" fill="none" xmlns="http://www.w3.org/2000/svg">
<g clip-path="url(#clip0_952_54)">
<circle cx="1529.5" cy="10.5" r="1.5" fill="white"/>
<circle cx="221.5" cy="277.5" r="1.5" fill="white"/>
<circle cx="282.5" cy="370.5" r="1.5" fill="white"/>
<circle cx="103.5" cy="761.5" r="1.5" fill="white"/>
<circle cx="866.5" cy="642.5" r="1.5" fill="white"/>
<circle cx="1290.5" cy="282.5" r="1.5" fill="white"/>
<circle cx="1405.5" cy="644.5" r="1.5" fill="white"/>
<circle cx="923.5" cy="253.5" r="1.5" fill="white"/>
<circle cx="1820.5" cy="658.5" r="1.5" fill="white"/>
<circle cx="423.5" cy="231.5" r="1.5" fill="white" fill-opacity="0.5"/>
<circle cx="28.5" cy="468.5" r="1.5" fill="white" fill-opacity="0.5"/>
<circle cx="1782.5" cy="374.5" r="1.5" fill="white" fill-opacity="0.5"/>
<circle cx="1089.5" cy="473.5" r="1.5" fill="white" fill-opacity="0.5"/>
<circle cx="1.5" cy="1.5" r="1.5" transform="matrix(-1 0 0 1 827 636)" fill="white" fill-opacity="0.5"/>
<circle cx="737.5" cy="256.5" r="1.5" fill="white" fill-opacity="0.5"/>
<circle cx="1.5" cy="1.5" r="1.5" transform="matrix(-1 0 0 1 1179 419)" fill="white" fill-opacity="0.5"/>
<circle cx="1913.5" cy="327.5" r="1.5" fill="white" fill-opacity="0.5"/>
<circle cx="1.5" cy="1.5" r="1.5" transform="matrix(-1 0 0 1 3 490)" fill="white" fill-opacity="0.5"/>
<circle cx="135.5" cy="226.5" r="1.5" fill="white" fill-opacity="0.2"/>
<circle cx="1.5" cy="1.5" r="1.5" transform="matrix(-1 0 0 1 1781 389)" fill="white" fill-opacity="0.2"/>
<circle cx="1493.5" cy="477.5" r="1.5" fill="white" fill-opacity="0.2"/>
<circle cx="1693.5" cy="705.5" r="1.5" fill="white" fill-opacity="0.2"/>
<circle cx="1.5" cy="1.5" r="1.5" transform="matrix(-1 0 0 1 423 640)" fill="white" fill-opacity="0.2"/>
<circle cx="1753.5" cy="5.5" r="1.5" fill="white" fill-opacity="0.2"/>
<circle cx="1.5" cy="1.5" r="1.5" transform="matrix(-1 0 0 1 163 168)" fill="white" fill-opacity="0.2"/>
<circle cx="1.5" cy="1.5" r="1.5" transform="matrix(-1 0 0 1 363 396)" fill="white" fill-opacity="0.2"/>
<circle cx="1.5" cy="1.5" r="1.5" fill="white" fill-opacity="0.2"/>
<circle cx="201.5" cy="229.5" r="1.5" fill="white" fill-opacity="0.2"/>
<circle cx="1.5" cy="1.5" r="1.5" transform="matrix(-1 0 0 1 1915 164)" fill="white" fill-opacity="0.2"/>
</g>
<defs>
<clipPath id="clip0_952_54">
<rect width="1918" height="764" fill="white"/>
</clipPath>
</defs>
</svg>
