<svg width="730" height="303" viewBox="0 0 730 303" fill="none" xmlns="http://www.w3.org/2000/svg">
<g clip-path="url(#clip0_952_75)">
<path opacity="0.5" d="M364.053 108.396C428.818 108.583 481.388 85.554 481.47 56.9603C481.552 28.3665 429.116 5.03562 364.351 4.84922C299.585 4.66283 247.015 27.6915 246.933 56.2853C246.851 84.879 299.287 108.21 364.053 108.396Z" fill="#8E8E8E" stroke="#252625" stroke-miterlimit="10"/>
<path d="M364.053 108.396C428.818 108.583 481.388 85.554 481.47 56.9603C481.552 28.3665 429.116 5.03562 364.351 4.84922C299.585 4.66283 247.015 27.6915 246.933 56.2853C246.851 84.879 299.287 108.21 364.053 108.396Z" stroke="#252625" stroke-width="3" stroke-miterlimit="10"/>
<path d="M364.732 283.086C564.718 283.661 726.995 229.806 727.188 162.796C727.38 95.7863 565.416 40.9976 365.43 40.422C165.445 39.8465 3.16788 93.702 2.97502 160.712C2.78216 227.722 164.746 282.51 364.732 283.086Z" fill="url(#paint0_linear_952_75)" stroke="#252625" stroke-width="3" stroke-miterlimit="10" stroke-linecap="round"/>
<path d="M365.266 56.3408L364.936 171.033" stroke="#252625" stroke-width="3" stroke-linecap="round" stroke-linejoin="round"/>
<path d="M26.4141 152.844C66.6402 194.869 122.385 221.762 180.386 227.122" stroke="#252625" stroke-width="3" stroke-linecap="round" stroke-linejoin="round"/>
<path d="M700.165 156.118C659.697 197.91 603.799 224.482 545.768 229.508" stroke="#252625" stroke-width="3" stroke-linecap="round" stroke-linejoin="round"/>
<path d="M518.921 258.75C520.652 252.154 521.891 245.431 522.632 238.651C523.25 232.946 524.776 225.908 521.812 220.706C518.656 215.954 514.703 212.781 509.958 209.606C489.389 198.48 468.007 194.467 445.832 190.451C397.519 183.197 351.565 182.275 303.215 187.669C273.094 191.534 244.56 194.614 217.575 210.345C215.558 211.77 212.424 213.358 211.039 215.393C209.185 218.115 209.569 222.424 209.837 225.507C210.788 236.45 213.301 247.254 217.273 257.502C317.365 243.262 414.886 243.427 515 257.5L518.921 258.75Z" fill="#737F7E" stroke="#252625" stroke-width="3" stroke-miterlimit="10" stroke-linecap="round"/>
<path d="M367.942 298.683C451.306 298.923 518.94 280.482 519.006 257.493C519.072 234.505 451.546 215.674 368.182 215.434C284.818 215.194 217.185 233.636 217.118 256.624C217.052 279.613 284.578 298.443 367.942 298.683Z" fill="#DBDACC" stroke="#252625" stroke-width="3" stroke-miterlimit="10" stroke-linecap="round"/>
<path d="M367.49 290.999C445.384 291.223 508.573 276.011 508.628 257.021C508.683 238.031 445.581 222.455 367.688 222.231C289.794 222.007 226.604 237.219 226.549 256.209C226.495 275.199 289.596 290.775 367.49 290.999Z" fill="#7C7A71" stroke="#252625" stroke-width="3" stroke-miterlimit="10" stroke-linecap="round"/>
<mask id="mask0_952_75" style="mask-type:luminance" maskUnits="userSpaceOnUse" x="226" y="223" width="283" height="70">
<path d="M367.087 292.184C444.981 292.408 508.171 277.195 508.226 258.206C508.28 239.216 445.179 223.64 367.285 223.416C289.391 223.192 226.202 238.404 226.147 257.394C226.092 276.383 289.194 291.959 367.087 292.184Z" fill="white"/>
</mask>
<g mask="url(#mask0_952_75)">
<path d="M364.344 281.899C409.198 282.028 445.665 245.859 445.793 201.113C445.922 156.367 409.665 119.989 364.81 119.86C319.956 119.731 283.489 155.9 283.361 200.646C283.232 245.392 319.489 281.77 364.344 281.899Z" fill="#FFF992"/>
</g>
<path d="M367.087 292.184C444.981 292.408 508.171 277.195 508.226 258.206C508.28 239.216 445.179 223.64 367.285 223.416C289.391 223.192 226.202 238.404 226.147 257.394C226.092 276.383 289.194 291.959 367.087 292.184Z" stroke="#252625" stroke-miterlimit="10"/>
<path d="M365.023 184.724L364.939 213.922" stroke="#252625" stroke-width="3" stroke-miterlimit="10" stroke-linecap="round"/>
<path d="M496.464 203.411C494.694 212.796 492.931 222.173 491.161 231.559" stroke="#252625" stroke-width="3" stroke-miterlimit="10" stroke-linecap="round"/>
<path d="M245.762 198.063L252.027 229.201" stroke="#252625" stroke-width="3" stroke-miterlimit="10" stroke-linecap="round"/>
</g>
<defs>
<linearGradient id="paint0_linear_952_75" x1="364.732" y1="283.086" x2="365.43" y2="40.422" gradientUnits="userSpaceOnUse">
<stop stop-color="#A8B1B3"/>
<stop offset="0.25" stop-color="#A1AAAC"/>
<stop offset="0.6" stop-color="#8F999A"/>
<stop offset="0.99" stop-color="#737F7E"/>
<stop offset="1" stop-color="#2F4461"/>
</linearGradient>
<clipPath id="clip0_952_75">
<rect width="728.852" height="299.094" fill="white" transform="translate(1.00781 0.905273) rotate(0.1649)"/>
</clipPath>
</defs>
</svg>
