<svg width="62" height="62" viewBox="0 0 62 62" fill="none" xmlns="http://www.w3.org/2000/svg">
<g clip-path="url(#clip0_131_657)">
<path d="M0.962891 0.764771V60.2721H61.9999V0.764771H0.962891ZM3.50546 3.30734H59.4554V57.7276H3.50546V3.30734Z" fill="black"/>
<g clip-path="url(#clip1_131_657)">
<path d="M32.7209 19.5129L26.0449 30.8047L33.1787 42.7833C33.3312 43.0503 33.1787 43.1075 32.9688 43.1075H27.8761C27.5137 43.1075 27.2657 43.0884 27.1322 42.8405C26.6553 41.8868 26.1785 40.9331 25.7016 39.9984C25.2248 39.0638 24.7098 38.091 24.1757 37.1183C23.6225 36.1455 23.1075 35.1536 22.5735 34.1427C22.0966 35.1155 21.5625 36.1073 21.0475 37.0801C20.5325 38.0529 20.0175 39.0257 19.5216 39.9984C19.0257 40.9712 18.5107 41.9249 17.9766 42.8786C17.8812 43.1075 17.7096 43.1266 17.4807 43.1266H12.5787C12.3879 43.1266 12.3688 42.974 12.4642 42.8023L19.3881 31.1481L12.6549 19.4747C12.5214 19.3221 12.6359 19.1314 12.8266 19.1505H17.8812C18.0911 19.1314 18.3009 19.2268 18.4153 19.3984C18.854 20.3903 19.3309 21.3631 19.8459 22.3549C20.3799 23.3277 20.8949 24.3005 21.4481 25.2542C21.9822 26.2079 22.5162 27.1807 22.974 28.1534C23.4509 27.1425 23.9277 26.1697 24.4237 25.216C24.9196 24.2623 25.4155 23.2896 25.9305 22.3358C26.4455 21.3631 26.9414 20.4094 27.4183 19.4557C27.4755 19.2458 27.6281 19.1314 27.8379 19.1505H32.5301C32.7209 19.1505 32.7972 19.3984 32.7209 19.5129Z" fill="black"/>
<path d="M43.0022 43.5844C39.8359 43.6416 36.5361 42.3255 34.8766 39.4453C34.0565 38.0529 33.6559 36.3362 33.6559 34.2381C33.6368 32.5595 34.0565 30.9001 34.8766 29.4314C36.9748 25.6929 41.1902 24.2814 45.1957 24.6629V17.4147C45.1766 17.2621 45.2529 17.1668 45.4055 17.1668H49.9261C50.0405 17.1477 50.155 17.2621 50.1359 17.3956V39.1019C50.1359 39.9984 50.2313 40.8949 50.2885 41.7914C50.2885 41.944 50.2122 42.0966 50.0787 42.1538C47.8279 43.1075 45.4055 43.5844 43.0022 43.5844ZM45.1766 39.0257V28.9927C41.8959 28.0771 38.7296 30.5758 38.7296 34.0282C38.6533 37.5951 41.7242 40.0747 45.1766 39.0257Z" fill="black"/>
</g>
</g>
<defs>
<clipPath id="clip0_131_657">
<rect width="61.037" height="61.037" fill="white" transform="translate(0.962891)"/>
</clipPath>
<clipPath id="clip1_131_657">
<rect width="37.862" height="26.4176" fill="white" transform="translate(12.4072 17.1666)"/>
</clipPath>
</defs>
</svg>
