<svg width="62" height="62" viewBox="0 0 62 62" fill="none" xmlns="http://www.w3.org/2000/svg">
<g clip-path="url(#clip0_131_653)">
<path d="M0 0.764893V60.2722H61.037V0.764893H0ZM2.54257 3.30747H58.4926V57.7277H2.54257V3.30747ZM21.1703 34.4631L19.1542 42.0831C19.1141 42.3025 19.034 42.3407 18.7861 42.3407H15.0514C14.7939 42.3407 14.7538 42.2605 14.7939 41.9725L22.0153 16.6803C22.145 16.2225 22.2232 15.8162 22.2633 14.5535C22.2633 14.3838 22.3529 14.3056 22.4826 14.3056H27.8081C27.9779 14.3056 28.0656 14.3456 28.1056 14.5535L36.2026 42.0126C36.2522 42.2205 36.2026 42.3407 35.9947 42.3407H31.8022C31.5829 42.3407 31.4646 42.2911 31.4245 42.1213L29.3188 34.4612H21.1627L21.1703 34.4631ZM28.264 30.3297C27.5487 27.5182 25.8702 21.3592 25.2445 18.3779H25.1949C24.659 21.3477 23.3066 26.3852 22.2652 30.3297H28.264ZM39.7084 16.1939C39.7084 14.5554 40.8414 13.5903 42.312 13.5903C43.8627 13.5903 44.9156 14.6432 44.9156 16.1939C44.9156 17.8724 43.8227 18.7975 42.2624 18.7975C40.7422 18.7975 39.6989 17.8743 39.6989 16.1939H39.7084ZM39.9964 21.9753C39.9964 21.7769 40.0765 21.6968 40.2844 21.6968H44.2786C44.5074 21.6968 44.5856 21.7769 44.5856 21.9943V42.0717C44.5856 42.2796 44.5456 42.3597 44.2881 42.3597H40.3531C40.0956 42.3597 40.0155 42.2396 40.0155 42.0317V21.9734L39.9964 21.9753Z" fill="black"/>
</g>
<defs>
<clipPath id="clip0_131_653">
<rect width="61.037" height="61.037" fill="white"/>
</clipPath>
</defs>
</svg>
