<svg width="62" height="62" viewBox="0 0 62 62" fill="none" xmlns="http://www.w3.org/2000/svg">
<g clip-path="url(#clip0_131_649)">
<path d="M0.222168 0.764771V60.2721H61.2592V0.764771H0.222168ZM2.76474 3.30734H58.7147V57.7276H2.76474V3.30734ZM17.4785 34.4629L15.4624 42.0525C15.4223 42.2604 15.3326 42.3405 15.0847 42.3405H11.35C11.102 42.3405 11.062 42.2509 11.102 41.9629L18.3235 16.6993C18.4436 16.2415 18.5314 15.8753 18.5714 14.6125C18.5714 14.4428 18.6515 14.355 18.7793 14.355H24.1144C24.2841 14.355 24.3623 14.4046 24.4024 14.6125L32.4993 42.001C32.5394 42.2089 32.4993 42.3291 32.2914 42.3291H28.0989C27.891 42.3291 27.7613 42.2604 27.7213 42.0907L25.625 34.4515H17.4785V34.4629ZM24.6103 30.3296C23.895 27.5181 22.1669 21.3495 21.5413 18.3778H21.5012C20.9557 21.3476 19.5843 26.3851 18.5314 30.3296H24.6103ZM38.2406 32.9332C38.2902 36.3799 39.9191 38.6859 43.7835 38.6859C45.2942 38.6859 46.5855 38.4876 47.9264 37.8905C48.0962 37.8104 48.224 37.86 48.224 38.0698V41.259C48.224 41.507 48.1439 41.6367 47.9665 41.7664C46.6256 42.4321 44.9566 42.7296 42.8604 42.7296C36.1444 42.7296 33.6304 37.7818 33.6304 32.2389C33.6304 26.2382 36.7299 21.3304 42.1947 21.3304C47.7281 21.3304 49.6545 25.9902 49.6545 29.765C49.6545 30.9876 49.5649 31.9909 49.4466 32.4563C49.397 32.6643 49.3169 32.7348 49.109 32.7749C48.6016 32.8645 47.0929 32.9446 44.8669 32.9446H38.2406V32.9332ZM43.4078 29.435C44.7086 29.435 45.1664 29.435 45.2961 29.395C45.2961 29.2252 45.3362 29.0764 45.3362 28.9582C45.3362 27.5677 44.6609 25.0232 42.0173 25.0232C39.5834 25.0232 38.5305 27.169 38.2826 29.435H43.4078Z" fill="black"/>
</g>
<defs>
<clipPath id="clip0_131_649">
<rect width="61.037" height="61.037" fill="white" transform="translate(0.222168)"/>
</clipPath>
</defs>
</svg>
