<svg width="62" height="62" viewBox="0 0 62 62" fill="none" xmlns="http://www.w3.org/2000/svg">
<g clip-path="url(#clip0_131_651)">
<path d="M0.740723 0.764771V60.2721H61.7778V0.764771H0.740723ZM3.2833 3.30734H59.2333V57.7276H3.2833V3.30734ZM15.4926 14.7022C15.4926 14.5324 15.8512 14.4046 16.0591 14.4046C17.6976 14.3245 20.1028 14.2749 22.6168 14.2749C29.6704 14.2749 32.4113 18.1393 32.4113 23.0872C32.4113 29.5552 27.7229 32.3266 21.9797 32.3266C21.0069 32.3266 20.6789 32.2771 20.0036 32.2771V42.0525C20.0036 42.2604 19.9235 42.3501 19.7156 42.3501H15.7806C15.5727 42.3501 15.4926 42.27 15.4926 42.062V14.7022ZM20.0036 28.2143C20.5892 28.2543 21.0565 28.2543 22.0694 28.2543C25.0392 28.2543 27.8412 27.2014 27.8412 23.1787C27.8412 19.9495 25.8346 18.311 22.4375 18.311C21.4342 18.311 20.4709 18.3511 20.0036 18.3911V28.2143ZM41.8988 25.1834C39.8826 25.1834 39.2074 26.1962 39.2074 27.0317C39.2074 27.9549 39.6652 28.5824 42.3565 29.9729C46.3411 31.9108 47.6019 33.7477 47.6019 36.4791C47.6019 40.5418 44.4928 42.7277 40.3004 42.7277C38.0744 42.7277 36.1784 42.2604 35.0855 41.6348C34.9272 41.5547 34.8871 41.4269 34.8871 41.2171V37.4824C34.8871 37.2344 35.0073 37.1448 35.1751 37.2745C36.764 38.3273 38.6123 38.7851 40.2908 38.7851C42.3069 38.7851 43.1424 37.9497 43.1424 36.809C43.1424 35.8859 42.5568 35.0905 40.0028 33.7496C36.3864 32.0215 34.8757 30.2628 34.8757 27.3216C34.8757 24.0428 37.4392 21.3209 41.8797 21.3209C44.0656 21.3209 45.6049 21.6585 46.4498 22.0266C46.6577 22.1563 46.6978 22.3643 46.6978 22.534V26.0208C46.6978 26.2287 46.5681 26.3584 46.3201 26.2687C45.1871 25.603 43.5181 25.1758 41.8892 25.1758L41.8988 25.1834Z" fill="black"/>
</g>
<defs>
<clipPath id="clip0_131_651">
<rect width="61.037" height="61.037" fill="white" transform="translate(0.740723)"/>
</clipPath>
</defs>
</svg>
