<svg width="62" height="62" viewBox="0 0 62 62" fill="none" xmlns="http://www.w3.org/2000/svg">
<g clip-path="url(#clip0_131_647)">
<path d="M0.481445 0.764771V60.2721H61.5185V0.764771H0.481445ZM3.02402 3.30734H58.974V57.7276H3.02402V3.30734ZM16.496 14.6927C16.496 14.5229 16.5361 14.3951 16.7535 14.3951C18.3825 14.315 20.7763 14.2749 23.2902 14.2749C30.3438 14.2749 33.4033 18.1393 33.4033 23.0872C33.4033 29.5437 28.734 32.3171 22.9812 32.3171C22.018 32.3171 21.6804 32.2771 21.0051 32.2771V42.0525C21.0051 42.2604 20.925 42.3405 20.7171 42.3405H16.7936C16.5742 42.3405 16.496 42.2604 16.496 42.0525V14.6927ZM21.0051 28.2028C21.6022 28.2429 22.058 28.2429 23.0709 28.2429C26.0407 28.2429 28.8331 27.1995 28.8331 23.1673C28.8331 19.938 26.8456 18.2996 23.439 18.2996C22.4357 18.2996 21.4725 18.3492 21.0051 18.3892V28.2028ZM37.2887 25.8987C37.2887 25.6011 37.2887 24.8458 37.159 23.4248C37.159 23.2169 37.1895 23.1673 37.3574 23.0872C40.3272 21.9446 43.4763 21.3495 46.656 21.3285C46.8639 21.3285 46.9535 21.3686 46.9535 21.5765V25.273C46.9535 25.481 46.8849 25.521 46.675 25.521C45.0556 25.4218 43.4267 25.5897 41.8665 26.0284V42.0525C41.8665 42.2604 41.7768 42.3405 41.5689 42.3405H37.5748C37.3669 42.3405 37.2868 42.2604 37.2868 42.0525L37.2887 25.8987Z" fill="black"/>
</g>
<defs>
<clipPath id="clip0_131_647">
<rect width="61.037" height="61.037" fill="white" transform="translate(0.481445)"/>
</clipPath>
</defs>
</svg>
