<svg width="62" height="62" viewBox="0 0 62 62" fill="none" xmlns="http://www.w3.org/2000/svg">
<rect x="2.39345" y="2.39357" width="58.1759" height="58.1759" stroke="black" stroke-width="2.86111"/>
<path d="M20.753 38.7419C24.4248 38.7419 25.7361 36.2385 25.7361 36.2385L23.638 34.9867C23.638 34.9867 22.8512 36.2385 21.0153 36.2385C19.1794 36.2385 17.8681 33.9853 17.8681 30.7308C17.8681 27.7267 19.4417 26.2246 21.0153 26.2246C22.3266 26.2246 23.3757 27.226 23.3757 27.226L25.4738 25.7239C25.4738 25.7239 23.638 23.7211 21.0153 23.7211C18.1303 23.7211 15.2454 25.9742 15.2454 30.7308C15.2454 35.4874 17.6058 38.7419 20.753 38.7419ZM32.8174 35.9881C32.0306 36.2385 30.9815 35.9881 30.1947 34.9867L28.0965 36.2385C29.1456 37.7405 30.7192 38.7419 32.2928 38.7419C32.5551 38.7419 33.0796 38.7419 33.3419 38.4916C35.1778 37.9909 36.2269 36.4888 36.2269 34.486C36.2269 31.4819 34.1287 30.4805 32.8174 29.9798C31.506 29.2287 30.9815 28.9784 30.9815 27.977C30.9815 26.9756 31.2438 26.2246 32.5551 26.2246C33.3419 26.2246 34.1287 27.226 34.1287 27.226L36.2269 25.7239C35.7023 24.9728 34.391 23.7211 32.5551 23.7211C30.1947 23.7211 28.3588 25.2232 28.3588 27.7267C28.3588 30.4805 30.1947 31.4819 31.506 32.2329C33.0796 32.7336 33.6042 33.2343 33.6042 34.486C33.6042 35.2371 33.6042 35.9881 32.8174 35.9881ZM43.3081 35.9881C42.5213 36.2385 41.4722 35.9881 40.6854 34.9867L38.5873 36.2385C39.6363 37.7405 41.21 38.7419 42.7836 38.7419C43.0458 38.7419 43.5704 38.7419 43.8326 38.4916C45.6685 37.9909 46.7176 36.4888 46.7176 34.486C46.7176 31.4819 44.6194 30.4805 43.3081 29.9798C41.9968 29.2287 41.4722 28.9784 41.4722 27.977C41.4722 26.9756 41.7345 26.2246 43.0458 26.2246C43.8326 26.2246 44.6194 27.226 44.6194 27.226L46.7176 25.7239C46.1931 24.9728 44.8817 23.7211 43.0458 23.7211C40.6854 23.7211 38.8495 25.2232 38.8495 27.7267C38.8495 30.4805 40.6854 31.4819 41.9968 32.2329C43.5704 32.7336 44.0949 33.2343 44.0949 34.486C44.0949 35.2371 44.0949 35.9881 43.3081 35.9881ZM10 11.2037V51.2593H51.963V11.2037H10ZM49.3403 48.7558H12.6227V13.7072H49.3403V48.7558Z" fill="black"/>
</svg>
