<svg width="62" height="62" viewBox="0 0 62 62" fill="none" xmlns="http://www.w3.org/2000/svg">
<rect x="1.43056" y="2.39357" width="58.1759" height="58.1759" stroke="black" stroke-width="2.86111"/>
<path d="M40.205 25.5297C41.6356 24.6005 42.7388 23.2063 43.3471 21.5588C43.9554 19.9113 44.0357 18.1003 43.5757 16.4005C43.1157 14.7007 42.1405 13.2049 40.7982 12.1401C39.4559 11.0752 37.8196 10.4994 36.1376 10.5H22.992C21.31 10.4994 19.6737 11.0752 18.3314 12.1401C16.9891 13.2049 16.014 14.7007 15.554 16.4005C15.094 18.1003 15.1742 19.9113 15.7825 21.5588C16.3908 23.2063 17.494 24.6005 18.9247 25.5297C17.8041 26.257 16.8791 27.2732 16.2375 28.4819C15.596 29.6905 15.2593 31.0514 15.2593 32.4353C15.2593 33.8192 15.5961 35.18 16.2376 36.3887C16.8792 37.5973 17.8042 38.6135 18.9249 39.3408C17.7793 40.0856 16.839 41.132 16.1969 42.3762C15.5548 43.6205 15.2333 45.0194 15.2643 46.4344C15.2952 47.8494 15.6776 49.2313 16.3734 50.4432C17.0692 51.6552 18.0544 52.655 19.2313 53.3438C20.4082 54.0325 21.736 54.3862 23.083 54.3698C24.4301 54.3534 25.7497 53.9675 26.9111 53.2503C28.0725 52.5331 29.0353 51.5096 29.7043 50.281C30.3732 49.0525 30.725 47.6616 30.7247 46.2463V38.2297C31.5005 39.0304 32.4284 39.6502 33.4478 40.0484C34.4671 40.4466 35.555 40.6143 36.6402 40.5405C37.7255 40.4668 38.7837 40.1532 39.7458 39.6204C40.7078 39.0875 41.552 38.3474 42.2231 37.4483C42.8942 36.5493 43.3772 35.5115 43.6405 34.4029C43.9038 33.2943 43.9414 32.1398 43.7509 31.0149C43.5604 29.8899 43.1461 28.8199 42.5351 27.8747C41.9241 26.9295 41.1301 26.1304 40.205 25.5297ZM41.5505 18.6242C41.5489 20.1313 40.9786 21.5762 39.9647 22.6422C38.9507 23.7082 37.5758 24.3083 36.1414 24.3111L36.1376 24.311L36.1302 24.3112L30.7247 24.311V12.9373H36.1376C37.5727 12.939 38.9486 13.5387 39.9634 14.6048C40.9781 15.6709 41.5489 17.1165 41.5505 18.6242ZM17.5791 18.6242C17.5807 17.1165 18.1515 15.6709 19.1663 14.6048C20.181 13.5387 21.5569 12.939 22.992 12.9373H28.4049V24.311H22.992L22.9883 24.3111C21.5539 24.3084 20.179 23.7082 19.165 22.6422C18.151 21.5762 17.5807 20.1313 17.5791 18.6242ZM17.5791 32.4352C17.5807 30.9281 18.151 29.4832 19.165 28.4172C20.179 27.3512 21.5539 26.751 22.9883 26.7483L22.992 26.7484L28.4049 26.7483V38.1219L22.992 38.1221C21.5569 38.1204 20.181 37.5207 19.1663 36.4546C18.1515 35.3885 17.5807 33.9429 17.5791 32.4352ZM22.992 51.9331C22.2808 51.9337 21.5764 51.7871 20.9192 51.5016C20.262 51.2161 19.6647 50.7973 19.1616 50.2692C18.6585 49.741 18.2594 49.1139 17.9871 48.4236C17.7148 47.7333 17.5746 46.9935 17.5746 46.2463C17.5746 45.499 17.7148 44.7592 17.9871 44.0689C18.2594 43.3786 18.6585 42.7515 19.1616 42.2233C19.6647 41.6952 20.262 41.2764 20.9192 40.9909C21.5764 40.7054 22.2808 40.5588 22.992 40.5594L28.4049 40.5593V46.2463C28.4033 47.754 27.8325 49.1995 26.8177 50.2656C25.8029 51.3317 24.4271 51.9314 22.992 51.9331ZM36.1376 38.1221C34.703 38.1217 33.3272 37.5229 32.3125 36.4573C31.2979 35.3917 30.7274 33.9465 30.7264 32.4392C30.7254 30.9319 31.294 29.4859 32.3073 28.4188C33.3205 27.3517 34.6955 26.7509 36.1302 26.7484H36.1376L36.1413 26.7483C37.576 26.7503 38.9512 27.3506 39.9648 28.4173C40.9784 29.484 41.5475 30.9299 41.547 32.4372C41.5466 33.9445 40.9765 35.3899 39.9622 36.4559C38.9479 37.5219 37.5723 38.1212 36.1376 38.1221Z" fill="black"/>
</svg>
