<svg width="66" height="66" viewBox="0 0 66 66" fill="none" xmlns="http://www.w3.org/2000/svg">
<rect x="1.18318" y="1.19294" width="63.6141" height="63.6141" rx="31.8071" stroke="black" stroke-width="2.38588"/>
<path d="M45.6839 17.0411C45.2476 16.3087 44.597 15.7182 43.8143 15.3441C43.0316 14.9701 42.1521 14.8294 41.2869 14.9398C40.4218 15.0501 39.6098 15.4067 38.9537 15.9642C38.2976 16.5218 37.8268 17.2554 37.6009 18.0722L35.0757 27.2079L32.5505 18.0739C32.2476 16.9784 31.508 16.0444 30.4945 15.4774C29.481 14.9104 28.2766 14.7567 27.1462 15.0503C26.0158 15.3438 25.0521 16.0605 24.467 17.0427C23.8818 18.0248 23.7233 19.192 24.0262 20.2875L25.7589 26.55L23.7411 26.1734C22.7689 25.9801 21.7578 26.1101 20.8712 26.5423C19.9846 26.9746 19.2742 27.6839 18.855 28.5557C18.4357 29.4275 18.3319 30.4108 18.5605 31.3467C18.789 32.2827 19.3365 33.1166 20.1145 33.7138C19.2998 34.3367 18.7399 35.2197 18.5345 36.2054C18.4744 36.4934 18.4443 36.7865 18.4446 37.0803V38.2562C18.4446 41.6583 19.8392 44.9211 22.3216 47.3268C24.804 49.7324 28.1709 51.0839 31.6816 51.0839H31.7834C39.0264 51.0313 44.9186 45.2111 44.9186 38.1082V37.5589C44.9158 35.5338 44.1971 33.5708 42.8821 31.9969L46.1184 20.2875C46.2711 19.7454 46.3114 19.1793 46.2368 18.6221C46.1622 18.0648 45.9743 17.5274 45.6839 17.0411ZM26.2307 18.0278C26.4656 17.6333 26.816 17.3152 27.2376 17.1137C27.6591 16.9123 28.1328 16.8365 28.5988 16.896C29.0648 16.9555 29.5021 17.1476 29.8554 17.448C30.2087 17.7484 30.4621 18.1437 30.5836 18.5837L33.2089 28.0598C32.1495 28.0222 31.1115 28.3555 30.2849 28.9988C30.2204 28.8837 30.1508 28.7702 30.0745 28.6584C29.5762 27.9231 28.8536 27.3568 28.0075 27.0385L25.9931 19.776C25.9117 19.4838 25.8907 19.1789 25.9315 18.8789C25.9723 18.5788 26.074 18.2896 26.2307 18.0278ZM20.5303 29.9017C20.5929 29.6046 20.7155 29.3225 20.891 29.0715C21.0665 28.8205 21.2914 28.6055 21.5528 28.4389C21.8143 28.2724 22.1071 28.1575 22.4145 28.1009C22.7218 28.0443 23.0377 28.0471 23.344 28.1091L26.8637 28.7669C27.1793 28.8171 27.4813 28.9285 27.7515 29.0944C28.0217 29.2604 28.2545 29.4776 28.436 29.7328C28.6175 29.9881 28.7439 30.2763 28.8076 30.5801C28.8714 30.8839 28.8712 31.197 28.8071 31.5007C28.7429 31.8044 28.6162 32.0924 28.4344 32.3475C28.2526 32.6026 28.0195 32.8195 27.7491 32.9851C27.4787 33.1508 27.1766 33.2618 26.8608 33.3116C26.5451 33.3614 26.2222 33.3488 25.9116 33.2747L23.8752 32.8948L23.753 32.8718L23.6851 32.8603L22.3902 32.6185C21.774 32.4954 21.2333 32.1403 20.8868 31.6313C20.5403 31.1223 20.4164 30.5008 20.5422 29.9033L20.5303 29.9017ZM20.5303 36.5984C20.6564 36.0051 21.0188 35.4839 21.5388 35.1477C22.0588 34.8116 22.6946 34.6875 23.3083 34.8025L23.4781 34.8354L25.0292 35.1315C25.3409 35.186 25.6382 35.3004 25.9037 35.468C26.1691 35.6355 26.3973 35.8528 26.5748 36.1071C26.7523 36.3613 26.8756 36.6474 26.9373 36.9485C26.999 37.2496 26.998 37.5596 26.9343 37.8603C26.8706 38.161 26.7455 38.4464 26.5663 38.6995C26.3871 38.9527 26.1575 39.1686 25.891 39.3345C25.6245 39.5004 25.3264 39.6129 25.0143 39.6656C24.7022 39.7182 24.3824 39.7098 24.0737 39.6409L22.3767 39.312C21.7601 39.1892 21.219 38.8343 20.8721 38.3252C20.5253 37.8162 20.4011 37.1945 20.5269 36.5968L20.5303 36.5984ZM42.8821 38.1082C42.8821 44.1306 37.8945 49.066 31.7664 49.1104C29.2461 49.1277 26.7932 48.3214 24.8038 46.8217C22.8144 45.322 21.4046 43.2164 20.8018 40.8447C21.1713 41.0334 21.5667 41.1696 21.9762 41.2493L23.6732 41.5782C23.9665 41.6354 24.265 41.6646 24.5642 41.6654C25.3607 41.664 26.1419 41.4536 26.8251 41.0567C27.5082 40.6597 28.0677 40.091 28.4442 39.4108C28.8208 38.7306 29.0003 37.9643 28.9637 37.1932C28.9272 36.4221 28.6759 35.675 28.2366 35.0311L28.1653 34.9325C28.5184 34.7816 28.8498 34.587 29.1513 34.3536C29.2158 34.4698 29.2854 34.5833 29.36 34.694C29.6789 35.1642 30.0909 35.5683 30.5722 35.8831C31.0534 36.1979 31.5943 36.417 32.1635 36.5277L33.5789 36.8007C33.447 37.2753 33.3797 37.7646 33.3786 38.2562C33.3755 39.7201 33.9675 41.1263 35.0265 42.1703C35.2155 42.3572 35.4734 42.4637 35.7435 42.4663C36.0135 42.4689 36.2736 42.3674 36.4664 42.1843C36.6593 42.0011 36.7691 41.7511 36.7718 41.4894C36.7746 41.2277 36.6699 40.9757 36.4808 40.7888C35.9227 40.2368 35.5615 39.5261 35.4504 38.7608C35.3392 37.9955 35.4839 37.2158 35.8631 36.5359C35.9393 36.4001 35.9815 36.2487 35.9863 36.0941C35.991 35.9396 35.9583 35.786 35.8905 35.646C35.8228 35.506 35.7221 35.3833 35.5965 35.2879C35.4708 35.1926 35.3238 35.1271 35.1673 35.0969L32.5641 34.592C32.2523 34.5375 31.955 34.4231 31.6895 34.2555C31.4241 34.088 31.1959 33.8707 31.0184 33.6165C30.8409 33.3622 30.7177 33.0761 30.6559 32.775C30.5942 32.4739 30.5952 32.1639 30.6589 31.8632C30.7226 31.5625 30.8477 31.2771 31.0269 31.024C31.2061 30.7708 31.4357 30.5549 31.7022 30.389C31.9688 30.2231 32.2668 30.1106 32.5789 30.0579C32.891 30.0053 33.2108 30.0137 33.5195 30.0826L37.1512 30.7848C38.7655 31.1012 40.2176 31.9482 41.2618 33.1825C42.3061 34.4168 42.8784 35.9628 42.8821 37.5589V38.1082ZM44.1566 19.776L41.2105 30.4312C40.1267 29.6473 38.8762 29.1074 37.55 28.8508L36.771 28.6995L39.5678 18.5853C39.7582 18.0273 40.1617 17.561 40.6955 17.2819C41.2293 17.0029 41.853 16.9322 42.4388 17.0844C43.0246 17.2367 43.5282 17.6002 43.8463 18.1007C44.1644 18.6011 44.273 19.2005 44.1498 19.776H44.1566Z" fill="#030303"/>
</svg>
