<svg width="62" height="62" viewBox="0 0 62 62" fill="none" xmlns="http://www.w3.org/2000/svg">
<rect x="1.912" y="2.39357" width="58.1759" height="58.1759" stroke="black" stroke-width="2.86111"/>
<path d="M16.1365 21.3649C12.9268 26.4046 13.3244 32.9595 15.7782 38.3115C15.8341 38.442 15.8961 38.5659 15.9566 38.6899C15.9914 38.7758 16.0307 38.8551 16.073 38.9361C16.0927 38.9823 16.1199 39.0303 16.1441 39.0732C16.1834 39.1591 16.2257 39.2418 16.2666 39.3244L16.5039 39.7622C16.5478 39.8432 16.5901 39.9225 16.64 40.0035C16.7231 40.1588 16.8214 40.3125 16.9076 40.4678C16.9469 40.5322 16.9832 40.5967 17.027 40.6611C17.1737 40.9128 17.33 41.1576 17.4957 41.3948C17.6137 41.5716 17.7316 41.7434 17.8586 41.9153C17.8994 41.9781 17.9448 42.0408 17.9871 42.1036L18.3212 42.5481C18.3621 42.5993 18.4029 42.6588 18.4467 42.7117C18.5949 42.9067 18.7521 43.0967 18.9094 43.2884C18.9094 43.2917 18.9139 43.295 18.9169 43.2999C19.1084 43.5646 19.3231 43.8081 19.558 44.027C19.6789 44.1625 19.7999 44.298 19.9284 44.4302L20.0811 44.5904C20.2489 44.7623 20.4167 44.9341 20.5936 45.0994C20.5966 45.0994 20.5982 45.1027 20.6012 45.1043L20.6874 45.1869C20.8416 45.334 20.9973 45.4811 21.1561 45.6166L21.345 45.7901C21.4735 45.9024 21.6066 46.0098 21.7381 46.1205L21.9438 46.2924C22.0844 46.408 22.234 46.522 22.3777 46.6344C22.4306 46.6757 22.4835 46.717 22.5379 46.755L22.5818 46.793L23.0066 47.0987L23.188 47.2309C23.4103 47.3862 23.631 47.5333 23.8503 47.6787C23.9138 47.7134 23.9773 47.7514 24.0362 47.7911C24.1995 47.8935 24.3688 47.9976 24.5336 48.0934C24.6244 48.1496 24.7181 48.1975 24.8118 48.2488C24.9252 48.3182 25.0432 48.3859 25.1641 48.4553C25.1934 48.4651 25.2217 48.4778 25.2488 48.4933C25.2987 48.5181 25.3455 48.5445 25.3939 48.571C25.5753 48.6701 25.7643 48.7643 25.9609 48.8585C25.9972 48.875 26.0365 48.8915 26.0758 48.9147C26.2935 49.0188 26.5112 49.1179 26.7365 49.2154C26.7879 49.2319 26.8423 49.26 26.8952 49.2815C27.0993 49.3657 27.3095 49.4517 27.5166 49.5326L27.5922 49.5624C27.8235 49.6483 28.0518 49.7309 28.2862 49.8102C28.3406 49.8268 28.3966 49.8482 28.454 49.8648C28.6944 49.9441 28.9272 50.0383 29.1691 50.0895C44.6813 53.1794 49.1898 39.8961 49.1898 39.8961C45.4025 45.2861 38.682 46.7071 32.3169 45.1258C32.0811 45.0663 31.8452 44.9837 31.6078 44.9077C31.3201 44.8149 31.0343 44.7152 30.7506 44.6086L30.6569 44.569C30.4512 44.493 30.2532 44.4087 30.0521 44.3244C29.9974 44.2996 29.942 44.277 29.8858 44.2567C29.6635 44.1592 29.4473 44.0584 29.2326 43.9543C29.1858 43.9378 29.1465 43.9146 29.0996 43.8948C28.9169 43.8029 28.735 43.7092 28.5538 43.6139C28.4994 43.5876 28.4459 43.5589 28.3935 43.528C28.2514 43.4553 28.1093 43.3727 27.9702 43.2933C27.8747 43.2432 27.7804 43.1903 27.6875 43.1347C27.5166 43.0356 27.3458 42.9282 27.1749 42.8257C27.1235 42.7861 27.0646 42.753 27.0056 42.7167C26.7827 42.5724 26.5619 42.4242 26.3434 42.2722C26.2826 42.2309 26.2231 42.1873 26.165 42.1416C26.0046 42.0336 25.8472 41.92 25.6933 41.8013C25.6404 41.7633 25.592 41.7219 25.5375 41.6806C25.3874 41.567 25.2392 41.4502 25.093 41.3303C25.0295 41.2742 24.9615 41.2213 24.8935 41.1651C24.7604 41.0511 24.6259 40.942 24.4928 40.8214L24.3144 40.6661C24.1432 40.5151 23.9748 40.3603 23.8094 40.2018C23.7922 40.1834 23.7735 40.1668 23.7535 40.1522L23.2289 39.6301L23.0777 39.4747C22.9537 39.3376 22.8267 39.2054 22.6997 39.0699L22.553 38.9047C22.3933 38.731 22.2376 38.553 22.0859 38.371L22.0632 38.3445C21.9031 38.1518 21.7454 37.9568 21.59 37.7596C21.5491 37.7084 21.5113 37.6538 21.469 37.5993L21.1273 37.1416C20.953 36.8973 20.7816 36.6506 20.6133 36.4014C17.083 31.1336 15.8054 23.8633 18.6312 17.8999M26.0954 17.12C23.7686 20.7701 23.9002 25.6511 25.7114 29.511C26.0108 30.1608 26.3528 30.7859 26.735 31.3815C27.0827 31.9268 27.4667 32.5712 27.9324 33.0107C28.0942 33.2123 28.2696 33.4073 28.4525 33.6039L28.5886 33.7526C28.7609 33.9344 28.9378 34.1128 29.1177 34.2896L29.1404 34.3111C29.3443 34.5057 29.553 34.6941 29.7663 34.8762C29.8177 34.9142 29.8616 34.9588 29.9115 34.9968C30.1232 35.1753 30.3363 35.3471 30.5571 35.5173L30.5797 35.5322C30.6735 35.6066 30.7733 35.6743 30.8791 35.747C30.9214 35.7768 30.9698 35.8164 31.0152 35.8462C31.1754 35.9585 31.3327 36.0643 31.4944 36.1717C31.5202 36.1832 31.5428 36.1981 31.567 36.2097C31.7031 36.3006 31.8513 36.3881 31.9934 36.4691C32.0433 36.5021 32.0917 36.5269 32.1431 36.5583C32.2444 36.6129 32.3441 36.6707 32.4409 36.7269L32.4893 36.75C32.6934 36.8591 32.902 36.9615 33.1061 37.0639C33.1575 37.0854 33.2014 37.1036 33.2452 37.1267C33.4131 37.2061 33.5839 37.2821 33.7517 37.3531C33.8273 37.3812 33.8984 37.4142 33.9694 37.439C34.1236 37.5018 34.2854 37.5597 34.4381 37.6175L34.6498 37.6918C34.8705 37.7662 35.0943 37.8637 35.3271 37.905C47.3014 40.0745 50.0742 29.9952 50.0742 29.9952C47.5781 33.9212 42.7475 35.7916 37.5995 34.3309C37.3719 34.2665 37.146 34.1949 36.9222 34.1161C36.8496 34.0947 36.7861 34.0699 36.7166 34.0467C36.5593 33.9873 36.3976 33.9294 36.2449 33.8666L36.0271 33.7774C35.8578 33.7031 35.6854 33.6337 35.5206 33.5543C35.4692 33.5296 35.4224 33.513 35.3831 33.4882C35.1714 33.3841 34.9582 33.2817 34.7526 33.171L34.4411 32.9942L34.2612 32.8951C34.1257 32.8164 33.9921 32.7337 33.8606 32.6472C33.8284 32.6304 33.7971 32.6117 33.7668 32.591C33.6066 32.482 33.4403 32.3762 33.2876 32.2639C33.2362 32.2325 33.1893 32.1945 33.1409 32.1614L32.8264 31.9367C32.6087 31.7714 32.3955 31.593 32.1809 31.4211C32.1325 31.3732 32.0856 31.3336 32.0387 31.2906C29.7754 29.3458 27.9899 26.6871 27.1432 23.6765C26.2512 20.547 26.4477 17.0374 27.9883 14.1887M34.4699 13.9458C33.0971 16.1468 32.9655 18.8798 33.9105 21.3071C34.9144 23.8847 36.9675 25.9089 39.3594 26.8673C39.4576 26.9086 39.5529 26.9433 39.6542 26.9829L39.7872 27.0275C39.9263 27.0754 40.0669 27.1316 40.2106 27.1663C46.8267 28.5609 48.6168 23.4535 49.0991 22.7033C47.5237 25.1752 44.8824 25.7684 41.6423 24.9076C41.378 24.8354 41.1176 24.7471 40.8622 24.6432C40.5447 24.5213 40.2334 24.3812 39.9294 24.2235C39.354 23.9187 38.8071 23.5534 38.2965 23.1329C35.3937 20.7304 33.596 16.1435 35.4889 12.4075" fill="black"/>
</svg>
