<svg width="213" height="124" viewBox="0 0 213 124" fill="none" xmlns="http://www.w3.org/2000/svg">
<g clip-path="url(#clip0_131_601)">
<path d="M212.523 25.212H0.477051V6.43495C0.477051 3.14939 3.15126 0.476685 6.43867 0.476685H206.562C209.849 0.476685 212.523 3.14939 212.523 6.43495V25.212Z" fill="#F8F8F8"/>
<path d="M212.523 25.6886H0.476929C0.204398 25.6886 0 25.4673 0 25.212V7.13289C0 3.20044 3.20224 0 7.13691 0H205.846C209.781 0 212.983 3.20044 212.983 7.13289V25.212C213 25.4673 212.779 25.6886 212.523 25.6886ZM0.953858 24.7353H212.046V7.13289C212.046 3.72817 209.27 0.953322 205.863 0.953322H7.13691C3.73027 0.953322 0.953858 3.72817 0.953858 7.13289V24.7353Z" fill="black"/>
<path d="M206.562 123.523H6.43867C3.15126 123.523 0.477051 120.851 0.477051 117.565V25.212H212.523V117.565C212.523 120.851 209.849 123.523 206.562 123.523Z" fill="white"/>
<path d="M205.846 124H7.13691C3.20224 124 0 120.8 0 116.85V25.212C0 24.9567 0.204398 24.7354 0.476929 24.7354H212.523C212.779 24.7354 213 24.9396 213 25.212V116.867C213 120.8 209.798 124 205.846 124ZM0.953858 25.6887V116.867C0.953858 120.272 3.73027 123.047 7.13691 123.047H205.846C209.253 123.047 212.029 120.272 212.029 116.867V25.6887H0.953858Z" fill="black"/>
<path d="M174.437 12.8358C174.437 15.8149 172.018 18.2323 169.037 18.2323C166.056 18.2323 163.638 15.8149 163.638 12.8358C163.638 9.85668 166.056 7.43933 169.037 7.43933C172.035 7.45635 174.437 9.87371 174.437 12.8358Z" fill="white"/>
<path d="M169.054 18.7089C165.818 18.7089 163.178 16.0703 163.178 12.8358C163.178 9.60131 165.818 6.96265 169.054 6.96265C172.29 6.96265 174.931 9.60131 174.931 12.8358C174.931 16.0703 172.29 18.7089 169.054 18.7089ZM169.054 7.93299C166.346 7.93299 164.132 10.129 164.132 12.8528C164.132 15.5766 166.329 17.7726 169.054 17.7726C171.762 17.7726 173.977 15.5596 173.977 12.8528C173.977 10.1461 171.762 7.93299 169.054 7.93299Z" fill="black"/>
<path d="M184.282 18.2323C187.264 18.2323 189.681 15.8162 189.681 12.8358C189.681 9.85542 187.264 7.43933 184.282 7.43933C181.3 7.43933 178.882 9.85542 178.882 12.8358C178.882 15.8162 181.3 18.2323 184.282 18.2323Z" fill="white"/>
<path d="M184.282 18.7089C181.045 18.7089 178.405 16.0703 178.405 12.8358C178.405 9.60131 181.045 6.96265 184.282 6.96265C187.518 6.96265 190.158 9.60131 190.158 12.8358C190.158 16.0703 187.518 18.7089 184.282 18.7089ZM184.282 7.93299C181.573 7.93299 179.359 10.129 179.359 12.8528C179.359 15.5766 181.556 17.7726 184.282 17.7726C186.99 17.7726 189.204 15.5596 189.204 12.8528C189.204 10.1461 186.99 7.93299 184.282 7.93299Z" fill="black"/>
<path d="M199.51 18.2323C202.492 18.2323 204.909 15.8162 204.909 12.8358C204.909 9.85542 202.492 7.43933 199.51 7.43933C196.528 7.43933 194.11 9.85542 194.11 12.8358C194.11 15.8162 196.528 18.2323 199.51 18.2323Z" fill="white"/>
<path d="M199.51 18.7089C196.273 18.7089 193.633 16.0703 193.633 12.8358C193.633 9.60131 196.273 6.96265 199.51 6.96265C202.746 6.96265 205.386 9.60131 205.386 12.8358C205.386 16.0703 202.746 18.7089 199.51 18.7089ZM199.51 7.93299C196.801 7.93299 194.587 10.129 194.587 12.8528C194.587 15.5766 196.784 17.7726 199.51 17.7726C202.218 17.7726 204.432 15.5596 204.432 12.8528C204.432 10.1461 202.218 7.93299 199.51 7.93299Z" fill="black"/>
</g>
<defs>
<clipPath id="clip0_131_601">
<rect width="213" height="124" fill="white"/>
</clipPath>
</defs>
</svg>
