<svg width="62" height="62" viewBox="0 0 62 62" fill="none" xmlns="http://www.w3.org/2000/svg">
<rect x="2.17128" y="2.39357" width="58.1759" height="58.1759" stroke="black" stroke-width="2.86111"/>
<path d="M45.3666 17.7434L38.6962 14.5175C37.92 14.1406 36.9969 14.2995 36.3899 14.9096L23.6135 26.6286L18.0455 22.3841C17.5287 21.9858 16.8001 22.0184 16.3198 22.4585L14.5365 24.0923C13.9457 24.6281 13.9457 25.5621 14.5314 26.0979L19.3607 30.5278L14.5314 34.9577C13.9457 35.4934 13.9457 36.4275 14.5365 36.9633L16.3198 38.5971C16.8052 39.0371 17.5287 39.0697 18.0455 38.6715L23.6135 34.4219L36.396 46.1459C36.9979 46.7561 37.921 46.915 38.6972 46.5381L45.3737 43.3071C46.0759 42.9679 46.5187 42.2569 46.5187 41.4716V19.5769C46.5187 18.7966 46.0698 18.0805 45.3686 17.7413L45.3666 17.7434ZM38.4155 37.9299L28.7153 30.5288L38.4155 23.1277V37.9299Z" fill="black"/>
</svg>
